<?xml version="1.0" encoding="utf-8"?>
<!-- Generator: Adobe Illustrator 21.0.0, SVG Export Plug-In . SVG Version: 6.00 Build 0)  -->
<svg version="1.1" id="Layer_1" xmlns="http://www.w3.org/2000/svg" xmlns:xlink="http://www.w3.org/1999/xlink" x="0px" y="0px"
	 viewBox="0 0 750 750" style="enable-background:new 0 0 750 750;" xml:space="preserve">
<style type="text/css">
	.st0{fill:#F2F2F2;}
	.st1{fill:#CCCCCC;}
</style>
<title>compass</title>
<rect class="st0" width="750" height="750"/>
<g id="Symbols">
	<g id="Header-2-open-search">
		<g id="search-bar-auto-suggest">
			<g id="compass">
				<path id="Fill-1" class="st1" d="M134.1,141c7.4-7.4,18.6-9.6,28.2-5.9L607,313.6c9.6,3.7,16.3,13.4,16.3,23.7
					c0,10.4-6.7,20-16.3,23.7l-181.8,69.4l-69.9,181.6c-3.7,9.6-13.4,16.3-23.7,16.3c-10.4,0-20-6.7-24.5-16.3L129.7,166.9
					C124.5,159.5,126.7,148.4,134.1,141L134.1,141L134.1,141z M329.4,533.5l45.4-117.1l-66.6-66.8l26.7-26.7l63.7,63.9l128.4-49.5
					l-327.6-131L329.4,533.5L329.4,533.5z"/>
			</g>
		</g>
	</g>
</g>
</svg>
