<svg xmlns="http://www.w3.org/2000/svg" xmlns:xlink="http://www.w3.org/1999/xlink" viewBox="0 0 1164.12 549.05">
    <defs>
        <style>
            .cls-4-1 {
                fill: #fff;
            }
            .cls-4-2 {
                fill: #1c2b39;
            }
            .cls-4-3 {
                fill: #000;
            }
            .cls-4-4 {
                fill: #231f20;
            }
        </style>
        <symbol id="Staircase" data-name="Staircase" viewBox="0 0 18.3 18.3">
            <rect class="cls-4-1" x="0.38" y="0.38" width="17.55" height="17.55" />
            <path d="M17.47,18.3H.83A.83.83,0,0,1,0,17.47V.83A.83.83,0,0,1,.83,0H17.47a.83.83,0,0,1,.83.83V17.47A.83.83,0,0,1,17.47,18.3ZM.83.76A.08.08,0,0,0,.76.83V17.47a.08.08,0,0,0,.08.08H17.47a.08.08,0,0,0,.08-.08V.83a.08.08,0,0,0-.08-.08Z"
            />
            <path d="M15.76,4.7H13.07a.75.75,0,0,0-.75.75V7.38H10.38a.75.75,0,0,0-.75.75v1.94H7.7a.75.75,0,0,0-.75.75v2h-2a.75.75,0,0,0-.75.75v1.56a.75.75,0,0,0,.75.75H15.76a.75.75,0,0,0,.75-.75V5.45a.75.75,0,0,0-.75-.75Zm0,0"
            />
            <path d="M11.82,2.55a.5.5,0,0,0-.7,0c-3.2,3.11-6.24,6.15-9.17,9.09A.5.5,0,0,0,1.8,12v3.41a.5.5,0,1,0,1,0v-3.2c2.89-2.89,5.88-5.88,9-8.94a.5.5,0,0,0,0-.7Zm0,0"
            />
        </symbol>
        <symbol id="Men_and_women_restroom" data-name="Men and women restroom" viewBox="0 0 18.45 16.45">
            <rect class="cls-4-1" x="0.35" y="0.35" width="17.75" height="15.75" rx="0.77" ry="0.77" />
            <path d="M17.32.7a.42.42,0,0,1,.42.42v14.2a.42.42,0,0,1-.42.42H1.13a.42.42,0,0,1-.42-.42V1.13A.42.42,0,0,1,1.13.7h16.2m0-.7H1.13A1.13,1.13,0,0,0,0,1.13v14.2a1.13,1.13,0,0,0,1.13,1.13h16.2a1.13,1.13,0,0,0,1.13-1.13V1.13A1.13,1.13,0,0,0,17.32,0Z"
            />
            <path d="M6.25,4.09H3.39A1.26,1.26,0,0,0,2.14,5.34l0,3.9a.53.53,0,0,0,.53.53h0a.53.53,0,0,0,.53-.53l0-3.9h0a.11.11,0,0,1,.21,0v8.92a.64.64,0,1,0,1.27,0V9.18H5v5.09a.64.64,0,1,0,1.27,0c0-8.42,0-3.6,0-8.92a.11.11,0,0,1,.22,0h0v3.9A.53.53,0,0,0,7,9.78H7a.53.53,0,0,0,.53-.53V5.35h0A1.26,1.26,0,0,0,6.25,4.09Zm0,0"
            />
            <path d="M5.92,2.64a1.1,1.1,0,1,1-1.1-1.1,1.1,1.1,0,0,1,1.1,1.1Zm0,0" />
            <path d="M16.51,8.42,15.38,5.2c-.24-.71-.65-1.07-1.22-1.07H12.33c-.56,0-1,.36-1.22,1.07L10,8.42a.53.53,0,1,0,1,.35c0-.09.61-1.7.94-2.63,0,.28.06-.3-.75,3.92a.29.29,0,0,0,.29.35h.4v3.82a.63.63,0,1,0,1.26,0V10.41h.27v3.82a.63.63,0,0,0,1.26,0V10.41h.4a.29.29,0,0,0,.29-.35c-.81-4.18-.72-3.69-.75-3.92l.92,2.63a.53.53,0,0,0,1-.35Zm0,0"
            />
            <path d="M14.34,2.68a1.09,1.09,0,1,1-1.09-1.09,1.09,1.09,0,0,1,1.09,1.09Zm0,0" />
            <path d="M9.33,2.25a.41.41,0,0,0-.41.41V13.79a.41.41,0,1,0,.81,0V2.66a.41.41,0,0,0-.41-.41Zm0,0" />
        </symbol>
    </defs>
    <title>level-4_1</title>
    <g id="Level_4" data-name="Level 4">
        <path class="cls-4-2" d="M773.9,160.7V382.05l-87,.17V340.48H630.51V328.74H577.16v11.18H562.27v-2.41h-1.77v-1.14H517.82v42.35h-8.14V511.87H229.12V378.72h-8.34V336.43H176.41V205.85h42.17V163.69h10.54V37.19h75.1v45H434.52v-45h73.65v126.5h9.66v43.72h42.67v-1.14h1.77v-2.43h14.89V213h53.35v-9.8h56.35V160.71Zm-1.75,219.62V162.45H688.6v40.78h27v39.52H728.3v55.51H715.65v42.23h-27v40Zm-45.6-83.81v-52h-96V214.77h-55.1v-9.18H564V208h-1.77v1.14H516.08V165.44H473.31v44.28H432.63V165.44H220.33V207.6H178.16V334.68h44.37V377h84.58V334.68h39.82V377h83.75V335.76h46V377h39.37V334.61h46.17v1.14H564v2.41h11.39V327h55.1V296.5h96ZM713.9,338.73V298.25h-6.19v9.19h-.58a10,10,0,0,1-10-9.19H674v40.48H713.9Zm0-96V205H674v37.77h22.69a10,10,0,0,1,10-9.28h.58v9.28Zm-7.36,63.51V298h-8.26c0,.08,0,.17,0,.26A8.86,8.86,0,0,0,706.54,306.25Zm-.48-63.34v-8.27a8.88,8.88,0,0,0-8.24,8.1s0,.1,0,.16Zm-33.85,95.82V298.25h-22.4a10,10,0,0,1-10,9.19h-.58v-9.19h-7v40.48Zm0-96V205h-40v37.77H639v-9.19h.58a10,10,0,0,1,10,9.19Zm-23.58,55.51,0-.26H640.4v8.26A8.86,8.86,0,0,0,648.63,298.25ZM648.4,243l0-.26a8.86,8.86,0,0,0-8.23-8V243ZM507.94,510.12v-83.5H475v-47.9H230.87v131.4Zm0-85.24V378.72H476.71v46.16Zm-1.52-261.18V38.94H436.26V84H302.47v-45h-71.6V163.69ZM475,377V337.51H432.44V377Zm-3.39-169V165.44H434.38V208ZM345.19,377V336.43H308.86V377Z"
        />
        <polygon class="cls-4-1" points="772.15 162.45 772.15 380.31 688.61 380.48 688.61 340.48 715.65 340.48 715.65 298.25 728.3 298.25 728.3 242.75 715.65 242.75 715.65 203.22 688.61 203.22 688.61 162.45 772.15 162.45"
        />
        <path class="cls-4-1" d="M726.55,244.49v52h-96V327h-55.1v11.18H564v-2.41h-1.77v-1.14H516.08V377H476.71V335.76h-46V377H346.94V334.68H307.12V377H222.54V334.68H178.16V207.6h42.17V165.44H432.63v44.28h40.69V165.44h42.76v43.72h46.17V208H564v-2.43h11.39v9.18h55.1v29.72h96Zm-5,46.75V251.15H681.41v40.09ZM518.78,325.83V217.94h-327V325.83h39.33v43.54h70.46V325.83Z"
        />
        <path class="cls-4-2" d="M721.5,251.15v40.09H681.41V251.15Zm-1.75,38.34V252.9H683.16V289.5Z" />
        <rect class="cls-4-3" x="683.16" y="252.9" width="36.59" height="36.59" />
        <path class="cls-4-1" d="M713.9,298.25v40.48H674V298.25h23.18a10,10,0,0,0,10,9.19h.58v-9.19Z" />
        <path class="cls-4-1" d="M713.9,205v37.77h-6.67v-9.28h-.58a10,10,0,0,0-10,9.28H674V205H713.9Z" />
        <path class="cls-4-1" d="M706.54,298.25v8a8.86,8.86,0,0,1-8.23-8Z" />
        <path class="cls-4-2" d="M706.54,298v.26h-8.23c0-.08,0-.17,0-.26Z" />
        <path class="cls-4-2" d="M706.06,242.75v.16h-8.26c0-.06,0-.12,0-.16Z" />
        <path class="cls-4-1" d="M706.06,234.64v8.1h-8.24A8.88,8.88,0,0,1,706.06,234.64Z" />
        <path class="cls-4-1" d="M672.21,298.25v40.48h-40V298.25h7v9.19h.58a10,10,0,0,0,10-9.19Z" />
        <path class="cls-4-1" d="M672.21,205v37.77H649.54a10,10,0,0,0-10-9.19H639v9.19h-6.71V205Z" />
        <path class="cls-4-2" d="M648.66,298l0,.26H640.4V298Z" />
        <path class="cls-4-1" d="M640.4,298.25h8.23a8.86,8.86,0,0,1-8.23,8Z" />
        <path class="cls-4-2" d="M648.36,242.75l0,.26h-8.27v-.26Z" />
        <path class="cls-4-1" d="M648.36,242.75h-8.23v-8A8.86,8.86,0,0,1,648.36,242.75Z" />
        <path class="cls-4-2" d="M518.78,217.94V325.83H301.58v43.54H231.12V325.83H191.78V217.94ZM517,324.08V219.69H193.53V324.08h39.33v43.54h67V324.08Z"
        />
        <polygon class="cls-4-1" points="507.94 426.62 507.94 510.12 230.87 510.12 230.87 378.72 474.96 378.72 474.96 426.62 507.94 426.62"
        />
        <rect class="cls-4-3" x="476.71" y="378.72" width="31.23" height="46.16" />
        <polygon class="cls-4-1" points="506.42 38.94 506.42 163.69 230.87 163.69 230.87 38.94 302.47 38.94 302.47 83.99 436.26 83.99 436.26 38.94 506.42 38.94"
        />
        <rect class="cls-4-1" x="432.44" y="337.51" width="42.52" height="39.46" />
        <rect class="cls-4-3" x="434.38" y="165.44" width="37.19" height="42.53" />
        <path class="cls-4-2" d="M470.58,255.18v32.57H438V255.18ZM468.84,286V256.93H439.77V286Z" />
        <rect class="cls-4-3" x="439.77" y="256.93" width="29.06" height="29.07" />
        <rect class="cls-4-3" x="308.86" y="336.43" width="36.33" height="40.53" />
        <path id="room-4-1" class="cls-4-1 ccl-c-floor__room" d="M517,219.69V324.08H299.83v43.54h-67V324.08H193.53V219.69Zm-46.45,68.06V255.18H438v32.57Z"
        />
        <text class="cls-4-4" transform="translate(542.83 100) scale(0.7)">4th FLOOR BRIDGE</text>
        <path d="M478.95,252.8v18.12a1.15,1.15,0,0,1-1.14,1.17h-19a1.15,1.15,0,0,1-1.13-1.17V252.8a1.15,1.15,0,0,1,1.13-1.17h19A1.15,1.15,0,0,1,478.95,252.8Zm-1.16,17V253.84a1,1,0,0,0-1-1h-17a1,1,0,0,0-1,1v15.94a1,1,0,0,0,1,1h17A1,1,0,0,0,477.79,269.79Z"
        />
        <path class="cls-4-1" d="M477.79,253.84v15.94a1,1,0,0,1-1,1h-17a1,1,0,0,1-1-1V253.84a1,1,0,0,1,1-1h17A1,1,0,0,1,477.79,253.84Zm-1.92,10.41c1-1,0-1.09,0-1.09h-6.64c-.92,0-.39.69-.12,1l.12.13,2.8,2.92a.68.68,0,0,0,1.06,0Zm-.08-3.66s.87-.21,0-1.12h0L473,256.56h0a.62.62,0,0,0-1-.05l-.05.05h0l-2.65,2.76c-1,1-.13,1.24,0,1.27ZM467,263.26v-3.66a1.18,1.18,0,0,0-1.19-1.17h-4.07a1.18,1.18,0,0,0-1.19,1.17v3.66a1.18,1.18,0,0,0,1,1.15h0s.33,0,.39.44c.12.87.39,2.86.48,3.68.12,1,.75,1.07.75,1.07a3.15,3.15,0,0,0,1.29,0c.72-.15.79-1,.79-1l.45-3.8a.4.4,0,0,1,.32-.36h0A1.18,1.18,0,0,0,467,263.26Zm-1.47-7.43a1.7,1.7,0,1,0-1.7,1.77A1.74,1.74,0,0,0,465.5,255.83Z"
        />
        <path d="M475.87,263.16s1,.05,0,1.09l-2.79,2.9a.68.68,0,0,1-1.06,0l-2.8-2.92-.12-.13c-.26-.29-.8-1,.12-1h6.64Z" />
        <path d="M475.79,259.48c.87.9,0,1.12,0,1.12H469.3c-.12,0-1-.26,0-1.27l2.65-2.76h0l.05-.05a.62.62,0,0,1,1,.05h0l2.79,2.91Z"
        />
        <path d="M467,259.61v3.66a1.18,1.18,0,0,1-1,1.15h0a.4.4,0,0,0-.32.36l-.45,3.8s-.07.88-.79,1a3.15,3.15,0,0,1-1.29,0s-.63,0-.75-1.07c-.09-.81-.36-2.81-.48-3.68-.06-.43-.39-.44-.39-.44h0a1.18,1.18,0,0,1-1-1.15v-3.66a1.18,1.18,0,0,1,1.19-1.17h4.07A1.18,1.18,0,0,1,467,259.61Z"
        />
        <ellipse cx="463.8" cy="255.83" rx="1.7" ry="1.77" />
        <path d="M725.51,252.8v18.12a1.15,1.15,0,0,1-1.14,1.17h-19a1.15,1.15,0,0,1-1.13-1.17V252.8a1.15,1.15,0,0,1,1.13-1.17h19A1.15,1.15,0,0,1,725.51,252.8Zm-1.16,17V253.84a1,1,0,0,0-1-1h-17a1,1,0,0,0-1,1v15.94a1,1,0,0,0,1,1h17A1,1,0,0,0,724.35,269.79Z"
        />
        <path class="cls-4-1" d="M724.35,253.84v15.94a1,1,0,0,1-1,1h-17a1,1,0,0,1-1-1V253.84a1,1,0,0,1,1-1h17A1,1,0,0,1,724.35,253.84Zm-1.92,10.41c1-1,0-1.09,0-1.09h-6.64c-.92,0-.39.69-.12,1l.12.13,2.8,2.92a.68.68,0,0,0,1.06,0Zm-.08-3.66s.87-.21,0-1.12h0l-2.79-2.91h0a.62.62,0,0,0-1-.05l-.05.05h0l-2.65,2.76c-1,1-.13,1.24,0,1.27Zm-8.81,2.67v-3.66a1.18,1.18,0,0,0-1.19-1.17h-4.07a1.18,1.18,0,0,0-1.19,1.17v3.66a1.18,1.18,0,0,0,1,1.15h0s.33,0,.39.44c.12.87.39,2.86.48,3.68.12,1,.75,1.07.75,1.07a3.15,3.15,0,0,0,1.29,0c.72-.15.79-1,.79-1l.45-3.8a.4.4,0,0,1,.32-.36h0A1.18,1.18,0,0,0,713.54,263.26Zm-1.47-7.43a1.7,1.7,0,1,0-1.7,1.77A1.74,1.74,0,0,0,712.07,255.83Z"
        />
        <path d="M722.43,263.16s1,.05,0,1.09l-2.79,2.9a.68.68,0,0,1-1.06,0l-2.8-2.92-.12-.13c-.26-.29-.8-1,.12-1h6.64Z" />
        <path d="M722.35,259.48c.87.9,0,1.12,0,1.12h-6.48c-.12,0-1-.26,0-1.27l2.65-2.76h0l.05-.05a.62.62,0,0,1,1,.05h0l2.79,2.91Z"
        />
        <path d="M713.54,259.61v3.66a1.18,1.18,0,0,1-1,1.15h0a.4.4,0,0,0-.32.36l-.45,3.8s-.07.88-.79,1a3.15,3.15,0,0,1-1.29,0s-.63,0-.75-1.07c-.09-.81-.36-2.81-.48-3.68-.06-.43-.39-.44-.39-.44h0a1.18,1.18,0,0,1-1-1.15v-3.66a1.18,1.18,0,0,1,1.19-1.17h4.07A1.18,1.18,0,0,1,713.54,259.61Z"
        />
        <ellipse cx="710.37" cy="255.83" rx="1.7" ry="1.77" />
        <use width="18.3" height="18.3" transform="translate(496.42 312.34)" xlink:href="#Staircase" />
        <use width="18.3" height="18.3" transform="translate(329.06 291.2)" xlink:href="#Staircase" />
        <use width="18.3" height="18.3" transform="translate(449.71 220.41)" xlink:href="#Staircase" />
        <use width="18.45" height="16.45" transform="translate(452.09 285.01) scale(1.4)" xlink:href="#Men_and_women_restroom"
        />
    </g>
</svg>