<svg xmlns="http://www.w3.org/2000/svg" xmlns:xlink="http://www.w3.org/1999/xlink" viewBox="0 0 1164.12 549.05">
    <defs>
        <style>
            .cls-1-1 {
                fill: #fff;
            }
            .cls-1-2 {
                fill: #1c2b39;
            }
            .cls-1-3 {
                fill: #000;
            }
            .cls-1-4 {
                fill: #231f20;
            }
            .cls-1-5 {
                fill: none;
                stroke: #1c2b39;
                stroke-width: 2px;
            }
        </style>
        <symbol id="Staircase" data-name="Staircase" viewBox="0 0 18.3 18.3">
            <rect class="cls-1-1" x="0.38" y="0.38" width="17.55" height="17.55" />
            <path d="M17.47,18.3H.83A.83.83,0,0,1,0,17.47V.83A.83.83,0,0,1,.83,0H17.47a.83.83,0,0,1,.83.83V17.47A.83.83,0,0,1,17.47,18.3ZM.83.76A.08.08,0,0,0,.76.83V17.47a.08.08,0,0,0,.08.08H17.47a.08.08,0,0,0,.08-.08V.83a.08.08,0,0,0-.08-.08Z"
            />
            <path d="M15.76,4.7H13.07a.75.75,0,0,0-.75.75V7.38H10.38a.75.75,0,0,0-.75.75v1.94H7.7a.75.75,0,0,0-.75.75v2h-2a.75.75,0,0,0-.75.75v1.56a.75.75,0,0,0,.75.75H15.76a.75.75,0,0,0,.75-.75V5.45a.75.75,0,0,0-.75-.75Zm0,0"
            />
            <path d="M11.82,2.55a.5.5,0,0,0-.7,0c-3.2,3.11-6.24,6.15-9.17,9.09A.5.5,0,0,0,1.8,12v3.41a.5.5,0,1,0,1,0v-3.2c2.89-2.89,5.88-5.88,9-8.94a.5.5,0,0,0,0-.7Zm0,0"
            />
        </symbol>
        <symbol id="Men_and_women_restroom" data-name="Men and women restroom" viewBox="0 0 18.45 16.45">
            <rect class="cls-1-1" x="0.35" y="0.35" width="17.75" height="15.75" rx="0.77" ry="0.77" />
            <path d="M17.32.7a.42.42,0,0,1,.42.42v14.2a.42.42,0,0,1-.42.42H1.13a.42.42,0,0,1-.42-.42V1.13A.42.42,0,0,1,1.13.7h16.2m0-.7H1.13A1.13,1.13,0,0,0,0,1.13v14.2a1.13,1.13,0,0,0,1.13,1.13h16.2a1.13,1.13,0,0,0,1.13-1.13V1.13A1.13,1.13,0,0,0,17.32,0Z"
            />
            <path d="M6.25,4.09H3.39A1.26,1.26,0,0,0,2.14,5.34l0,3.9a.53.53,0,0,0,.53.53h0a.53.53,0,0,0,.53-.53l0-3.9h0a.11.11,0,0,1,.21,0v8.92a.64.64,0,1,0,1.27,0V9.18H5v5.09a.64.64,0,1,0,1.27,0c0-8.42,0-3.6,0-8.92a.11.11,0,0,1,.22,0h0v3.9A.53.53,0,0,0,7,9.78H7a.53.53,0,0,0,.53-.53V5.35h0A1.26,1.26,0,0,0,6.25,4.09Zm0,0"
            />
            <path d="M5.92,2.64a1.1,1.1,0,1,1-1.1-1.1,1.1,1.1,0,0,1,1.1,1.1Zm0,0" />
            <path d="M16.51,8.42,15.38,5.2c-.24-.71-.65-1.07-1.22-1.07H12.33c-.56,0-1,.36-1.22,1.07L10,8.42a.53.53,0,1,0,1,.35c0-.09.61-1.7.94-2.63,0,.28.06-.3-.75,3.92a.29.29,0,0,0,.29.35h.4v3.82a.63.63,0,1,0,1.26,0V10.41h.27v3.82a.63.63,0,0,0,1.26,0V10.41h.4a.29.29,0,0,0,.29-.35c-.81-4.18-.72-3.69-.75-3.92l.92,2.63a.53.53,0,0,0,1-.35Zm0,0"
            />
            <path d="M14.34,2.68a1.09,1.09,0,1,1-1.09-1.09,1.09,1.09,0,0,1,1.09,1.09Zm0,0" />
            <path d="M9.33,2.25a.41.41,0,0,0-.41.41V13.79a.41.41,0,1,0,.81,0V2.66a.41.41,0,0,0-.41-.41Zm0,0" />
        </symbol>
    </defs>
    <title>level-1_1</title>
    <g id="Level_1" data-name="Level 1">
        <path class="cls-1-2" d="M1010.22,220.66V367.87h-9.39V443.3H826.91v-.5h1.75v-1.25h30.8V224.07H974.83V203.74h-116V147h-18.2V252H774.21l-.12,26.68h-1.75l.35-74.95H731.28V74.07l-17,0v99.16h8.16v50.8h19.87v30H722.49v13.62h-1.75V218.17H630.4V350.74h90.2v-9.43H689.68V307.75h32.82v.7h-.14v87.1h-8.16l.14,91.87h17V331.13h41.57V301.31H845v60.58h-.87v.8l-11.12,0v27.87H774.61V406H774v1.75h.57v33.79h28v1.75H774.91V511a23.24,23.24,0,1,1-46.47,0v-7.28H695V395.55H684.37V352.49H628.65V216.42h55.72V173.27H695V46.66h33.46V39.39a23.24,23.24,0,1,1,46.47,0V145.22h225.93v75.44Zm-1.75,145.46V239.94H989.08v4.73H972.81V360.95h3.77v5.18h31.89Zm0-127.94V222.41h-9.39V147H976.58v78.84h-3.77v17.11h14.52v-4.73Zm-9.39,203.36V367.87H976.58v73.68Zm-24.26,0V362.7H861.2v78.85Zm0-239.56V147H860.58v55Zm-3.77,159v-8.41h-17.5v8.41Zm0-10.16V234H921.49v-8.22H907.38V234h-37v52.52H861.2v14.75h9.13v49.27h67.13v10.37h14.34V350.79Zm0-118.5v-6.47H923.24v6.47ZM935.72,360.95v-8.62H868.58V303.06H861.2v57.89ZM905.63,232.29v-6.47H861.2v59h7.38V232.29Zm-62.4,128.66V303.06H774.61V361C780.75,361.06,820.85,361,843.23,360.95Zm-4.35-110.68V210H806.37v15.82h-32l-.12,24.45Zm0-42V147H774.7l-.36,77.09h30.28V208.24Zm-7.64,180.6V362.73c-17.31,0-29.42,0-37.92,0-11.93,0-16.73,0-18.72-.12v26.18ZM773.16,511v-21.8H696.73v12.77h33.46v9a21.49,21.49,0,1,0,43,0Zm0-23.54v-45h-.3V332.88H733V487.41Zm0-341.32v-72c-3.84-.1-21.71-.09-40.13-.06V202h39.66L773,146.1Zm0-73.65V39.39a21.49,21.49,0,1,0-43,0v9H696.73v24C754.52,72.2,769.26,72.26,773.16,72.45ZM740.61,252.29V225.82H722.49v26.47Zm-19.87-35.87V175H686.12v41.4ZM720.6,393.8v-41.3H686.12v41.3H720.6Zm0-54.24V308.45H691.43v31.11Zm-8-166.29V74.11l-15.85,0v99.11Zm0,314.15-.14-91.87H696.73v91.87Z"
        />
        <polygon class="cls-1-1" points="1008.47 239.94 1008.47 366.13 999.96 366.13 999.09 366.13 976.58 366.13 976.58 360.95 972.81 360.95 972.81 244.67 989.08 244.67 989.08 239.94 1008.47 239.94"
        />
        <polygon class="cls-1-1" points="1008.47 222.41 1008.47 238.19 987.33 238.19 987.33 242.92 972.81 242.92 972.81 225.82 976.58 225.82 976.58 146.97 999.09 146.97 999.09 222.41 1008.47 222.41"
        />
        <rect class="cls-1-1" x="976.58" y="367.87" width="22.51" height="73.68" />
        <path class="cls-1-1" d="M974.83,203.74v20.33H859.45V441.55h-30.8V406H774.61V390.59H833V362.72l11.12,0v-.8H845V301.31H772.86v29.82H731.28V487.41h-17l-.14-91.87h8.16v-87.1h.14v-.7h0V267.66h0V254h19.87v-30H722.49v-50.8h-8.16V74.11l17,0V203.74h41.41l-.35,74.95h1.75l.12-26.68h66.42V147h18.2v56.77Zm-134.2,74.54v-16h-46v16Z"
        />
        <rect class="cls-1-2" x="953.56" y="352.54" width="17.5" height="8.41" />
        <rect class="cls-1-2" x="923.24" y="225.82" width="47.82" height="6.47" />
        <polygon class="cls-1-2" points="935.72 352.33 935.72 360.95 861.2 360.95 861.2 303.06 868.59 303.06 868.59 352.33 935.72 352.33"
        />
        <polygon class="cls-1-2" points="905.63 225.82 905.63 232.29 868.59 232.29 868.59 284.81 861.2 284.81 861.2 225.82 905.63 225.82"
        />
        <path class="cls-1-2" d="M840.63,262.29v16h-46v-16Zm-1.75,14.24V264H796.38v12.49Z" />
        <polygon class="cls-1-1" points="838.88 209.99 838.88 250.27 774.22 250.27 774.34 225.82 806.37 225.82 806.37 209.99 838.88 209.99"
        />
        <polygon class="cls-1-1" points="838.88 146.97 838.88 208.24 804.62 208.24 804.62 224.07 774.34 224.07 774.7 146.97 838.88 146.97"
        />
        <path class="cls-1-1" d="M831.24,362.73v26.11H774.61V362.66c2,.08,6.79.12,18.72.12C801.82,362.78,813.94,362.77,831.24,362.73Z"
        />
        <polygon class="cls-1-2" points="828.66 441.55 828.66 442.8 826.91 442.8 826.91 441.55 826.91 407.76 804.38 407.76 804.38 441.55 804.38 442.8 802.63 442.8 802.63 441.55 802.63 407.76 774.61 407.76 774.03 407.76 774.03 406.01 774.61 406.01 828.66 406.01 828.66 441.55"
        />
        <polygon class="cls-1-2" points="826.91 442.8 826.91 443.3 802.63 443.3 802.63 442.8 804.38 442.8 804.38 441.55 826.91 441.55 826.91 442.8"
        />
        <rect class="cls-1-1" x="804.38" y="407.76" width="22.53" height="33.79" />
        <rect class="cls-1-3" x="774.61" y="407.76" width="28.02" height="33.79" />
        <path class="cls-1-1" d="M773.16,489.16V511a21.49,21.49,0,1,1-43,0v-9H696.73V489.16Z" />
        <path class="cls-1-1" d="M773.16,39.39V72.45c-3.89-.19-18.63-.24-76.43,0v-24h33.46v-9a21.49,21.49,0,1,1,43,0Z" />
        <rect class="cls-1-1" x="722.49" y="225.82" width="18.12" height="26.47" />
        <path class="cls-1-2" d="M722.51,267.66v40.09H682.42V267.66h40.09ZM720.77,306V269.41H684.17V306h36.59Z" />
        <rect class="cls-1-2" x="720.74" y="269.41" width="0.02" height="36.59" />
        <rect class="cls-1-3" x="684.17" y="269.41" width="36.57" height="36.59" />
        <polygon class="cls-1-1" points="720.74 218.17 720.74 267.66 682.42 267.66 682.42 307.75 689.68 307.75 689.68 341.31 720.6 341.31 720.6 350.74 686.12 350.74 685.25 350.74 630.4 350.74 630.4 218.17 685.25 218.17 686.12 218.17 720.74 218.17"
        />
        <polygon class="cls-1-3" points="720.74 175.02 720.74 216.42 686.12 216.42 686.12 175.02 695.86 175.02 696.73 175.02 720.74 175.02"
        />
        <polygon class="cls-1-3" points="720.6 352.49 720.6 393.8 696.73 393.8 695.86 393.8 686.12 393.8 686.12 352.49 720.6 352.49"
        />
        <rect class="cls-1-1" x="691.43" y="308.45" width="29.18" height="31.11" />
        <path class="cls-1-1" d="M712.58,74.11v99.16H696.73V74.16Z" />
        <polygon class="cls-1-1" points="712.44 395.55 712.58 487.42 696.73 487.42 696.73 395.55 712.44 395.55" />
        <path class="cls-1-2" d="M563.16,219.37V349H519.46v42.27H510.7v110H394.8c-.47,13.29-11.54,24.36-24.59,24.36s-24.14-11.07-24.61-24.36H230.14l-.07-62.09H221.8V420.85H208.3V439.2h-7.24V349H177.43V218.42H219.6V176.27h10.54V49.76h318v169.6Zm-1.75,127.89V264.68h-42v82.57Zm0-84.32V221.12h-42v41.83Zm-15-43.57V51.51H231.89V85.12H338.24v61.27h97.14v29.88h39.71v43.09ZM517.71,389.53V285.27h-9.19v-.58a10.05,10.05,0,0,1,9.19-10V221.1H433.63v-73H336.49V86.87h-26.6v61.27h-78v28.13h78v28.22H221.34v13.94h88.54v48H179.18V301H309.89v46.86h37.44v75.22h9.15v.58a10,10,0,0,1-9.15,10v.23a10,10,0,0,1,9.15,10v.58h-9.15v56c0,12.73,10.47,23.49,22.87,23.49s22.87-10.75,22.87-23.49v-143h.87c46.38,0,66.66-37.88,66.85-38.26l.24-.47H485.3v52.24l.09,18.62h32.31Zm0-105.43v-8.23a8.86,8.86,0,0,0-8,8.23Zm-8.76,215.43V439.2H475.88V405.65H487V391.28H418.62v39.23h-23.8v69Zm0-62.09V391.28H488.72v16.12H477.63v30.05Zm-25.31-47.92-.09-18.61V320.41H462.09c-2.52,4.42-23.26,38.27-67.27,38.72v30.4ZM473.33,219.36V178h-38v41.34Zm-56.46,209.4V410.89H394.82v17.87Zm0-19.61V391.28H394.82v17.87ZM355.3,424.26h-8v8.23A8.87,8.87,0,0,0,355.3,424.26Zm-8,19h8a8.86,8.86,0,0,0-8-8.22Zm-1.75,56.24V408.25H309.68v4.07H264.81v36.3h-33l.06,50.91Zm0-93V391.28h-122v46.17h8.27v9.42h31.24v-36.3h44.87V406.5Zm0-17V349.62h-35.7v39.89Zm-37.44,0V349.62l-16.38-.09v40Zm0-41.65V302.77h-129v44.49H202.8Zm0-83.22V220.17h-129v44.49Zm0-61.92V178h-86.8v24.72Zm0-56.35V86.87H231.89v59.52ZM290,389.53v-40l-66.46-.38v40.39h20.64a10.05,10.05,0,0,1,10-9.15h.58v9.15Zm-36.41,0v-8a8.87,8.87,0,0,0-8.23,8ZM221.8,419.1v-70l-19-.1v88.43h3.74V419.1Z"
        />
        <rect class="cls-1-1" x="519.46" y="264.68" width="41.96" height="82.57" />
        <polygon class="cls-1-1" points="561.41 221.12 561.41 262.93 519.46 262.93 519.46 221.1 546.37 221.12 561.41 221.12"
        />
        <polygon class="cls-1-1" points="546.37 51.51 546.37 219.37 475.08 219.35 475.08 176.27 435.38 176.27 435.38 146.39 338.24 146.39 338.24 85.12 231.89 85.12 231.89 51.51 546.37 51.51"
        />
        <path class="cls-1-1" d="M517.71,348.13v41.4H485.39l-.09-18.62V318.66H461l-.24.47c-.2.38-20.48,38.26-66.85,38.26h-.87v143c0,12.73-10.47,23.49-22.87,23.49s-22.87-10.75-22.87-23.49v-56h9.15v-.58a10,10,0,0,0-9.15-10v-.23a10,10,0,0,0,9.15-10v-.58h-9.15V347.88H309.89V301H179.18V266.41H309.89v-48H221.34V204.49h88.54V176.27h-78V148.14h78V86.87h26.6v61.27h97.14v73h84.08v53.58a10.05,10.05,0,0,0-9.19,10v.58h9.19v62.87ZM471.61,304V271.42H439V304Z"
        />
        <path class="cls-1-1" d="M517.71,275.87v8.23h-8A8.86,8.86,0,0,1,517.71,275.87Z" />
        <polygon class="cls-1-1" points="508.95 439.19 508.95 499.53 394.82 499.53 394.82 430.51 418.62 430.51 418.62 391.28 486.97 391.28 486.97 405.65 475.88 405.65 475.88 439.19 508.95 439.19"
        />
        <polygon class="cls-1-3" points="508.95 391.28 508.95 437.45 477.63 437.45 477.63 407.39 488.72 407.39 488.72 391.28 508.95 391.28"
        />
        <path class="cls-1-1" d="M483.55,370.92l.09,18.61H394.82v-30.4c44-.44,64.76-34.3,67.27-38.72h21.46Z" />
        <rect class="cls-1-3" x="435.38" y="178.02" width="37.96" height="41.34" />
        <path class="cls-1-1" d="M471.61,271.42V304H439V271.42Zm-1.75,30.81V273.17H440.79v29.06Z" />
        <rect class="cls-1-1" x="440.79" y="273.17" width="29.07" height="29.06" />
        <rect class="cls-1-1" x="394.82" y="410.89" width="22.05" height="17.87" />
        <rect class="cls-1-1" x="394.82" y="391.28" width="22.05" height="17.87" />
        <path class="cls-1-1" d="M347.33,424.26h8a8.87,8.87,0,0,1-8,8.23Z" />
        <path class="cls-1-1" d="M355.3,443.29h-8v-8.22A8.86,8.86,0,0,1,355.3,443.29Z" />
        <polygon class="cls-1-1" points="345.58 408.25 345.58 499.53 231.89 499.53 231.83 448.62 264.81 448.62 264.81 412.32 309.68 412.32 309.68 408.25 345.58 408.25"
        />
        <polygon class="cls-1-1" points="345.58 391.28 345.58 406.5 307.93 406.5 307.93 410.57 263.06 410.57 263.06 446.87 231.82 446.87 231.82 437.45 223.55 437.45 223.55 419.98 223.55 419.1 223.55 391.28 345.58 391.28"
        />
        <polygon class="cls-1-3" points="345.58 349.62 345.58 389.53 309.89 389.53 309.89 349.64 309.89 349.62 345.58 349.62"
        />
        <polygon class="cls-1-1" points="308.14 349.62 308.14 389.53 291.76 389.53 291.76 349.53 308.14 349.62" />
        <path class="cls-1-1" d="M290,349.52v40H254.77v-9.15h-.58a10.05,10.05,0,0,0-10,9.15H223.55V349.13Z" />
        <path class="cls-1-1" d="M253.6,381.56v8h-8.23A8.87,8.87,0,0,1,253.6,381.56Z" />
        <polygon class="cls-1-1" points="221.8 391.28 221.8 419.1 206.55 419.1 206.55 437.45 202.8 437.45 202.8 349.02 221.8 349.12 221.8 390.4 221.8 391.28"
        />
        <text class="cls-1-4" transform="translate(567 172.85) scale(0.7)">CENTRAL
            <tspan x="-10.51" y="25.71">ENTRANCE</tspan>
        </text>
        <text class="cls-1-4" transform="translate(536.14 430.04) scale(0.7)">SOUTH ENTRANCE</text>
        <line class="cls-1-5" x1="610.56" y1="195.72" x2="628.65" y2="273.17" />
        <line class="cls-1-5" x1="527.71" y1="428.37" x2="378.14" y2="385.55" />
        <rect id="room-1-10" class="cls-1-1 ccl-c-floor__room" x="861.2" y="362.7" width="113.63" height="78.85" />
        <rect id="room-1-9" class="cls-1-1 ccl-c-floor__room" x="860.58" y="146.97" width="114.25" height="55.02" />
        <polygon id="room-1-8" class="cls-1-1 ccl-c-floor__room" points="971.07 234.04 971.07 350.79 951.81 350.79 951.81 360.95 937.47 360.95 937.47 350.58 870.33 350.58 870.33 301.31 861.2 301.31 861.2 286.56 870.33 286.56 870.33 234.04 907.38 234.04 907.38 225.82 921.49 225.82 921.49 234.04 971.07 234.04"
        />
        <path id="room-1-7" class="cls-1-1 ccl-c-floor__room" d="M843.23,303.06v57.89c-22.38.06-62.48.12-68.63,0V303.06Z" />
        <polygon id="room-1-6" class="cls-1-1 ccl-c-floor__room" points="773.16 442.43 773.16 487.42 733.03 487.42 733.03 332.88 772.86 332.88 772.86 442.43 773.16 442.43"
        />
        <path id="room-1-5" class="cls-1-1 ccl-c-floor__room" d="M773.16,74.12v72H773L772.69,202H733V74.07C751.45,74,769.32,74,773.16,74.12Z"
        />
        <polygon id="room-1-4" class="cls-1-1 ccl-c-floor__room" points="308.14 302.77 308.14 347.88 202.8 347.27 202.8 347.26 179.18 347.26 179.18 302.77 308.14 302.77"
        />
        <polygon id="room-1-3" class="cls-1-1 ccl-c-floor__room" points="308.14 220.17 308.14 264.66 179.18 264.66 179.18 220.17 220.47 220.17 221.34 220.17 308.14 220.17"
        />
        <polygon id="room-1-2" class="cls-1-1 ccl-c-floor__room" points="308.14 178.02 308.14 202.74 221.34 202.74 221.34 178.02 231.01 178.02 231.89 178.02 308.14 178.02"
        />
        <rect id="room-1-1" class="cls-1-1 ccl-c-floor__room" x="231.89" y="86.87" width="76.25" height="59.52" />
        <path d="M928.22,266.44v18.12a1.15,1.15,0,0,1-1.14,1.17h-19a1.15,1.15,0,0,1-1.13-1.17V266.44a1.15,1.15,0,0,1,1.13-1.17h19A1.15,1.15,0,0,1,928.22,266.44Zm-1.16,17V267.48a1,1,0,0,0-1-1h-17a1,1,0,0,0-1,1v15.94a1,1,0,0,0,1,1h17A1,1,0,0,0,927.06,283.42Z"
        />
        <path class="cls-1-1" d="M927.06,267.48v15.94a1,1,0,0,1-1,1h-17a1,1,0,0,1-1-1V267.48a1,1,0,0,1,1-1h17A1,1,0,0,1,927.06,267.48Zm-1.92,10.41c1-1,0-1.09,0-1.09H918.5c-.92,0-.39.7-.12,1l.12.13,2.8,2.92a.68.68,0,0,0,1.06,0Zm-.08-3.66s.87-.21,0-1.12h0l-2.79-2.91h0a.62.62,0,0,0-1-.05l-.05.05h0L918.59,273c-1,1-.13,1.24,0,1.27Zm-8.81,2.67v-3.66a1.18,1.18,0,0,0-1.19-1.17H911a1.18,1.18,0,0,0-1.19,1.17v3.66a1.18,1.18,0,0,0,1,1.15h0s.33,0,.39.44c.12.87.39,2.86.48,3.68.12,1,.75,1.07.75,1.07a3.15,3.15,0,0,0,1.29,0c.72-.15.79-1,.79-1l.45-3.8a.4.4,0,0,1,.32-.36h0A1.18,1.18,0,0,0,916.25,276.9Zm-1.47-7.43a1.7,1.7,0,1,0-1.7,1.77A1.74,1.74,0,0,0,914.78,269.47Z"
        />
        <path d="M925.14,276.79s1,.05,0,1.09l-2.79,2.9a.68.68,0,0,1-1.06,0l-2.8-2.92-.12-.13c-.26-.29-.8-1,.12-1h6.64Z" />
        <path d="M925.06,273.11c.87.9,0,1.12,0,1.12h-6.48c-.12,0-1-.26,0-1.27l2.65-2.76h0l.05-.05a.62.62,0,0,1,1,.05h0l2.79,2.91Z"
        />
        <path d="M916.25,273.24v3.66a1.18,1.18,0,0,1-1,1.15h0a.4.4,0,0,0-.32.36l-.45,3.8s-.07.88-.79,1a3.15,3.15,0,0,1-1.29,0s-.63,0-.75-1.07c-.09-.81-.36-2.81-.48-3.68-.06-.43-.39-.44-.39-.44h0a1.18,1.18,0,0,1-1-1.15v-3.66a1.18,1.18,0,0,1,1.19-1.17h4.07A1.18,1.18,0,0,1,916.25,273.24Z"
        />
        <ellipse cx="913.08" cy="269.47" rx="1.7" ry="1.77" />
        <path d="M815.83,318.95v18.12a1.15,1.15,0,0,1-1.14,1.17h-19a1.15,1.15,0,0,1-1.13-1.17V318.95a1.15,1.15,0,0,1,1.13-1.17h19A1.15,1.15,0,0,1,815.83,318.95Zm-1.16,17V320a1,1,0,0,0-1-1h-17a1,1,0,0,0-1,1v15.94a1,1,0,0,0,1,1h17A1,1,0,0,0,814.67,335.93Z"
        />
        <path class="cls-1-1" d="M814.67,320v15.94a1,1,0,0,1-1,1h-17a1,1,0,0,1-1-1V320a1,1,0,0,1,1-1h17A1,1,0,0,1,814.67,320Zm-1.92,10.41c1-1,0-1.09,0-1.09h-6.64c-.92,0-.39.7-.12,1l.12.13,2.8,2.92a.68.68,0,0,0,1.06,0Zm-.08-3.66s.87-.21,0-1.12h0l-2.79-2.91h0a.62.62,0,0,0-1-.05l-.05.05h0l-2.65,2.76c-1,1-.13,1.24,0,1.27Zm-8.81,2.67v-3.66a1.18,1.18,0,0,0-1.19-1.17h-4.07a1.18,1.18,0,0,0-1.19,1.17v3.66a1.18,1.18,0,0,0,1,1.15h0s.33,0,.39.44c.12.87.39,2.86.48,3.68.12,1,.75,1.07.75,1.07a3.15,3.15,0,0,0,1.29,0c.72-.15.79-1,.79-1l.45-3.8a.4.4,0,0,1,.32-.36h0A1.18,1.18,0,0,0,803.86,329.41ZM802.39,322a1.7,1.7,0,1,0-1.7,1.77A1.74,1.74,0,0,0,802.39,322Z"
        />
        <path d="M812.75,329.3s1,.05,0,1.09L810,333.3a.68.68,0,0,1-1.06,0l-2.8-2.92-.12-.13c-.26-.29-.8-1,.12-1h6.64Z" />
        <path d="M812.67,325.62c.87.9,0,1.12,0,1.12h-6.48c-.12,0-1-.26,0-1.27l2.65-2.76h0l.05-.05a.62.62,0,0,1,1,.05h0l2.79,2.91Z"
        />
        <path d="M803.86,325.75v3.66a1.18,1.18,0,0,1-1,1.15h0a.4.4,0,0,0-.32.36l-.45,3.8s-.07.88-.79,1a3.15,3.15,0,0,1-1.29,0s-.63,0-.75-1.07c-.09-.81-.36-2.81-.48-3.68-.06-.43-.39-.44-.39-.44h0a1.18,1.18,0,0,1-1-1.15v-3.66a1.18,1.18,0,0,1,1.19-1.17h4.07A1.18,1.18,0,0,1,803.86,325.75Z"
        />
        <ellipse cx="800.68" cy="321.98" rx="1.7" ry="1.77" />
        <path d="M726.53,260.89V279a1.15,1.15,0,0,1-1.14,1.17h-19a1.15,1.15,0,0,1-1.13-1.17V260.89a1.15,1.15,0,0,1,1.13-1.17h19A1.15,1.15,0,0,1,726.53,260.89Zm-1.16,17V261.93a1,1,0,0,0-1-1h-17a1,1,0,0,0-1,1v15.94a1,1,0,0,0,1,1h17A1,1,0,0,0,725.37,277.88Z"
        />
        <path class="cls-1-1" d="M725.37,261.93v15.94a1,1,0,0,1-1,1h-17a1,1,0,0,1-1-1V261.93a1,1,0,0,1,1-1h17A1,1,0,0,1,725.37,261.93Zm-1.92,10.41c1-1,0-1.09,0-1.09h-6.64c-.92,0-.39.7-.12,1l.12.13,2.8,2.92a.68.68,0,0,0,1.06,0Zm-.08-3.66s.87-.21,0-1.12h0l-2.79-2.91h0a.62.62,0,0,0-1-.05l-.05.05h0l-2.65,2.76c-1,1-.13,1.24,0,1.27Zm-8.81,2.67V267.7a1.18,1.18,0,0,0-1.19-1.17h-4.07a1.18,1.18,0,0,0-1.19,1.17v3.66a1.18,1.18,0,0,0,1,1.15h0s.33,0,.39.44c.12.87.39,2.86.48,3.68.12,1,.75,1.07.75,1.07a3.15,3.15,0,0,0,1.29,0c.72-.15.79-1,.79-1l.45-3.8a.4.4,0,0,1,.32-.36h0A1.18,1.18,0,0,0,714.56,271.35Zm-1.47-7.43a1.7,1.7,0,1,0-1.7,1.77A1.74,1.74,0,0,0,713.08,263.92Z"
        />
        <path d="M723.45,271.25s1,.05,0,1.09l-2.79,2.9a.68.68,0,0,1-1.06,0l-2.8-2.92-.12-.13c-.26-.29-.8-1,.12-1h6.64Z" />
        <path d="M723.37,267.56c.87.9,0,1.12,0,1.12h-6.48c-.12,0-1-.26,0-1.27l2.65-2.76h0l.05-.05a.62.62,0,0,1,1,.05h0l2.79,2.91Z"
        />
        <path d="M714.56,267.7v3.66a1.18,1.18,0,0,1-1,1.15h0a.4.4,0,0,0-.32.36l-.45,3.8s-.07.88-.79,1a3.15,3.15,0,0,1-1.29,0s-.63,0-.75-1.07c-.09-.81-.36-2.81-.48-3.68-.06-.43-.39-.44-.39-.44h0a1.18,1.18,0,0,1-1-1.15V267.7a1.18,1.18,0,0,1,1.19-1.17h4.07A1.18,1.18,0,0,1,714.56,267.7Z"
        />
        <ellipse cx="711.38" cy="263.92" rx="1.7" ry="1.77" />
        <path d="M480,259.59v18.12a1.15,1.15,0,0,1-1.14,1.17h-19a1.15,1.15,0,0,1-1.13-1.17V259.59a1.15,1.15,0,0,1,1.13-1.17h19A1.15,1.15,0,0,1,480,259.59Zm-1.16,17V260.64a1,1,0,0,0-1-1h-17a1,1,0,0,0-1,1v15.94a1,1,0,0,0,1,1h17A1,1,0,0,0,478.8,276.58Z"
        />
        <path d="M476.88,270s1,.05,0,1.09l-2.79,2.9a.68.68,0,0,1-1.06,0l-2.8-2.92-.12-.13c-.26-.29-.8-1,.12-1h6.64Z" />
        <path d="M476.8,266.27c.87.9,0,1.12,0,1.12h-6.48c-.12,0-1-.26,0-1.27l2.65-2.76h0l.05-.05a.62.62,0,0,1,1,.05h0l2.79,2.91Z"
        />
        <path class="cls-1-1" d="M476.8,267.39s.87-.21,0-1.12h0L474,263.35h0a.62.62,0,0,0-1-.05l-.05.05h0l-2.65,2.76c-1,1-.13,1.24,0,1.27Zm2-6.75v15.94a1,1,0,0,1-1,1h-17a1,1,0,0,1-1-1V260.64a1,1,0,0,1,1-1h17A1,1,0,0,1,478.8,260.64ZM476.88,271c1-1,0-1.09,0-1.09h-6.64c-.92,0-.39.7-.12,1l.12.13L473,274a.68.68,0,0,0,1.06,0Zm-8.89-1V266.4a1.18,1.18,0,0,0-1.19-1.17h-4.07a1.18,1.18,0,0,0-1.19,1.17v3.66a1.18,1.18,0,0,0,1,1.15h0s.33,0,.39.44c.12.87.39,2.86.48,3.68.12,1,.75,1.07.75,1.07a3.15,3.15,0,0,0,1.29,0c.72-.15.79-1,.79-1l.45-3.8a.4.4,0,0,1,.32-.36h0A1.18,1.18,0,0,0,468,270.05Zm-1.47-7.43a1.7,1.7,0,1,0-1.7,1.77A1.74,1.74,0,0,0,466.52,262.62Z"
        />
        <path d="M468,266.4v3.66a1.18,1.18,0,0,1-1,1.15h0a.4.4,0,0,0-.32.36l-.45,3.8s-.07.88-.79,1a3.15,3.15,0,0,1-1.29,0s-.63,0-.75-1.07c-.09-.81-.36-2.81-.48-3.68-.06-.43-.39-.44-.39-.44h0a1.18,1.18,0,0,1-1-1.15V266.4a1.18,1.18,0,0,1,1.19-1.17h4.07A1.18,1.18,0,0,1,468,266.4Z"
        />
        <ellipse cx="464.82" cy="262.62" rx="1.7" ry="1.77" />
        <use width="18.3" height="18.3" transform="translate(696.11 223.9)" xlink:href="#Staircase" />
        <use width="18.3" height="18.3" transform="translate(707.57 299.22)" xlink:href="#Staircase" />
        <use width="18.3" height="18.3" transform="translate(452.02 225.11)" xlink:href="#Staircase" />
        <use width="18.3" height="18.3" transform="translate(496.43 318.17)" xlink:href="#Staircase" />
        <use width="18.3" height="18.3" transform="translate(328.07 296.23)" xlink:href="#Staircase" />
        <use width="18.45" height="16.45" transform="translate(405.1 309.75) scale(1.4)" xlink:href="#Men_and_women_restroom"
        />
        <use width="18.3" height="18.3" transform="translate(880.2 266.35)" xlink:href="#Staircase" />
        <use width="18.3" height="18.3" transform="translate(936.2 266.35)" xlink:href="#Staircase" />
    </g>
</svg>