<svg xmlns="http://www.w3.org/2000/svg" xmlns:xlink="http://www.w3.org/1999/xlink" viewBox="0 0 1164.12 549.05">
    <defs>
        <style>
            .cls-2-1 {
                fill: #fff;
            }

            .cls-2-2 {
                fill: #1c2b39;
            }

            .cls-2-3,
            .cls-2-6 {
                fill: #231f20;
            }

            .cls-2-4,
            .cls-2-9 {
                fill: none;
            }

            .cls-2-5 {
                fill: #000;
            }

            .cls-2-9 {
                stroke: #1c2b39;
                stroke-width: 2px;
            }
        </style>
        <symbol id="elevator" data-name="elevator" viewBox="0 0 21.29 20.45">
            <path d="M21.29,1.17V19.28a1.15,1.15,0,0,1-1.14,1.17h-19A1.15,1.15,0,0,1,0,19.28V1.17A1.15,1.15,0,0,1,1.14,0h19A1.15,1.15,0,0,1,21.29,1.17Zm-1.16,17V2.21a1,1,0,0,0-1-1h-17a1,1,0,0,0-1,1V18.15a1,1,0,0,0,1,1h17A1,1,0,0,0,20.13,18.15Z"
            />
            <path class="cls-2-1" d="M20.13,2.21V18.15a1,1,0,0,1-1,1h-17a1,1,0,0,1-1-1V2.21a1,1,0,0,1,1-1h17A1,1,0,0,1,20.13,2.21ZM18.21,12.62c1-1,0-1.09,0-1.1H11.57c-.92,0-.39.69-.12,1l.12.13,2.8,2.92a.68.68,0,0,0,1.06,0ZM18.13,9s.87-.21,0-1.12h0L15.33,4.92h0a.62.62,0,0,0-1-.05l-.05.05h0L11.66,7.69c-1,1-.13,1.24,0,1.27ZM9.32,11.63V8A1.18,1.18,0,0,0,8.13,6.8H4.05A1.18,1.18,0,0,0,2.87,8v3.66a1.18,1.18,0,0,0,1,1.15h0s.33,0,.39.44c.12.87.39,2.86.48,3.68.12,1,.75,1.07.75,1.07a3.15,3.15,0,0,0,1.29,0c.72-.15.79-1,.79-1L8,13.14a.4.4,0,0,1,.32-.36h0A1.18,1.18,0,0,0,9.32,11.63ZM7.84,4.2a1.74,1.74,0,0,0-1.7-1.77A1.74,1.74,0,0,0,4.44,4.2,1.74,1.74,0,0,0,6.14,6,1.74,1.74,0,0,0,7.84,4.2Z"
            />
            <path d="M18.21,11.52s1,.05,0,1.1l-2.79,2.9a.68.68,0,0,1-1.06,0l-2.8-2.92-.12-.13c-.26-.29-.8-1,.12-1h6.64Z"
            />
            <path d="M18.13,7.84c.87.9,0,1.12,0,1.12H11.64c-.12,0-1-.26,0-1.27l2.65-2.76h0l.05-.05a.62.62,0,0,1,1,.05h0l2.79,2.91Z"
            />
            <path d="M9.32,8v3.66a1.18,1.18,0,0,1-1,1.15h0a.4.4,0,0,0-.32.36l-.45,3.8s-.07.88-.79,1a3.15,3.15,0,0,1-1.29,0s-.63,0-.75-1.07c-.09-.81-.36-2.81-.48-3.68-.06-.43-.39-.44-.39-.44h0a1.18,1.18,0,0,1-1-1.15V8A1.18,1.18,0,0,1,4.05,6.8H8.13A1.18,1.18,0,0,1,9.32,8Z"
            />
            <ellipse cx="6.14" cy="4.2" rx="1.7" ry="1.77" />
        </symbol>
        <symbol id="Staircase" data-name="Staircase" viewBox="0 0 18.3 18.3">
            <rect class="cls-2-1" x="0.38" y="0.38" width="17.55" height="17.55" />
            <path d="M17.47,18.3H.83A.83.83,0,0,1,0,17.47V.83A.83.83,0,0,1,.83,0H17.47a.83.83,0,0,1,.83.83V17.47A.83.83,0,0,1,17.47,18.3ZM.83.76A.08.08,0,0,0,.76.83V17.47a.08.08,0,0,0,.08.08H17.47a.08.08,0,0,0,.08-.08V.83a.08.08,0,0,0-.08-.08Z"
            />
            <path d="M15.76,4.7H13.07a.75.75,0,0,0-.75.75V7.38H10.38a.75.75,0,0,0-.75.75v1.94H7.7a.75.75,0,0,0-.75.75v2h-2a.75.75,0,0,0-.75.75v1.56a.75.75,0,0,0,.75.75H15.76a.75.75,0,0,0,.75-.75V5.45a.75.75,0,0,0-.75-.75Zm0,0"
            />
            <path d="M11.82,2.55a.5.5,0,0,0-.7,0c-3.2,3.11-6.24,6.15-9.17,9.09A.5.5,0,0,0,1.8,12v3.41a.5.5,0,1,0,1,0v-3.2c2.89-2.89,5.88-5.88,9-8.94a.5.5,0,0,0,0-.7Zm0,0"
            />
        </symbol>
        <symbol id="mens_restroom" data-name="mens restroom" viewBox="0 0 12.7 24.06">
            <rect class="cls-2-1" x="0.5" y="0.5" width="11.69" height="23.05" rx="1.11" ry="1.11" />
            <path d="M11.09,1a.61.61,0,0,1,.6.6V22.44a.61.61,0,0,1-.6.6H1.61a.61.61,0,0,1-.6-.6V1.61a.61.61,0,0,1,.6-.6h9.48m0-1H1.61A1.61,1.61,0,0,0,0,1.61V22.44a1.61,1.61,0,0,0,1.61,1.61h9.48a1.61,1.61,0,0,0,1.61-1.61V1.61A1.61,1.61,0,0,0,11.09,0Z"
            />
            <path class="cls-2-3" d="M8.3,6.41H4.42a1.71,1.71,0,0,0-1.71,1.7l0,5.3a.72.72,0,0,0,.72.73h0a.72.72,0,0,0,.72-.72l0-5.3h0a.14.14,0,0,1,.29,0V20.25a.87.87,0,1,0,1.73,0V13.33h.37v6.92a.87.87,0,1,0,1.73,0c0-11.45,0-4.9,0-12.12a.15.15,0,0,1,.3,0h0v5.3a.72.72,0,0,0,.72.72h0a.72.72,0,0,0,.72-.72V8.11h0A1.71,1.71,0,0,0,8.3,6.41Zm0,0"
            />
            <path class="cls-2-3" d="M7.86,4.44a1.5,1.5,0,1,1-1.5-1.5,1.5,1.5,0,0,1,1.5,1.5Zm0,0" />
        </symbol>
        <symbol id="womens_restroom" data-name="womens restroom" viewBox="0 0 12.7 24.06">
            <rect class="cls-2-1" x="0.5" y="0.5" width="11.69" height="23.05" rx="1.11" ry="1.11" />
            <path d="M11.09,1a.61.61,0,0,1,.6.6V22.44a.61.61,0,0,1-.6.6H1.61a.61.61,0,0,1-.6-.6V1.61a.61.61,0,0,1,.6-.6h9.48m0-1H1.61A1.61,1.61,0,0,0,0,1.61V22.44a1.61,1.61,0,0,0,1.61,1.61h9.48a1.61,1.61,0,0,0,1.61-1.61V1.61A1.61,1.61,0,0,0,11.09,0Z"
            />
            <path class="cls-2-3" d="M10.79,12.29S9.46,8.51,9.25,7.91c-.33-1-.89-1.46-1.66-1.46H5.1c-.77,0-1.32.49-1.66,1.46-.21.6-1.52,4.34-1.53,4.38a.72.72,0,1,0,1.35.47c0-.12.83-2.31,1.27-3.58,0,.38.09-.41-1,5.33a.4.4,0,0,0,.39.47h.55v5.2a.86.86,0,1,0,1.72,0V15h.37v5.2a.86.86,0,0,0,1.72,0V15h.55a.4.4,0,0,0,.39-.47c-1.1-5.68-1-5-1-5.33l1.25,3.58a.72.72,0,0,0,1.35-.47Zm0,0"
            />
            <path class="cls-2-3" d="M7.84,4.49A1.48,1.48,0,1,1,6.36,3,1.48,1.48,0,0,1,7.84,4.49Zm0,0" />
        </symbol>
        <symbol id="information" data-name="information" viewBox="0 0 36 36">
            <path class="cls-2-2" d="M33.58,9A17.92,17.92,0,0,0,27,2.41,17.6,17.6,0,0,0,18,0,17.6,17.6,0,0,0,9,2.41,17.91,17.91,0,0,0,2.41,9,17.61,17.61,0,0,0,0,18a17.61,17.61,0,0,0,2.41,9A17.91,17.91,0,0,0,9,33.58,17.61,17.61,0,0,0,18,36a17.6,17.6,0,0,0,9-2.41A17.92,17.92,0,0,0,33.58,27,17.62,17.62,0,0,0,36,18a17.62,17.62,0,0,0-2.41-9ZM15,4.5a.72.72,0,0,1,.75-.75h4.5A.72.72,0,0,1,21,4.5V8.25a.72.72,0,0,1-.75.75h-4.5A.72.72,0,0,1,15,8.25Zm9,24.75a.72.72,0,0,1-.75.75H12.75a.72.72,0,0,1-.75-.75V25.5a.72.72,0,0,1,.75-.75H15v-7.5H12.75A.72.72,0,0,1,12,16.5V12.75a.72.72,0,0,1,.75-.75h7.5a.72.72,0,0,1,.75.75v12h2.25a.72.72,0,0,1,.75.75Zm0,0"
            />
        </symbol>
    </defs>
    <title>level-2_1</title>
    <g id="Level_2" data-name="Level 2">
        <rect class="cls-2-1" x="265.76" y="209.52" width="43.61" height="85.13" />
        <path class="cls-2-4" d="M309.37,258.11v-6.6a7.14,7.14,0,0,0-6.49,6.6Z" />
        <path class="cls-2-4" d="M265.76,209.52v85.13h43.61V259.11h-7.51v-.5a8.14,8.14,0,0,1,7.51-8.1v-41Z" />
        <path class="cls-2-4" d="M479.36,344a8.88,8.88,0,0,1-5.18-7.21A8.88,8.88,0,0,0,479.36,344Z" />
        <path class="cls-2-4" d="M444.62,125.27a10,10,0,0,0,.26-2.21A10,10,0,0,1,444.62,125.27Z" />
        <path class="cls-2-4" d="M435.46,133.05l-.39,0h0Z" />
        <path class="cls-2-4" d="M435.72,133.11a10.11,10.11,0,0,1,8.09,5.48A10.11,10.11,0,0,0,435.72,133.11Z" />
        <polygon class="cls-2-4" points="439.99 283.55 440.01 251 439.99 251 439.99 283.55" />
        <polygon class="cls-2-1" points="1000.04 209.57 978.15 209.57 978.19 211.59 978.22 213.6 973.75 213.6 973.75 349.45 978.21 349.45 978.21 357.4 1000.04 357.4 1000.04 353.91 1009.42 353.91 1009.42 209.57 1000.91 209.57 1000.04 209.57"
        />
        <rect class="cls-2-1" x="978.21" y="359.15" width="21.83" height="70.19" />
        <rect class="cls-2-1" x="978.14" y="134.75" width="21.9" height="73.07" />
        <path class="cls-2-1" d="M862.05,378.35a10,10,0,0,1,9.15,10v.58h-9.15v40.43H976.46V359.15H862.05Z" />
        <path class="cls-2-1" d="M859.68,211.85H976.44l0-2.27h0V161.28H775.86v37.41h42.79v20.24H797.37v16.55h-21.5v14.89h-1.75V218.94h-59v-12.8l-25.47-.19H634.84V338.52h83.48v4.86h55.82V293.22h23.22v35.92H819v16H775.9v48.29h84.4v-36H976.46v-6.2H859.68ZM723.47,294.57h-40.1V254.48h40.1Z"
        />
        <rect class="cls-2-1" x="896.69" y="134.75" width="79.71" height="24.78" />
        <path class="cls-2-1" d="M833.7,150.38h.58a10,10,0,0,1,10,9.15h50.67V134.75H819.86v24.78H833.7Z" />
        <path class="cls-2-1" d="M862.05,379.51v8.23h8A8.89,8.89,0,0,0,862.05,379.51Z" />
        <rect class="cls-2-1" x="840.51" y="395.18" width="19.79" height="34.17" />
        <path class="cls-2-1" d="M834.87,151.57v8h8.22A8.86,8.86,0,0,0,834.87,151.57Z" />
        <rect class="cls-2-1" x="805.33" y="395.18" width="33.43" height="34.17" />
        <rect class="cls-2-1" x="775.86" y="134.75" width="42.25" height="24.78" />
        <rect class="cls-2-1" x="797.37" y="330.89" width="19.84" height="12.5" />
        <rect class="cls-2-1" x="797.37" y="200.44" width="19.53" height="16.75" />
        <rect class="cls-2-5" x="775.9" y="395.18" width="27.68" height="34.17" />
        <rect class="cls-2-1" x="775.9" y="330.89" width="19.72" height="12.5" />
        <rect class="cls-2-1" x="775.9" y="314.79" width="19.72" height="14.34" />
        <rect class="cls-2-1" x="775.9" y="294.97" width="19.72" height="18.08" />
        <rect class="cls-2-1" x="775.86" y="218.94" width="19.75" height="14.8" />
        <rect class="cls-2-1" x="775.86" y="200.44" width="19.75" height="16.75" />
        <path class="cls-2-1" d="M718.33,382H701.18V512.86h30v5.24a21.49,21.49,0,0,0,43,0v-173H718.33Z" />
        <path class="cls-2-1" d="M716.9,161.05h57.21V31a21.41,21.41,0,0,0-1-6.38q-.31-1-.72-2a21.49,21.49,0,0,0-39.6,0q-.41,1-.72,2a21.41,21.41,0,0,0-1,6.38v5.57H701.18V161.05H716.9Z"
        />
        <path class="cls-2-2" d="M683.36,294.57h40.1V254.48h-40.1Zm1.75-38.34h36.61v36.59H685.11Z" />
        <rect class="cls-2-5" x="685.11" y="256.23" width="36.61" height="36.59" />
        <polygon class="cls-2-5" points="716.58 380.2 716.58 340.27 690.56 340.27 690.44 360.24 690.33 380.2 700.31 380.2 701.18 380.2 716.58 380.2"
        />
        <polygon class="cls-2-5" points="715.15 204.38 715.15 162.8 701.18 162.8 700.31 162.8 690.57 162.8 690.57 204.21 702.86 204.3 715.15 204.38"
        />
        <polygon class="cls-2-1" points="579.12 264.65 561.84 264.65 561.84 252.46 472.55 252.41 472.55 283.55 439.99 283.55 439.99 251 440.01 251 440.03 225.25 440.03 225.12 432.82 225.12 432.82 209.51 311.12 209.51 311.12 296.39 265.76 296.39 265.76 335.04 309.96 335.04 310.83 335.04 348.27 335.04 348.27 377.31 391.5 377.31 391.5 335.04 518.88 335.04 544.66 335 561.84 334.97 561.84 279.83 579.12 279.83 579.12 302.26 633.09 302.26 633.09 242.21 579.12 242.21 579.12 264.65"
        />
        <polygon class="cls-2-1" points="563.59 334.97 564.21 334.97 564.21 336.1 565.97 336.1 565.97 338.52 577.37 338.52 577.37 303.13 577.37 302.26 577.37 281.58 563.59 281.58 563.59 334.97"
        />
        <polygon class="cls-2-1" points="441.78 250.65 490.5 250.67 563.59 250.72 563.59 262.9 577.37 262.9 577.37 242.21 577.37 241.34 577.37 205.95 565.97 205.95 565.97 208.37 564.21 208.37 564.21 209.51 548.2 209.51 547.32 209.51 518.04 209.51 518.04 165.79 506.65 165.79 505.77 165.79 475.28 165.79 475.28 209.5 434.57 209.5 434.57 223.37 441.78 223.37 441.78 250.65"
        />
        <polygon class="cls-2-1" points="519.79 207.77 547.32 207.77 547.32 39.3 506.65 39.27 506.65 164.04 519.79 164.04 519.79 207.77"
        />
        <path class="cls-2-1" d="M483.57,345.94H483a10,10,0,0,1-9.34-6.41q-.17-.43-.3-.88a10,10,0,0,1-.34-1.86H393.25v42.74h58.4v45.7h25.17v-31.8h32.85V377.31H518V336.79H483.57Z"
        />
        <polygon class="cls-2-1" points="478.57 426.98 477.69 426.98 449.9 426.98 449.9 381.27 391.5 381.27 391.5 379.06 232.83 379.06 232.83 510.46 509.89 510.44 509.74 426.98 478.57 426.98"
        />
        <polygon class="cls-2-5" points="509.68 395.18 478.57 395.18 478.57 425.23 509.74 425.23 509.68 395.18" />
        <path class="cls-2-1" d="M504.9,39.27h0l-68.55,0-.09,42.33h-.51v40.92h9.15v.58a10.54,10.54,0,0,1-.71,3.71q-.17.43-.38.84a10,10,0,0,1-8.06,5.44v.07a10.11,10.11,0,0,1,8.09,5.48l0,.05a10.29,10.29,0,0,1,1.07,4.53v.62h-9.19V164H504.9Z"
        />
        <path class="cls-2-1" d="M479.36,344a8.8,8.8,0,0,0,3,.77v-8h-8.22A8.88,8.88,0,0,0,479.36,344Z" />
        <rect class="cls-2-5" x="435.72" y="165.79" width="37.81" height="41.97" />
        <polygon class="cls-2-5" points="441.74 252.74 441.74 281.8 470.8 281.8 470.8 252.74 470.8 252.42 441.74 252.42 441.74 252.74"
        />
        <path class="cls-2-1" d="M440.65,129.75a8.9,8.9,0,0,0,2.28-3.05c.05-.12.1-.24.15-.36s.1-.24.14-.36l0-.08a9.43,9.43,0,0,0,.45-2.25h-8v8.23a8.79,8.79,0,0,0,3.69-1.22A8.91,8.91,0,0,0,440.65,129.75Z"
        />
        <path class="cls-2-1" d="M443.56,141.76q-.06-.39-.16-.77a9.11,9.11,0,0,0-2.23-4l0,0a8.82,8.82,0,0,0-5.41-2.61v8.2h7.93Q443.63,142.15,443.56,141.76Z"
        />
        <polygon class="cls-2-1" points="306.53 128.32 306.57 165.79 265.76 165.79 265.76 207.77 433.98 207.77 433.98 115.03 420.53 115.03 420.48 127.5 391.5 127.5 391.5 81.56 379.7 81.56 379.7 90.28 361.45 90.28 361.45 81.56 349.65 81.56 349.65 128.2 325.02 128.27 306.53 128.32"
        />
        <polygon class="cls-2-1" points="433.98 81.56 420.67 81.56 420.54 113.29 433.98 113.29 433.98 81.56" />
        <polygon class="cls-2-1" points="418.74 125.39 418.92 81.56 393.25 81.56 393.25 125.75 418.73 125.75 418.74 125.39"
        />
        <polygon class="cls-2-1" points="347.9 126.46 347.9 81.56 306.47 81.56 306.53 126.57 347.9 126.46" />
        <path class="cls-2-1" d="M265.76,164h39.05v-8h-9.53v-.58a10,10,0,0,1,8.77-9.94,10,10,0,0,1-8.9-10V135h9.62l-.06-53.32v-.3l.09-42.07h-72V164h32.93Z"
        />
        <path class="cls-2-1" d="M296.48,154.88h8.26v-8.26A8.88,8.88,0,0,0,296.48,154.88Z" />
        <path class="cls-2-1" d="M304.6,144.41v-8.26h-8.27A8.88,8.88,0,0,0,304.6,144.41Z" />
        <path class="cls-2-1" d="M309.08,377.31V336.79h-8.16v9.15h-.58a10,10,0,0,1-10-9.15H224.5v40.52h84.58Z" />
        <path class="cls-2-1" d="M299.75,344.76v-8h-8.23A8.89,8.89,0,0,0,299.75,344.76Z" />
        <rect class="cls-2-5" x="310.83" y="336.79" width="35.7" height="40.52" />
        <polygon class="cls-2-1" points="264.01 335.04 264.01 165.79 232.83 165.79 231.95 165.79 222.3 165.79 222.3 207.95 180.13 207.95 180.13 335.04 223.63 335.04 224.5 335.04 264.01 335.04"
        />
        <path class="cls-2-2" d="M1001.79,207.82V133H775.86V31a23.24,23.24,0,1,0-46.48,0v3.82H699.43V161.05H688.82V204.2H633.09v36.27h-54V204.2h-14.9v2.43h-1.76v1.14H549.07V37.55l-114.48-.07-.1,42.33H378v8.72H363.2V79.81H306.47l.1-42.26h-75.5V164H220.55V206.2H178.38V336.79h44.37v42.27h8.33V512.21l280.57,0-.26-133.13h8.4V336.79l42.67-.07v1.13h1.76v2.43h14.9V304h54v36.27h55.72L688.57,382h10.87V514.61h30v3.49a23.24,23.24,0,1,0,46.48,0V474.39l0-.85,0-42.45h225.89V355.66h9.38V207.82ZM506.65,39.27l40.67,0V207.77H519.79V164H506.65Zm-70.92,84.37h8a9.43,9.43,0,0,1-.45,2.25l0,.08c0,.12-.1.24-.14.36s-.09.25-.15.36a8.93,8.93,0,0,1-3.52,4,8.79,8.79,0,0,1-3.69,1.22Zm0,10.72a8.82,8.82,0,0,1,5.41,2.61l0,0a9.11,9.11,0,0,1,2.23,4q.1.38.16.77t.09.8h-7.93Zm0,9.43h9.19v-.62a10.29,10.29,0,0,0-1.07-4.53l0-.05a10.11,10.11,0,0,0-8.09-5.48V133a10,10,0,0,0,8.06-5.44q.21-.41.38-.84a10.54,10.54,0,0,0,.71-3.71v-.58h-9.15V81.56h.51l.09-42.33,68.55,0h0V164H435.72Zm0,22h37.81v42H435.72Zm-.26-32.73-.39,0h0Zm-.89,76.45h40.71V165.79H518v43.73h46.17v-1.14H566v-2.43h11.4v57H563.59V250.72l-73.09,0-48.73,0V223.37h-7.21Zm36.23,42.91V281.8H441.74V252.42ZM420.67,81.56H434v31.73H420.54Zm-27.42,0h25.67l-.19,43.83v.37H393.25Zm-43.6,0h11.8v8.72H379.7V81.56h11.8V127.5h29l0-12.47H434v92.73H265.76v-42h40.81l0-37.47,18.49,0,24.64-.07Zm-40.28,169a8.14,8.14,0,0,0-7.51,8.1v.5h7.51v35.54H265.76V209.52h43.61Zm-6.49,7.6a7.14,7.14,0,0,1,6.49-6.6v6.6Zm45-176.55v44.91l-41.37.1-.06-45ZM232.83,39.29h72l-.09,42.07v.3l.06,53.32h-9.62v.58a10,10,0,0,0,8.9,10,10,10,0,0,0-8.77,9.94V156h9.53v8h-72Zm71.9,107.33v8.26h-8.26A8.88,8.88,0,0,1,304.73,146.63Zm-.13-2.22a8.88,8.88,0,0,1-8.27-8.26h8.27ZM180.13,335V208H222.3V165.79H264V335H180.13Zm44.37,42.27V336.79h65.85a10,10,0,0,0,10,9.15h.58v-9.15h8.16v40.52H224.5Zm67-40.52h8.23v8A8.89,8.89,0,0,1,291.52,336.79ZM232.83,510.46V379.06H391.5v2.22h58.4V427h59.83l.15,83.46Zm78-133.15V336.79h35.7v40.52Zm167.74,47.92V395.18h31.11l.06,30.05ZM518,377.31h-8.4v16.12H476.82v31.8H451.65v-45.7h-58.4V336.79H473a10,10,0,0,0,.34,1.86q.13.45.3.88a10,10,0,0,0,9.34,6.41h.58v-9.15H518Zm-43.86-40.52h8.22v8a8.87,8.87,0,0,1-8.22-8Zm103.19-34.53v36.27H566V336.1h-1.76V335h-.62V281.58h13.78Zm55.72,0h-54V279.83H561.84V335l-17.18,0-25.78,0H391.5v42.27H348.28V335H265.76V296.39h45.36V209.52h121.7v15.6H440V251l0,32.56h32.56V252.41l89.29.06v12.19h17.28V242.21h54Zm345-167.5H1000v73.07h-21.9Zm-81.45,0h79.71v24.78H896.69Zm-76.83,0h75.08v24.78H844.27a10,10,0,0,0-10-9.15h-.58v9.15H819.86Zm23.23,24.78h-8.22v-8A8.86,8.86,0,0,1,843.09,159.54Zm-67.23-24.78h42.25v24.78H775.86Zm0,65.69h19.75v16.75H775.86Zm0,18.5h19.75v14.8H775.86ZM701.18,36.53h29.95V31a21.41,21.41,0,0,1,1-6.38q.31-1,.72-2a21.49,21.49,0,0,1,39.6,0q.41,1,.72,2a21.41,21.41,0,0,1,1,6.38V161.05H701.18ZM774.11,162.8v54.39H716.9V162.8Zm-83.54,0h24.58v41.58l-12.29-.09-12.29-.09Zm-.24,217.4.12-20,.12-20h26V380.2H690.33Zm83.82,50V518.1a21.49,21.49,0,0,1-43,0v-5.24h-30V382h17.14V345.14h55.82Zm29.43-.87H775.9V395.18h27.68Zm35.18,0H805.33V395.18h33.43Zm21.54,0H840.51V395.18H860.3Zm116.16,0H862.05V388.91h9.15v-.58a10,10,0,0,0-9.15-10V359.15H976.46Zm-114.41-41.6v-8.23a8.89,8.89,0,0,1,8,8.23ZM976.46,357.4H860.3v36H775.9V345.14H819v-16H797.37V293.22H774.15v50.17H718.33v-4.86H634.84V205.95h54.84l25.47.19v12.8h59v31.44h1.75V235.49h21.5V218.94h21.28V198.69H775.86V161.28H976.39v48.29h0l0,2.27H859.68V351.2H976.46ZM795.62,314.79v14.34H775.9V314.79ZM775.9,313V295h19.72V313Zm19.72,17.84v12.5H775.9v-12.5Zm1.75,12.5v-12.5H817.2v12.5Zm0-126.2V200.44H816.9v16.75ZM972,332.45v11.6h-16.7v5.4h-9.15v-5.4H866.94V287.41h-5.5V278h5.5V219h79.22v-5.4h9.15V219H972v11.52l-2.62.11-2.62.11V332.45Zm28,96.89H978.21V359.15H1000Zm9.38-75.44H1000v3.5H978.21v-8h-4.45V213.6h4.47l0-2,0-2h31.26Z"
        />
        <polygon id="room-2-2" class="cls-2-1 ccl-c-floor__room" points="969.39 230.63 972.01 230.52 972.01 219 955.31 219 955.31 213.6 946.15 213.6 946.15 219 866.94 219 866.94 278.04 861.43 278.04 861.43 287.41 866.94 287.41 866.94 344.05 946.15 344.05 946.15 349.45 955.31 349.45 955.31 344.05 972.01 344.05 972.01 332.45 966.77 332.45 966.77 230.74 969.39 230.63"
        />
        <polygon id="room-2-1" class="cls-2-1 ccl-c-floor__room" points="716.9 205.27 716.9 206.15 716.9 217.19 774.11 217.19 774.11 162.8 716.9 162.8 716.9 205.27"
        />
        <text class="cls-2-6" transform="translate(568.76 146.01) scale(0.7)">2nd FLOOR</text>
        <text class="cls-2-6" transform="translate(673.11 146.01) scale(0.7)"> </text>
        <text class="cls-2-6" transform="translate(580.95 166.01) scale(0.7)">BRIDGE</text>
        <text class="cls-2-6" transform="translate(858.54 463.01) scale(0.7) ">MAIN SERVICES DESK</text>
        <line class="cls-2-9" x1="203.01" y1="127.76" x2="371.36" y2="147.14" />
        <text class="cls-2-6" transform="translate(45.34 117.48) scale(0.7)">NORTH ENTRANCE</text>
        <path d="M480.91,250.67v18.12a1.15,1.15,0,0,1-1.14,1.17h-19a1.15,1.15,0,0,1-1.13-1.17V250.67a1.15,1.15,0,0,1,1.13-1.17h19A1.15,1.15,0,0,1,480.91,250.67Zm-1.16,17V251.71a1,1,0,0,0-1-1h-17a1,1,0,0,0-1,1v15.94a1,1,0,0,0,1,1h17A1,1,0,0,0,479.75,267.66Z"
        />
        <path class="cls-2-1" d="M479.75,251.71v15.94a1,1,0,0,1-1,1h-17a1,1,0,0,1-1-1V251.71a1,1,0,0,1,1-1h17A1,1,0,0,1,479.75,251.71Zm-1.92,10.41c1-1,0-1.09,0-1.09h-6.64c-.92,0-.39.69-.12,1l.12.13,2.8,2.92a.68.68,0,0,0,1.06,0Zm-.08-3.66s.87-.21,0-1.12h0L475,254.43h0a.62.62,0,0,0-1-.05l-.05.05h0l-2.65,2.76c-1,1-.13,1.24,0,1.27Zm-8.81,2.67v-3.66a1.18,1.18,0,0,0-1.19-1.17h-4.07a1.18,1.18,0,0,0-1.19,1.17v3.66a1.18,1.18,0,0,0,1,1.15h0s.33,0,.39.44c.12.87.39,2.86.48,3.68.12,1,.75,1.07.75,1.07a3.15,3.15,0,0,0,1.29,0c.72-.15.79-1,.79-1l.45-3.8a.4.4,0,0,1,.32-.36h0A1.18,1.18,0,0,0,468.94,261.13Zm-1.47-7.43a1.7,1.7,0,1,0-1.7,1.77A1.74,1.74,0,0,0,467.47,253.7Z"
        />
        <path d="M477.83,261s1,.05,0,1.09L475,265a.68.68,0,0,1-1.06,0l-2.8-2.92-.12-.13c-.26-.29-.8-1,.12-1h6.64Z" />
        <path d="M477.75,257.34c.87.9,0,1.12,0,1.12h-6.48c-.12,0-1-.26,0-1.27l2.65-2.76h0l.05-.05a.62.62,0,0,1,1,.05h0l2.79,2.91Z"
        />
        <path d="M468.94,257.47v3.66a1.18,1.18,0,0,1-1,1.15h0a.4.4,0,0,0-.32.36l-.45,3.8s-.07.88-.79,1a3.15,3.15,0,0,1-1.29,0s-.63,0-.75-1.07c-.09-.81-.36-2.81-.48-3.68-.06-.43-.39-.44-.39-.44h0a1.18,1.18,0,0,1-1-1.15v-3.66a1.18,1.18,0,0,1,1.19-1.17h4.07A1.18,1.18,0,0,1,468.94,257.47Z"
        />
        <ellipse cx="465.77" cy="253.7" rx="1.7" ry="1.77" />
        <path d="M929.17,252.37v18.12a1.15,1.15,0,0,1-1.14,1.17H909a1.15,1.15,0,0,1-1.13-1.17V252.37A1.15,1.15,0,0,1,909,251.2h19A1.15,1.15,0,0,1,929.17,252.37Zm-1.16,17V253.41a1,1,0,0,0-1-1H910a1,1,0,0,0-1,1v15.94a1,1,0,0,0,1,1h17A1,1,0,0,0,928,269.36Z"
        />
        <path class="cls-2-1" d="M928,253.41v15.94a1,1,0,0,1-1,1H910a1,1,0,0,1-1-1V253.41a1,1,0,0,1,1-1h17A1,1,0,0,1,928,253.41Zm-1.92,10.41c1-1,0-1.09,0-1.09h-6.64c-.92,0-.39.69-.12,1l.12.13,2.8,2.92a.68.68,0,0,0,1.06,0Zm-.08-3.66s.87-.21,0-1.12h0l-2.79-2.91h0a.62.62,0,0,0-1-.05l-.05.05h0l-2.65,2.76c-1,1-.13,1.24,0,1.27Zm-8.81,2.67v-3.66A1.18,1.18,0,0,0,916,258h-4.07a1.18,1.18,0,0,0-1.19,1.17v3.66a1.18,1.18,0,0,0,1,1.15h0s.33,0,.39.44c.12.87.39,2.86.48,3.68.12,1,.75,1.07.75,1.07a3.15,3.15,0,0,0,1.29,0c.72-.15.79-1,.79-1l.45-3.8a.4.4,0,0,1,.32-.36h0A1.18,1.18,0,0,0,917.2,262.83Zm-1.47-7.43a1.7,1.7,0,1,0-1.7,1.77A1.74,1.74,0,0,0,915.73,255.4Z"
        />
        <path d="M926.09,262.73s1,.05,0,1.09l-2.79,2.9a.68.68,0,0,1-1.06,0l-2.8-2.92-.12-.13c-.26-.29-.8-1,.12-1h6.64Z" />
        <path d="M926,259c.87.9,0,1.12,0,1.12h-6.48c-.12,0-1-.26,0-1.27l2.65-2.76h0l.05-.05a.62.62,0,0,1,1,.05h0L926,259Z"
        />
        <path d="M917.2,259.17v3.66a1.18,1.18,0,0,1-1,1.15h0a.4.4,0,0,0-.32.36l-.45,3.8s-.07.88-.79,1a3.15,3.15,0,0,1-1.29,0s-.63,0-.75-1.07c-.09-.81-.36-2.81-.48-3.68-.06-.43-.39-.44-.39-.44h0a1.18,1.18,0,0,1-1-1.15v-3.66a1.18,1.18,0,0,1,1.19-1.17H916A1.18,1.18,0,0,1,917.2,259.17Z"
        />
        <ellipse cx="914.03" cy="255.4" rx="1.7" ry="1.77" />
        <use width="21.29" height="20.45" transform="translate(706.19 254.07)" xlink:href="#elevator" />
        <use width="18.3" height="18.3" transform="translate(690.52 217.93)" xlink:href="#Staircase" />
        <use width="18.3" height="18.3" transform="translate(702.52 292.15)" xlink:href="#Staircase" />
        <use width="18.3" height="18.3" transform="translate(451.97 220.03)" xlink:href="#Staircase" />
        <use width="18.3" height="18.3" transform="translate(497.38 313.09)" xlink:href="#Staircase" />
        <use width="18.3" height="18.3" transform="translate(329.02 291.44)" xlink:href="#Staircase" />
        <use width="12.7" height="24.06" transform="translate(396.45 168.23) scale(1.26)" xlink:href="#mens_restroom" />
        <use width="12.7" height="24.06" transform="translate(789.61 186.26) scale(1.26)" xlink:href="#mens_restroom" />
        <use width="12.7" height="24.06" transform="translate(326.57 167.94) scale(1.23)" xlink:href="#womens_restroom" />
        <use width="18.3" height="18.3" transform="translate(881.15 252.28)" xlink:href="#Staircase" />
        <use width="18.3" height="18.3" transform="translate(937.15 252.28)" xlink:href="#Staircase" />
        <use id="information-3" data-name="information" width="36" height="36" transform="translate(758.58 273.36) scale(0.48)"
            xlink:href="#information" />
        <line class="cls-2-9" x1="769.39" y1="282.53" x2="846.2" y2="457.78" />
        <path d="M816.78,313.25v18.12a1.15,1.15,0,0,1-1.14,1.17h-19a1.15,1.15,0,0,1-1.13-1.17V313.25a1.15,1.15,0,0,1,1.13-1.17h19A1.15,1.15,0,0,1,816.78,313.25Zm-1.16,17V314.29a1,1,0,0,0-1-1h-17a1,1,0,0,0-1,1v15.94a1,1,0,0,0,1,1h17A1,1,0,0,0,815.62,330.24Z"
        />
        <path class="cls-2-1" d="M815.62,314.29v15.94a1,1,0,0,1-1,1h-17a1,1,0,0,1-1-1V314.29a1,1,0,0,1,1-1h17A1,1,0,0,1,815.62,314.29ZM813.7,324.7c1-1,0-1.09,0-1.09h-6.64c-.92,0-.39.69-.12,1l.12.13,2.8,2.92a.68.68,0,0,0,1.06,0Zm-.08-3.66s.87-.21,0-1.12h0L810.82,317h0a.62.62,0,0,0-1-.05l-.05.05h0l-2.65,2.76c-1,1-.13,1.24,0,1.27Zm-8.81,2.67v-3.66a1.18,1.18,0,0,0-1.19-1.17h-4.07a1.18,1.18,0,0,0-1.19,1.17v3.66a1.18,1.18,0,0,0,1,1.15h0s.33,0,.39.44c.12.87.39,2.86.48,3.68.12,1,.75,1.07.75,1.07a3.15,3.15,0,0,0,1.29,0c.72-.15.79-1,.79-1l.45-3.8a.4.4,0,0,1,.32-.36h0A1.18,1.18,0,0,0,804.81,323.71Zm-1.47-7.43a1.7,1.7,0,1,0-1.7,1.77A1.74,1.74,0,0,0,803.33,316.28Z"
        />
        <path d="M813.7,323.61s1,.05,0,1.09l-2.79,2.9a.68.68,0,0,1-1.06,0l-2.8-2.92-.12-.13c-.26-.29-.8-1,.12-1h6.64Z" />
        <path d="M813.62,319.92c.87.9,0,1.12,0,1.12h-6.48c-.12,0-1-.26,0-1.27L809.8,317h0l.05-.05a.62.62,0,0,1,1,.05h0l2.79,2.91Z"
        />
        <path d="M804.81,320.05v3.66a1.18,1.18,0,0,1-1,1.15h0a.4.4,0,0,0-.32.36L803,329s-.07.88-.79,1a3.15,3.15,0,0,1-1.29,0s-.63,0-.75-1.07c-.09-.81-.36-2.81-.48-3.68-.06-.43-.39-.44-.39-.44h0a1.18,1.18,0,0,1-1-1.15v-3.66a1.18,1.18,0,0,1,1.19-1.17h4.07A1.18,1.18,0,0,1,804.81,320.05Z"
        />
        <ellipse cx="801.63" cy="316.28" rx="1.7" ry="1.77" />
        <use width="12.7" height="24.06" transform="translate(830.63 302.51) scale(1.2)" xlink:href="#womens_restroom" />
    </g>
</svg>