<svg class="ccl-c-floor" xmlns="http://www.w3.org/2000/svg" xmlns:xlink="http://www.w3.org/1999/xlink" viewBox="0 0 1164.12 549.05">
    <defs>
        <style>
            .cls-1 {
                fill: #fff;
            }

            .cls-2 {
                fill: #1c2b39;
            }

            .cls-3 {
                fill: #bdc0c7;
            }

            .cls-4 {
                font-size: 25px;
                fill: #231f20;
                font-family: Gotham-Medium, Gotham;
            }

            .cls-5 {
                fill: none;
                stroke: #1c2b39;
                stroke-width: 2px;
            }
        </style>
        <symbol id="Staircase" data-name="Staircase" viewBox="0 0 18.3 18.3">
            <rect class="cls-1" x="0.38" y="0.38" width="17.55" height="17.55" />
            <path d="M17.47,18.3H.83A.83.83,0,0,1,0,17.47V.83A.83.83,0,0,1,.83,0H17.47a.83.83,0,0,1,.83.83V17.47A.83.83,0,0,1,17.47,18.3ZM.83.76A.08.08,0,0,0,.76.83V17.47a.08.08,0,0,0,.08.08H17.47a.08.08,0,0,0,.08-.08V.83a.08.08,0,0,0-.08-.08Z"
            />
            <path d="M15.76,4.7H13.07a.75.75,0,0,0-.75.75V7.38H10.38a.75.75,0,0,0-.75.75v1.94H7.7a.75.75,0,0,0-.75.75v2h-2a.75.75,0,0,0-.75.75v1.56a.75.75,0,0,0,.75.75H15.76a.75.75,0,0,0,.75-.75V5.45a.75.75,0,0,0-.75-.75Zm0,0"
            />
            <path d="M11.82,2.55a.5.5,0,0,0-.7,0c-3.2,3.11-6.24,6.15-9.17,9.09A.5.5,0,0,0,1.8,12v3.41a.5.5,0,1,0,1,0v-3.2c2.89-2.89,5.88-5.88,9-8.94a.5.5,0,0,0,0-.7Zm0,0"
            />
        </symbol>
        <symbol id="Men_and_women_restroom" data-name="Men and women restroom" viewBox="0 0 18.45 16.45">
            <rect class="cls-1" x="0.35" y="0.35" width="17.75" height="15.75" rx="0.77" ry="0.77" />
            <path d="M17.32.7a.42.42,0,0,1,.42.42v14.2a.42.42,0,0,1-.42.42H1.13a.42.42,0,0,1-.42-.42V1.13A.42.42,0,0,1,1.13.7h16.2m0-.7H1.13A1.13,1.13,0,0,0,0,1.13v14.2a1.13,1.13,0,0,0,1.13,1.13h16.2a1.13,1.13,0,0,0,1.13-1.13V1.13A1.13,1.13,0,0,0,17.32,0Z"
            />
            <path d="M6.25,4.09H3.39A1.26,1.26,0,0,0,2.14,5.34l0,3.9a.53.53,0,0,0,.53.53h0a.53.53,0,0,0,.53-.53l0-3.9h0a.11.11,0,0,1,.21,0v8.92a.64.64,0,1,0,1.27,0V9.18H5v5.09a.64.64,0,1,0,1.27,0c0-8.42,0-3.6,0-8.92a.11.11,0,0,1,.22,0h0v3.9A.53.53,0,0,0,7,9.78H7a.53.53,0,0,0,.53-.53V5.35h0A1.26,1.26,0,0,0,6.25,4.09Zm0,0"
            />
            <path d="M5.92,2.64a1.1,1.1,0,1,1-1.1-1.1,1.1,1.1,0,0,1,1.1,1.1Zm0,0" />
            <path d="M16.51,8.42,15.38,5.2c-.24-.71-.65-1.07-1.22-1.07H12.33c-.56,0-1,.36-1.22,1.07L10,8.42a.53.53,0,1,0,1,.35c0-.09.61-1.7.94-2.63,0,.28.06-.3-.75,3.92a.29.29,0,0,0,.29.35h.4v3.82a.63.63,0,1,0,1.26,0V10.41h.27v3.82a.63.63,0,0,0,1.26,0V10.41h.4a.29.29,0,0,0,.29-.35c-.81-4.18-.72-3.69-.75-3.92l.92,2.63a.53.53,0,0,0,1-.35Zm0,0"
            />
            <path d="M14.34,2.68a1.09,1.09,0,1,1-1.09-1.09,1.09,1.09,0,0,1,1.09,1.09Zm0,0" />
            <path d="M9.33,2.25a.41.41,0,0,0-.41.41V13.79a.41.41,0,1,0,.81,0V2.66a.41.41,0,0,0-.41-.41Zm0,0" />
        </symbol>
    </defs>
    <title>level-1_1</title>
    <g id="text_and_icons" data-name="text and icons">
        <path class="cls-2" d="M998.46,220.66V367.87h-9.39V443.3H815.14v-.5h1.75v-1.25h30.8V224.07H963.06V203.74h-116V147h-18.2V252H762.44l-.12,26.68h-1.75l.35-74.95H719.52V74.07l-17,0v99.16h8.16v50.8h19.87v30H710.72v13.62H709V218.17H618.63V350.74h90.2v-9.43H677.91V307.75h32.82v.7h-.14v87.1h-8.16l.14,91.87h17V331.13h41.57V301.31h72.13v60.58h-.87v.8l-11.12,0v27.87H762.84V406h-.57v1.75h.57v33.79h28v1.75H763.14V511a23.24,23.24,0,1,1-46.47,0v-7.28H683.21V395.55H672.6V352.49H616.88V216.42H672.6V173.27h10.61V46.66h33.46V39.39a23.24,23.24,0,1,1,46.47,0V145.22H989.07v75.44Zm-1.75,145.46V239.94H977.31v4.73H961V360.95h3.77v5.18h31.89Zm0-127.94V222.41h-9.39V147H964.81v78.84H961v17.11h14.52v-4.73Zm-9.39,203.36V367.87H964.81v73.68Zm-24.26,0V362.7H849.44v78.85Zm0-239.56V147H848.82v55Zm-3.77,159v-8.41h-17.5v8.41Zm0-10.16V234H909.72v-8.22H895.61V234h-37v52.52h-9.13v14.75h9.13v49.27H925.7v10.37H940V350.79Zm0-118.5v-6.47H911.47v6.47ZM924,360.95v-8.62H856.82V303.06h-7.38v57.89ZM893.87,232.29v-6.47H849.44v59h7.38V232.29Zm-62.4,128.66V303.06H762.84V361C769,361.06,809.09,361,831.47,360.95Zm-4.35-110.68V210H794.6v15.82h-32l-.12,24.45Zm0-42V147H762.93l-.36,77.09h30.28V208.24Zm-7.64,180.6V362.73c-17.31,0-29.42,0-37.92,0-11.93,0-16.73,0-18.72-.12v26.18ZM761.39,511v-21.8H685v12.77h33.46v9a21.49,21.49,0,1,0,43,0Zm0-23.54v-45h-.3V332.88H721.27V487.41Zm0-341.32v-72c-3.84-.1-21.71-.09-40.13-.06V202h39.66l.27-55.89Zm0-73.65V39.39a21.49,21.49,0,1,0-43,0v9H685v24C742.76,72.2,757.5,72.26,761.39,72.45ZM728.85,252.29V225.82H710.72v26.47ZM709,216.42V175H674.35v41.4Zm-.14,177.38v-41.3H674.35v41.3h34.48Zm0-54.24V308.45H679.66v31.11Zm-8-166.29V74.11l-15.85,0v99.11Zm0,314.15-.14-91.87H685v91.87Z"
        />
        <polygon class="cls-1" points="996.71 239.94 996.71 366.13 988.19 366.13 987.32 366.13 964.81 366.13 964.81 360.95 961.05 360.95 961.05 244.67 977.31 244.67 977.31 239.94 996.71 239.94"
        />
        <polygon class="cls-1" points="996.71 222.41 996.71 238.19 975.57 238.19 975.57 242.92 961.05 242.92 961.05 225.82 964.81 225.82 964.81 146.97 987.32 146.97 987.32 222.41 996.71 222.41"
        />
        <rect class="cls-1" x="964.81" y="367.87" width="22.51" height="73.68" />
        <rect id="floor-1__room-13" class="ccl-c-floor__room cls-1" x="849.44" y="362.7" width="113.63" height="78.85" />
        <path class="cls-1" d="M963.06,203.74v20.33H847.69V441.55h-30.8V406H762.84V390.59h58.39V362.72l11.12,0v-.8h.87V301.31H761.09v29.82H719.52V487.41h-17l-.14-91.87h8.16v-87.1h.14v-.7h0V267.66h0V254h19.87v-30H710.72v-50.8h-8.16V74.11l17,0V203.74h41.41l-.35,74.95h1.75l.12-26.68h66.42V147h18.2v56.77Zm-134.2,74.54v-16h-46v16Z"
        />
        <rect id="floor-1__room-12" class="ccl-c-floor__room cls-1" x="848.82" y="146.97" width="114.25" height="55.02" />
        <rect class="cls-2" x="941.79" y="352.54" width="17.5" height="8.41" />
        <polygon class="cls-1" points="959.3 234.04 959.3 350.79 940.04 350.79 940.04 360.95 925.7 360.95 925.7 350.58 858.57 350.58 858.57 301.31 849.44 301.31 849.44 286.56 858.57 286.56 858.57 234.04 895.61 234.04 895.61 225.82 909.73 225.82 909.73 234.04 959.3 234.04"
        />
        <rect class="cls-2" x="911.47" y="225.82" width="47.82" height="6.47" />
        <polygon class="cls-2" points="923.95 352.33 923.95 360.95 849.44 360.95 849.44 303.06 856.82 303.06 856.82 352.33 923.95 352.33"
        />
        <polygon class="cls-2" points="893.87 225.82 893.87 232.29 856.82 232.29 856.82 284.81 849.44 284.81 849.44 225.82 893.87 225.82"
        />
        <path class="cls-1" d="M831.47,303.06v57.89c-22.38.06-62.48.12-68.63,0V303.06Z" />
        <path class="cls-2" d="M828.86,262.29v16h-46v-16Zm-1.75,14.24V264H784.61v12.49Z" />
        <polygon id="floor-1__room-11" class="ccl-c-floor__room cls-1" points="827.12 209.99 827.12 250.27 762.45 250.27 762.57 225.82 794.6 225.82 794.6 209.99 827.12 209.99"
        />
        <polygon id="floor-1__room-10" class="ccl-c-floor__room cls-1" points="827.12 146.97 827.12 208.24 792.86 208.24 792.86 224.07 762.57 224.07 762.93 146.97 827.12 146.97"
        />
        <path class="cls-1" d="M819.48,362.73v26.11H762.84V362.66c2,.08,6.79.12,18.72.12C790.06,362.78,802.17,362.77,819.48,362.73Z"
        />
        <polygon class="cls-2" points="816.89 441.55 816.89 442.8 815.14 442.8 815.14 441.55 815.14 407.76 792.61 407.76 792.61 441.55 792.61 442.8 790.86 442.8 790.86 441.55 790.86 407.76 762.84 407.76 762.27 407.76 762.27 406.01 762.84 406.01 816.89 406.01 816.89 441.55"
        />
        <polygon class="cls-2" points="815.14 442.8 815.14 443.3 790.86 443.3 790.86 442.8 792.61 442.8 792.61 441.55 815.14 441.55 815.14 442.8"
        />
        <rect class="cls-1" x="792.61" y="407.76" width="22.53" height="33.79" />
        <rect class="cls-3" x="762.84" y="407.76" width="28.02" height="33.79" />
        <path class="cls-1" d="M761.39,489.16V511a21.49,21.49,0,1,1-43,0v-9H685V489.16Z" />
        <polygon id="floor-1__room-9" class="ccl-c-floor__room cls-1" points="761.39 442.43 761.39 487.42 721.27 487.42 721.27 332.88 761.09 332.88 761.09 442.43 761.39 442.43"
        />
        <path id="floor-1__room-8" class="ccl-c-floor__room cls-1" d="M761.39,74.12v72h-.2L760.93,202H721.27V74.07C739.68,74,757.56,74,761.39,74.12Z" />
        <path class="cls-1" d="M761.39,39.39V72.45c-3.89-.19-18.63-.24-76.43,0v-24h33.46v-9a21.49,21.49,0,1,1,43,0Z" />
        <rect class="cls-1" x="710.72" y="225.82" width="18.12" height="26.47" />
        <path class="cls-2" d="M710.75,267.66v40.09H670.66V267.66h40.09ZM709,306V269.41H672.4V306H709Z" />
        <rect class="cls-2" x="708.97" y="269.41" width="0.02" height="36.59" />
        <rect class="cls-3" x="672.4" y="269.41" width="36.57" height="36.59" />
        <polygon class="cls-1" points="708.98 218.17 708.98 267.66 670.65 267.66 670.65 307.75 677.91 307.75 677.91 341.31 708.84 341.31 708.84 350.74 674.35 350.74 673.48 350.74 618.63 350.74 618.63 218.17 673.48 218.17 674.35 218.17 708.98 218.17"
        />
        <polygon class="cls-3" points="708.98 175.02 708.98 216.42 674.35 216.42 674.35 175.02 684.09 175.02 684.96 175.02 708.98 175.02"
        />
        <polygon class="cls-3" points="708.84 352.49 708.84 393.8 684.96 393.8 684.09 393.8 674.35 393.8 674.35 352.49 708.84 352.49"
        />
        <rect class="cls-1" x="679.66" y="308.45" width="29.18" height="31.11" />
        <path class="cls-1" d="M700.81,74.11v99.16H685V74.16Z" />
        <polygon class="cls-1" points="700.67 395.55 700.81 487.42 684.96 487.42 684.96 395.55 700.67 395.55" />
        <path class="cls-2" d="M551.39,219.37V349H507.69v42.27h-8.76v110H383c-.47,13.29-11.54,24.36-24.59,24.36s-24.14-11.07-24.61-24.36H218.37l-.07-62.09H210V420.85h-13.5V439.2h-7.24V349H165.66V218.42h42.17V176.27h10.54V49.76h318v169.6Zm-1.75,127.89V264.68h-42v82.57Zm0-84.32V221.12h-42v41.83Zm-15-43.57V51.51H220.12V85.12H326.47v61.27h97.14v29.88h39.71v43.09ZM505.94,389.53V285.27h-9.19v-.58a10.05,10.05,0,0,1,9.19-10V221.1H421.86v-73H324.72V86.87h-26.6v61.27h-78v28.13h78v28.22H209.58v13.94h88.54v48H167.41V301H298.12v46.86h37.44v75.22h9.15v.58a10,10,0,0,1-9.15,10v.23a10,10,0,0,1,9.15,10v.58h-9.15v56c0,12.73,10.47,23.49,22.87,23.49s22.87-10.75,22.87-23.49v-143h.87c46.38,0,66.66-37.88,66.85-38.26l.24-.47h24.26v52.24l.09,18.62h32.31Zm0-105.43v-8.23a8.86,8.86,0,0,0-8,8.23Zm-8.76,215.43V439.2H464.11V405.65H475.2V391.28H406.85v39.23h-23.8v69Zm0-62.09V391.28H476.95v16.12H465.86v30.05Zm-25.31-47.92-.09-18.61V320.41H450.33c-2.52,4.42-23.26,38.27-67.27,38.72v30.4ZM461.57,219.36V178h-38v41.34ZM405.1,428.76V410.89H383.05v17.87Zm0-19.61V391.28H383.05v17.87Zm-61.57,15.11h-8v8.23A8.87,8.87,0,0,0,343.53,424.26Zm-8,19h8a8.86,8.86,0,0,0-8-8.22Zm-1.75,56.24V408.25H297.91v4.07H253v36.3h-33l.06,50.91Zm0-93V391.28h-122v46.17H220v9.42h31.24v-36.3h44.87V406.5Zm0-17V349.62h-35.7v39.89Zm-37.44,0V349.62L280,349.53v40Zm0-41.65V302.77h-129v44.49H191Zm0-83.22V220.17h-129v44.49Zm0-61.92V178h-86.8v24.72Zm0-56.35V86.87H220.12v59.52ZM278.24,389.53v-40l-66.46-.38v40.39h20.64a10.05,10.05,0,0,1,10-9.15H243v9.15Zm-36.41,0v-8a8.87,8.87,0,0,0-8.23,8ZM210,419.1v-70l-19-.1v88.43h3.74V419.1Z"
        />
        <rect class="cls-1" x="507.69" y="264.68" width="41.96" height="82.57" />
        <polygon class="cls-1" points="549.64 221.12 549.64 262.93 507.69 262.93 507.69 221.1 534.6 221.12 549.64 221.12"
        />
        <polygon id="floor-1__room-1" class="ccl-c-floor__room cls-1" points="534.6 51.51 534.6 219.37 463.32 219.35 463.32 176.27 423.61 176.27 423.61 146.39 326.47 146.39 326.47 85.12 220.12 85.12 220.12 51.51 534.6 51.51"
        />
        <path class="cls-1" d="M505.94,348.13v41.4H473.63l-.09-18.62V318.66H449.28l-.24.47c-.2.38-20.48,38.26-66.85,38.26h-.87v143c0,12.73-10.47,23.49-22.87,23.49s-22.87-10.75-22.87-23.49v-56h9.15v-.58a10,10,0,0,0-9.15-10v-.23a10,10,0,0,0,9.15-10v-.58h-9.15V347.88H298.12V301H167.41V266.41H298.12v-48H209.58V204.49h88.54V176.27h-78V148.14h78V86.87h26.6v61.27h97.14v73h84.08v53.58a10.05,10.05,0,0,0-9.19,10v.58h9.19v62.87ZM459.84,304V271.42H427.27V304Z"
        />
        <path class="cls-1" d="M505.94,275.87v8.23h-8A8.86,8.86,0,0,1,505.94,275.87Z" />
        <polygon id="floor-1__room-3" class="ccl-c-floor__room cls-1" points="497.18 439.19 497.18 499.53 383.05 499.53 383.05 430.51 406.85 430.51 406.85 391.28 475.2 391.28 475.2 405.65 464.11 405.65 464.11 439.19 497.18 439.19"
        />
        <polygon class="cls-3" points="497.18 391.28 497.18 437.45 465.86 437.45 465.86 407.39 476.95 407.39 476.95 391.28 497.18 391.28"
        />
        <path class="cls-1" d="M471.78,370.92l.09,18.61H383.05v-30.4c44-.44,64.76-34.3,67.27-38.72h21.46Z" />
        <rect class="cls-3" x="423.61" y="178.02" width="37.96" height="41.34" />
        <path class="cls-1" d="M459.84,271.42V304H427.27V271.42Zm-1.75,30.81V273.17H429v29.06Z" />
        <rect class="cls-1" x="429.02" y="273.17" width="29.07" height="29.06" />
        <rect class="cls-1" x="383.05" y="410.89" width="22.05" height="17.87" />
        <rect class="cls-1" x="383.05" y="391.28" width="22.05" height="17.87" />
        <path class="cls-1" d="M335.57,424.26h8a8.87,8.87,0,0,1-8,8.23Z" />
        <path class="cls-1" d="M343.53,443.29h-8v-8.22A8.86,8.86,0,0,1,343.53,443.29Z" />
        <polygon id="floor-1__room-2" class="ccl-c-floor__room cls-1" points="333.82 408.25 333.82 499.53 220.12 499.53 220.06 448.62 253.04 448.62 253.04 412.32 297.91 412.32 297.91 408.25 333.82 408.25"
        />
        <polygon class="cls-1" points="333.82 391.28 333.82 406.5 296.16 406.5 296.16 410.57 251.29 410.57 251.29 446.87 220.05 446.87 220.05 437.45 211.78 437.45 211.78 419.98 211.78 419.1 211.78 391.28 333.82 391.28"
        />
        <polygon class="cls-3" points="333.82 349.62 333.82 389.53 298.12 389.53 298.12 349.64 298.12 349.62 333.82 349.62"
        />
        <polygon class="cls-1" points="296.37 349.62 296.37 389.53 279.99 389.53 279.99 349.53 296.37 349.62" />
        <polygon id="floor-1__room-5" class="ccl-c-floor__room cls-1" points="296.37 302.77 296.37 347.88 191.04 347.27 191.04 347.26 167.41 347.26 167.41 302.77 296.37 302.77"
        />
        <polygon id="floor-1__room-4" class="ccl-c-floor__room cls-1" points="296.37 220.17 296.37 264.66 167.41 264.66 167.41 220.17 208.7 220.17 209.58 220.17 296.37 220.17"
        />
        <polygon id="floor-1__room-6" class="ccl-c-floor__room cls-1" points="296.37 178.02 296.37 202.74 209.58 202.74 209.58 178.02 219.24 178.02 220.12 178.02 296.37 178.02"
        />
        <rect id="floor-1__room-7" class="ccl-c-floor__room cls-1" x="220.12" y="86.87" width="76.25" height="59.52" />
        <path class="cls-1" d="M278.24,349.52v40H243v-9.15h-.58a10.05,10.05,0,0,0-10,9.15H211.78V349.13Z" />
        <path class="cls-1" d="M241.83,381.56v8H233.6A8.87,8.87,0,0,1,241.83,381.56Z" />
        <polygon class="cls-1" points="210.03 391.28 210.03 419.1 194.78 419.1 194.78 437.45 191.04 437.45 191.04 349.02 210.03 349.12 210.03 390.4 210.03 391.28"
        />
        <text class="cls-4" transform="translate(555.23 158.92) scale(0.7)">CENTRAL
            <tspan x="-10.51" y="42.86">ENTRANCE</tspan>
        </text>
        <text class="cls-4" transform="translate(477.31 415.35) scale(0.7)">SOUTH</text>
        <text class="cls-4" transform="translate(541.27 415.35)"> </text>
        <text class="cls-4" transform="translate(548.77 415.35) scale(0.7)">ENTRANCE</text>
        <line class="cls-5" x1="598.79" y1="195.72" x2="616.88" y2="273.17" />
        <line class="cls-5" x1="465.86" y1="407.39" x2="366.37" y2="385.55" />
        <path d="M916.45,266.44v18.12a1.15,1.15,0,0,1-1.14,1.17h-19a1.15,1.15,0,0,1-1.13-1.17V266.44a1.15,1.15,0,0,1,1.13-1.17h19A1.15,1.15,0,0,1,916.45,266.44Zm-1.16,17V267.48a1,1,0,0,0-1-1h-17a1,1,0,0,0-1,1v15.94a1,1,0,0,0,1,1h17A1,1,0,0,0,915.3,283.42Z"
        />
        <path d="M913.37,276.79s1,.05,0,1.09l-2.79,2.9a.68.68,0,0,1-1.06,0l-2.8-2.92-.12-.13c-.26-.29-.8-1,.12-1h6.64Z" />
        <path d="M913.29,273.11c.87.9,0,1.12,0,1.12h-6.48c-.12,0-1-.26,0-1.27l2.65-2.76h0l.05-.05a.62.62,0,0,1,1,.05h0l2.79,2.91Z"
        />
        <path class="cls-1" d="M910.5,270.2h0a.62.62,0,0,0-1-.05l-.05.05h0L906.82,273c-1,1-.13,1.24,0,1.27h6.48s.87-.21,0-1.12h0Zm4.8-2.72v15.94a1,1,0,0,1-1,1h-17a1,1,0,0,1-1-1V267.48a1,1,0,0,1,1-1h17A1,1,0,0,1,915.3,267.48Zm-1.92,10.41c1-1,0-1.09,0-1.09h-6.64c-.92,0-.39.7-.12,1l.12.13,2.8,2.92a.68.68,0,0,0,1.06,0Zm-8.89-1v-3.66a1.18,1.18,0,0,0-1.19-1.17h-4.07a1.18,1.18,0,0,0-1.19,1.17v3.66a1.18,1.18,0,0,0,1,1.15h0s.33,0,.39.44c.12.87.39,2.86.48,3.68.12,1,.75,1.07.75,1.07a3.15,3.15,0,0,0,1.29,0c.72-.15.79-1,.79-1l.45-3.8a.4.4,0,0,1,.32-.36h0A1.18,1.18,0,0,0,904.48,276.9ZM903,269.47a1.7,1.7,0,1,0-1.7,1.77A1.74,1.74,0,0,0,903,269.47Z"
        />
        <path d="M904.48,273.24v3.66a1.18,1.18,0,0,1-1,1.15h0a.4.4,0,0,0-.32.36l-.45,3.8s-.07.88-.79,1a3.15,3.15,0,0,1-1.29,0s-.63,0-.75-1.07c-.09-.81-.36-2.81-.48-3.68-.06-.43-.39-.44-.39-.44h0a1.18,1.18,0,0,1-1-1.15v-3.66a1.18,1.18,0,0,1,1.19-1.17h4.07A1.18,1.18,0,0,1,904.48,273.24Z"
        />
        <ellipse cx="901.31" cy="269.47" rx="1.7" ry="1.77" />
        <path d="M804.06,318.95v18.12a1.15,1.15,0,0,1-1.14,1.17h-19a1.15,1.15,0,0,1-1.13-1.17V318.95a1.15,1.15,0,0,1,1.13-1.17h19A1.15,1.15,0,0,1,804.06,318.95Zm-1.16,17V320a1,1,0,0,0-1-1h-17a1,1,0,0,0-1,1v15.94a1,1,0,0,0,1,1h17A1,1,0,0,0,802.9,335.93Z"
        />
        <path d="M801,329.3s1,.05,0,1.09l-2.79,2.9a.68.68,0,0,1-1.06,0l-2.8-2.92-.12-.13c-.26-.29-.8-1,.12-1H801Z" />
        <path d="M800.9,326.74h-6.48c-.12,0-1-.26,0-1.27l2.65-2.76h0l.05-.05a.62.62,0,0,1,1,.05h0l2.79,2.91h0C801.77,326.52,800.9,326.74,800.9,326.74Z"
        />
        <path class="cls-1" d="M797.08,322.71l-2.65,2.76c-1,1-.13,1.24,0,1.27h6.48s.87-.21,0-1.12h0l-2.79-2.91h0a.62.62,0,0,0-1-.05l-.05.05ZM802.9,320v15.94a1,1,0,0,1-1,1h-17a1,1,0,0,1-1-1V320a1,1,0,0,1,1-1h17A1,1,0,0,1,802.9,320ZM801,330.4c1-1,0-1.09,0-1.09h-6.64c-.92,0-.39.7-.12,1l.12.13,2.8,2.92a.68.68,0,0,0,1.06,0Zm-8.89-1v-3.66a1.18,1.18,0,0,0-1.19-1.17h-4.07a1.18,1.18,0,0,0-1.19,1.17v3.66a1.18,1.18,0,0,0,1,1.15h0s.33,0,.39.44c.12.87.39,2.86.48,3.68.12,1,.75,1.07.75,1.07a3.15,3.15,0,0,0,1.29,0c.72-.15.79-1,.79-1l.45-3.8a.4.4,0,0,1,.32-.36h0A1.18,1.18,0,0,0,792.09,329.41ZM790.62,322a1.7,1.7,0,1,0-1.7,1.77A1.74,1.74,0,0,0,790.62,322Z"
        />
        <path d="M792.09,325.75v3.66a1.18,1.18,0,0,1-1,1.15h0a.4.4,0,0,0-.32.36l-.45,3.8s-.07.88-.79,1a3.15,3.15,0,0,1-1.29,0s-.63,0-.75-1.07c-.09-.81-.36-2.81-.48-3.68-.06-.43-.39-.44-.39-.44h0a1.18,1.18,0,0,1-1-1.15v-3.66a1.18,1.18,0,0,1,1.19-1.17h4.07A1.18,1.18,0,0,1,792.09,325.75Z"
        />
        <ellipse cx="788.92" cy="321.98" rx="1.7" ry="1.77" />
        <path d="M714.76,260.89V279a1.15,1.15,0,0,1-1.14,1.17h-19a1.15,1.15,0,0,1-1.13-1.17V260.89a1.15,1.15,0,0,1,1.13-1.17h19A1.15,1.15,0,0,1,714.76,260.89Zm-1.16,17V261.93a1,1,0,0,0-1-1h-17a1,1,0,0,0-1,1v15.94a1,1,0,0,0,1,1h17A1,1,0,0,0,713.6,277.88Z"
        />
        <path d="M711.68,271.25s1,.05,0,1.09l-2.79,2.9a.68.68,0,0,1-1.06,0l-2.8-2.92-.12-.13c-.26-.29-.8-1,.12-1h6.64Z" />
        <path d="M711.6,267.56c.87.9,0,1.12,0,1.12h-6.48c-.12,0-1-.26,0-1.27l2.65-2.76h0l.05-.05a.62.62,0,0,1,1,.05h0l2.79,2.91Z"
        />
        <path class="cls-1" d="M708.8,264.65a.62.62,0,0,0-1-.05l-.05.05h0l-2.65,2.76c-1,1-.13,1.24,0,1.27h6.48s.87-.21,0-1.12h0l-2.79-2.91Zm4.8-2.72v15.94a1,1,0,0,1-1,1h-17a1,1,0,0,1-1-1V261.93a1,1,0,0,1,1-1h17A1,1,0,0,1,713.6,261.93Zm-1.92,10.41c1-1,0-1.09,0-1.09H705c-.92,0-.39.7-.12,1l.12.13,2.8,2.92a.68.68,0,0,0,1.06,0Zm-8.89-1V267.7a1.18,1.18,0,0,0-1.19-1.17h-4.07a1.18,1.18,0,0,0-1.19,1.17v3.66a1.18,1.18,0,0,0,1,1.15h0s.33,0,.39.44c.12.87.39,2.86.48,3.68.12,1,.75,1.07.75,1.07a3.15,3.15,0,0,0,1.29,0c.72-.15.79-1,.79-1l.45-3.8a.4.4,0,0,1,.32-.36h0A1.18,1.18,0,0,0,702.79,271.35Zm-1.47-7.43a1.7,1.7,0,1,0-1.7,1.77A1.74,1.74,0,0,0,701.32,263.92Z"
        />
        <path d="M702.79,267.7v3.66a1.18,1.18,0,0,1-1,1.15h0a.4.4,0,0,0-.32.36l-.45,3.8s-.07.88-.79,1a3.15,3.15,0,0,1-1.29,0s-.63,0-.75-1.07c-.09-.81-.36-2.81-.48-3.68-.06-.43-.39-.44-.39-.44h0a1.18,1.18,0,0,1-1-1.15V267.7a1.18,1.18,0,0,1,1.19-1.17h4.07A1.18,1.18,0,0,1,702.79,267.7Z"
        />
        <ellipse cx="699.61" cy="263.92" rx="1.7" ry="1.77" />
        <path d="M468.19,259.59v18.12a1.15,1.15,0,0,1-1.14,1.17H448a1.15,1.15,0,0,1-1.13-1.17V259.59a1.15,1.15,0,0,1,1.13-1.17h19A1.15,1.15,0,0,1,468.19,259.59Zm-1.16,17V260.64a1,1,0,0,0-1-1h-17a1,1,0,0,0-1,1v15.94a1,1,0,0,0,1,1h17A1,1,0,0,0,467,276.58Z"
        />
        <path class="cls-1" d="M467,260.64v15.94a1,1,0,0,1-1,1h-17a1,1,0,0,1-1-1V260.64a1,1,0,0,1,1-1h17A1,1,0,0,1,467,260.64ZM465.11,271c1-1,0-1.09,0-1.09h-6.64c-.92,0-.39.7-.12,1l.12.13,2.8,2.92a.68.68,0,0,0,1.06,0Zm-.08-3.66s.87-.21,0-1.12h0l-2.79-2.91h0a.62.62,0,0,0-1-.05l-.05.05h0l-2.65,2.76c-1,1-.13,1.24,0,1.27Zm-8.81,2.67V266.4a1.18,1.18,0,0,0-1.19-1.17H451a1.18,1.18,0,0,0-1.19,1.17v3.66a1.18,1.18,0,0,0,1,1.15h0s.33,0,.39.44c.12.87.39,2.86.48,3.68.12,1,.75,1.07.75,1.07a3.15,3.15,0,0,0,1.29,0c.72-.15.79-1,.79-1l.45-3.8a.4.4,0,0,1,.32-.36h0A1.18,1.18,0,0,0,456.22,270.05Zm-1.47-7.43a1.7,1.7,0,1,0-1.7,1.77A1.74,1.74,0,0,0,454.75,262.62Z"
        />
        <path d="M465.11,270s1,.05,0,1.09l-2.79,2.9a.68.68,0,0,1-1.06,0l-2.8-2.92-.12-.13c-.26-.29-.8-1,.12-1h6.64Z" />
        <path d="M465,266.27c.87.9,0,1.12,0,1.12h-6.48c-.12,0-1-.26,0-1.27l2.65-2.76h0l.05-.05a.62.62,0,0,1,1,.05h0l2.79,2.91Z"
        />
        <path d="M456.22,266.4v3.66a1.18,1.18,0,0,1-1,1.15h0a.4.4,0,0,0-.32.36l-.45,3.8s-.07.88-.79,1a3.15,3.15,0,0,1-1.29,0s-.63,0-.75-1.07c-.09-.81-.36-2.81-.48-3.68-.06-.43-.39-.44-.39-.44h0a1.18,1.18,0,0,1-1-1.15V266.4a1.18,1.18,0,0,1,1.19-1.17H455A1.18,1.18,0,0,1,456.22,266.4Z"
        />
        <ellipse cx="453.05" cy="262.62" rx="1.7" ry="1.77" />
        <use width="18.3" height="18.3" transform="translate(684.34 223.9)" xlink:href="#Staircase" />
        <use width="18.3" height="18.3" transform="translate(695.8 299.22)" xlink:href="#Staircase" />
        <use width="18.3" height="18.3" transform="translate(440.25 225.11)" xlink:href="#Staircase" />
        <use width="18.3" height="18.3" transform="translate(484.66 318.17)" xlink:href="#Staircase" />
        <use width="18.3" height="18.3" transform="translate(316.31 296.23)" xlink:href="#Staircase" />
        <use width="18.45" height="16.45" transform="translate(393.34 309.75) scale(1.4)" xlink:href="#Men_and_women_restroom"
        />
        <use width="18.3" height="18.3" transform="translate(868.43 266.35)" xlink:href="#Staircase" />
        <use width="18.3" height="18.3" transform="translate(924.43 266.35)" xlink:href="#Staircase" />
    </g>
</svg>