<svg xmlns="http://www.w3.org/2000/svg" xmlns:xlink="http://www.w3.org/1999/xlink" viewBox="0 0 1164.12 549.05"><defs><style>.cls-1{fill:#fff;}.cls-2{fill:#1c2b39;}.cls-3{font-size:25px;fill:#231f20;font-family:Gotham-Medium, Gotham;}.cls-4{letter-spacing:-0.04em;}</style><symbol id="Staircase" data-name="Staircase" viewBox="0 0 18.3 18.3"><rect class="cls-1" x="0.38" y="0.38" width="17.55" height="17.55"/><path d="M17.47,18.3H.83A.83.83,0,0,1,0,17.47V.83A.83.83,0,0,1,.83,0H17.47a.83.83,0,0,1,.83.83V17.47A.83.83,0,0,1,17.47,18.3ZM.83.76A.08.08,0,0,0,.76.83V17.47a.08.08,0,0,0,.08.08H17.47a.08.08,0,0,0,.08-.08V.83a.08.08,0,0,0-.08-.08Z"/><path d="M15.76,4.7H13.07a.75.75,0,0,0-.75.75V7.38H10.38a.75.75,0,0,0-.75.75v1.94H7.7a.75.75,0,0,0-.75.75v2h-2a.75.75,0,0,0-.75.75v1.56a.75.75,0,0,0,.75.75H15.76a.75.75,0,0,0,.75-.75V5.45a.75.75,0,0,0-.75-.75Zm0,0"/><path d="M11.82,2.55a.5.5,0,0,0-.7,0c-3.2,3.11-6.24,6.15-9.17,9.09A.5.5,0,0,0,1.8,12v3.41a.5.5,0,1,0,1,0v-3.2c2.89-2.89,5.88-5.88,9-8.94a.5.5,0,0,0,0-.7Zm0,0"/></symbol><symbol id="Men_and_women_restroom" data-name="Men and women restroom" viewBox="0 0 18.45 16.45"><rect class="cls-1" x="0.35" y="0.35" width="17.75" height="15.75" rx="0.77" ry="0.77"/><path d="M17.32.7a.42.42,0,0,1,.42.42v14.2a.42.42,0,0,1-.42.42H1.13a.42.42,0,0,1-.42-.42V1.13A.42.42,0,0,1,1.13.7h16.2m0-.7H1.13A1.13,1.13,0,0,0,0,1.13v14.2a1.13,1.13,0,0,0,1.13,1.13h16.2a1.13,1.13,0,0,0,1.13-1.13V1.13A1.13,1.13,0,0,0,17.32,0Z"/><path d="M6.25,4.09H3.39A1.26,1.26,0,0,0,2.14,5.34l0,3.9a.53.53,0,0,0,.53.53h0a.53.53,0,0,0,.53-.53l0-3.9h0a.11.11,0,0,1,.21,0v8.92a.64.64,0,1,0,1.27,0V9.18H5v5.09a.64.64,0,1,0,1.27,0c0-8.42,0-3.6,0-8.92a.11.11,0,0,1,.22,0h0v3.9A.53.53,0,0,0,7,9.78H7a.53.53,0,0,0,.53-.53V5.35h0A1.26,1.26,0,0,0,6.25,4.09Zm0,0"/><path d="M5.92,2.64a1.1,1.1,0,1,1-1.1-1.1,1.1,1.1,0,0,1,1.1,1.1Zm0,0"/><path d="M16.51,8.42,15.38,5.2c-.24-.71-.65-1.07-1.22-1.07H12.33c-.56,0-1,.36-1.22,1.07L10,8.42a.53.53,0,1,0,1,.35c0-.09.61-1.7.94-2.63,0,.28.06-.3-.75,3.92a.29.29,0,0,0,.29.35h.4v3.82a.63.63,0,1,0,1.26,0V10.41h.27v3.82a.63.63,0,0,0,1.26,0V10.41h.4a.29.29,0,0,0,.29-.35c-.81-4.18-.72-3.69-.75-3.92l.92,2.63a.53.53,0,0,0,1-.35Zm0,0"/><path d="M14.34,2.68a1.09,1.09,0,1,1-1.09-1.09,1.09,1.09,0,0,1,1.09,1.09Zm0,0"/><path d="M9.33,2.25a.41.41,0,0,0-.41.41V13.79a.41.41,0,1,0,.81,0V2.66a.41.41,0,0,0-.41-.41Zm0,0"/></symbol></defs><title>level-3_1</title><g id="text_and_icons" data-name="text and icons"><path class="cls-2" d="M1010.22,353.9v77.19H774.91v87a23.24,23.24,0,1,1-46.48,0v-4H698.49V382.57l-10.62.06V340.28H632.15V329H578.84v11.25H563.27v-2.42h-1.76V336.8l-42.67,0v42.29H510.7V512.21H230.13V379.07h-8.32V336.73l-44.38,0v-129H219.6v-43.1h10.53V37.54h75.5l-.11,42.27H433.74L433.63,38h75.56V164.6h9.65v43.15h42.67v-1.12h1.76v-2.42h15.57v8.92h53.24l.08-8.92h55.71V161.67h10.62V34.44h29.94V31a23.24,23.24,0,1,1,46.48,0V133h235.27v76.48H976.57v4.13h-4.38V349.46h4.38v4.44Zm-1.54,75.31V355.53h-31.9v73.68Zm0-221.61v-73H977.4l-.09,41.71V207.6Zm-33.08-32.14.09-40.83H775.12v50.5l83,.39v8H962.72V175.46Zm0,32.14V177.21H964.47v18.07H856.34v-8l-2.72,0v9.44H853a10,10,0,0,1-10-9.48l-67.92-.31v5.37h0L774.84,213H970.65v-1.27H975V207.6ZM975,429.21v-44H963.28l.05-19.06H911.81v7H894.59v56.06Zm0-45.77V351.07H894.59V371.4H901a10,10,0,0,1,10-9.27h.58v2.25h53.54l0,19.06Zm-4.38-34.1V214.75h-13.8v2.38h10.86V345.8H956.85v3.54ZM966,344.05V218.88H955.1v-4.13h-9.15v4.13H866.09V344.05h79.77v5.29h9.24v-5.29Zm-55.58,20.33v-1.06a8.86,8.86,0,0,0-8.23,8.08h7.91v-7Zm-17.54,64.83V373.15H848.78v56.06Zm0-57.81V351.07H807.58V214.75H773.07l.29-22.5h-45.1V56.31h45.11V30.84a21.49,21.49,0,0,0-43,0v5.23H700.44V161.55h17.4v44.27H634.1l-.08,8.93H579v112.4h55V338.4h83.17v44H700.44V512.21h29.95V518a21.49,21.49,0,1,0,43,0V488.3H728.26V363.21h46.86V393.3H847v-7.84a10,10,0,0,1-9.16-10v-.58H847v-3.5h30.26v-9.17h.58a10,10,0,0,1,10,9.17Zm-14.39,0h8.23a8.85,8.85,0,0,0-8.23-8Zm-26-175.9v-8.27h-8.26A8.9,8.9,0,0,0,852.45,195.5ZM847,429.21V395.05H833.36a10,10,0,0,1-10,9.14h-.59v-9.14H805v34.16Zm0-44.9v-8.24h-8A8.9,8.9,0,0,0,847,384.31Zm-14.84,10.74H824v8A8.88,8.88,0,0,0,832.19,395.05Zm-29,34.16V395.05h-28.1v34.16Zm-29.85,57.34V365H730V486.55Zm0-296V58.06H730V190.5Zm-57.28,13.57V163.3H689.83v40.77Zm-.57,176.62V340.15H689.83v40.6l9.74-.06h15.95ZM577.3,338.4V205.82H565.23v2.43h-1.76v1.13H408.21v7.46h-.5a8.15,8.15,0,0,1-8.1-7.46H179.39V334.84l384.08.08V336h1.76v2.42Zm-60,38.79V336.65H462.39v40.54Zm0-169.56v-41.4h-8.78l-34.34,0v41.38H483a10,10,0,0,1,10-9.53h.58v9.53Zm-8.14,302.71V426.85H476.08V378.94h-244v131.4Zm0-85.24V378.94H477.83V425.1Zm-1.51-260.62V39.61H435.6l.11,41.83h0v83.1Zm-15.22,43.06v-8.25a8.87,8.87,0,0,0-8.26,8.25Zm-20,.09V166.25l-36.73,0v41.34ZM460.64,377.19V336.65l-36.83,0v40.56ZM433.95,207.63V81.44H305.73v83.1H393.5v1.75h0v41.34ZM422.06,377.19V336.63H409.81v7.65h-.5a8.14,8.14,0,0,1-8.1-7.65h-8.7v40.56Zm-13.25-33.94v-6.6H402.2A7.13,7.13,0,0,0,408.81,343.25Zm-1.6-127.43v-6.44h-6.59A7.14,7.14,0,0,0,407.21,215.82Zm-15.47-8.19V166.29H349.32v41.34h15a10,10,0,0,1,10-9.53h.58v9.53Zm-1,169.56V336.63l-42.62,0v40.58ZM373.7,207.54v-8.25a8.86,8.86,0,0,0-8.25,8.25Zm-26.13.09V166.29H324.38a10.06,10.06,0,0,1-10,9.15h-.58v-9.15H265v41.34Zm-1.16,169.56V336.61H310.09v40.58ZM323.2,166.29H315v8A8.88,8.88,0,0,0,323.2,166.29Zm-14.86,210.9V336.61H223.76v40.59ZM304,81.44l.1-42.27h-72V164.54H304V81.44Zm-40.7,126.19V166.29H221.56v41.34H236a10,10,0,0,1,10-9.53h.58v9.53Zm-17.88-.09v-8.25a8.86,8.86,0,0,0-8.25,8.25Z"/><polygon class="cls-1" points="1008.68 355.53 1008.68 429.21 976.78 429.21 976.78 385.19 976.78 384.32 976.78 355.53 1008.68 355.53"/><polygon class="cls-1" points="1008.64 134.63 1008.64 207.6 977.31 207.6 977.31 176.34 977.4 134.63 1008.64 134.63"/><polygon class="cls-1" points="975.65 134.63 975.56 175.46 962.72 175.46 962.72 193.53 858.09 193.53 858.09 185.52 775.12 185.13 775.12 134.63 975.65 134.63"/><path class="cls-1" d="M975.56,177.21V207.6H975v4.13h-4.38V213H774.84l.27-20.75h0v-5.37l67.92.31a10,10,0,0,0,10,9.48h.59v-1.39H964.47V177.21Z"/><polygon class="cls-1" points="975.03 385.19 975.03 429.21 894.59 429.21 894.59 373.15 911.81 373.15 911.81 366.13 963.33 366.13 963.28 385.19 975.03 385.19"/><path class="cls-1" d="M975,355.53v27.91H965l0-19.06H911.55v-2.25H911a10,10,0,0,0-10,9.27h-6.39V351.07H975v4.46Z"/><polygon class="cls-1" points="970.65 214.75 970.65 349.34 956.85 349.34 956.85 345.8 967.71 345.8 967.71 217.13 956.85 217.13 956.85 214.75 970.65 214.75"/><polygon class="cls-1" points="965.96 218.88 965.96 344.05 955.1 344.05 955.1 349.34 945.86 349.34 945.86 344.05 866.09 344.05 866.09 218.88 945.95 218.88 945.95 214.75 955.1 214.75 955.1 218.88 965.96 218.88"/><path class="cls-1" d="M910.38,363.32v1.06h-.32v7h-7.91A8.86,8.86,0,0,1,910.38,363.32Z"/><polygon class="cls-1" points="892.84 373.15 892.84 429.21 848.78 429.21 848.78 395.05 848.78 394.17 848.78 373.15 892.84 373.15"/><path class="cls-1" d="M892.84,351.07V371.4h-5a10,10,0,0,0-10-9.17h-.58v9.17H847v3.5h-9.16v.58a10,10,0,0,0,9.16,10v7.84H775.12V363.21H728.26V488.3h45.11V518a21.49,21.49,0,1,1-43,0v-5.75H700.44V382.44h16.83v-44H634.1V327.15H579V214.75h55l.08-8.93h83.74V161.55h-17.4V36.07h29.95V30.84a21.49,21.49,0,0,1,43,0V56.31H728.26V192.25h45.1l-.29,22.5h34.51V351.07Z"/><path class="cls-1" d="M886.68,371.4h-8.23v-8A8.85,8.85,0,0,1,886.68,371.4Z"/><polygon class="cls-1" points="856.34 187.25 856.34 195.28 853.62 195.28 853.62 187.23 856.34 187.25"/><path class="cls-1" d="M852.45,187.23v8.27a8.9,8.9,0,0,1-8.26-8.27h8.26Z"/><path class="cls-1" d="M847,395.05v34.16H805V395.05h17.83v9.14h.59a10,10,0,0,0,10-9.14Z"/><path class="cls-1" d="M847,376.07v8.24a8.9,8.9,0,0,1-8-8.24Z"/><path class="cls-1" d="M824,395.05h8.23a8.88,8.88,0,0,1-8.23,8Z"/><rect class="cls-1" x="775.12" y="395.05" width="28.1" height="34.16"/><polygon class="cls-1" points="773.37 430.09 773.37 486.55 730.01 486.55 730.01 364.96 773.37 364.96 773.37 429.21 773.37 430.09"/><polygon class="cls-1" points="773.37 134.63 773.37 190.5 730.01 190.5 730.01 58.06 773.37 58.06 773.37 133.75 773.37 134.63"/><polygon class="cls-1" points="716.09 163.3 716.09 204.07 689.83 204.07 689.83 163.3 699.57 163.3 700.44 163.3 716.09 163.3"/><polygon class="cls-1" points="715.52 340.15 715.52 380.69 700.44 380.69 699.58 380.69 699.57 380.69 689.83 380.75 689.83 340.15 715.52 340.15"/><path class="cls-1" d="M577.3,328.9v9.5H565.23V336h-1.76v-1.06l-384.08-.08V209.38H399.61a8.15,8.15,0,0,0,8.1,7.46h.5v-7.46H563.47v-1.13h1.76v-2.43H577.3V328.9Z"/><rect class="cls-1" x="462.39" y="336.65" width="54.91" height="40.54"/><path class="cls-1" d="M517.3,166.23v41.4H493.59V198.1H493a10,10,0,0,0-10,9.53h-8.83V166.25l34.34,0Z"/><polygon class="cls-1" points="509.16 426.85 509.16 510.34 232.09 510.34 232.09 378.94 476.08 378.94 476.08 426.85 509.16 426.85"/><rect class="cls-1" x="477.83" y="378.94" width="31.33" height="46.16"/><polygon class="cls-1" points="507.65 39.61 507.65 164.48 435.7 164.54 435.7 81.44 435.71 81.44 435.6 39.61 507.65 39.61"/><path class="cls-1" d="M492.43,199.29v8.25h-8.26A8.87,8.87,0,0,1,492.43,199.29Z"/><polygon class="cls-1" points="472.43 166.25 472.43 207.63 435.7 207.63 435.7 166.29 472.43 166.25"/><polygon class="cls-1" points="460.64 336.65 460.64 377.19 423.81 377.19 423.81 336.63 460.64 336.65"/><polygon class="cls-1" points="433.95 166.29 433.95 207.63 393.49 207.63 393.49 166.29 393.5 166.29 393.5 164.54 305.73 164.54 305.73 81.44 433.95 81.44 433.95 164.54 433.95 166.29"/><path class="cls-1" d="M422.06,336.63v40.56H392.51V336.63h8.7a8.14,8.14,0,0,0,8.1,7.65h.5v-7.65Z"/><path class="cls-1" d="M408.81,336.65v6.6a7.13,7.13,0,0,1-6.61-6.6Z"/><path class="cls-1" d="M407.21,209.38v6.44a7.14,7.14,0,0,1-6.59-6.44Z"/><path class="cls-1" d="M391.74,166.29v41.34H374.87V198.1h-.58a10,10,0,0,0-10,9.53h-15V166.29Z"/><polygon class="cls-1" points="390.77 336.63 390.77 377.19 348.15 377.19 348.15 336.61 390.77 336.63"/><path class="cls-1" d="M373.7,199.29v8.25h-8.25A8.86,8.86,0,0,1,373.7,199.29Z"/><path class="cls-1" d="M347.57,166.29v41.34H265V166.29H313.8v9.15h.58a10.06,10.06,0,0,0,10-9.15Z"/><rect class="cls-1" x="310.09" y="336.61" width="36.32" height="40.58"/><path class="cls-1" d="M315,166.29h8.23a8.88,8.88,0,0,1-8.23,8Z"/><polygon class="cls-1" points="308.34 336.61 308.34 377.19 223.76 377.19 223.76 336.6 308.34 336.61"/><polygon class="cls-1" points="304.07 39.17 303.97 81.44 303.98 81.44 303.98 164.54 232.09 164.54 232.09 39.17 304.07 39.17"/><path class="cls-1" d="M263.27,166.29v41.34H246.56V198.1H246a10,10,0,0,0-10,9.53H221.56V166.29h41.71Z"/><path class="cls-1" d="M245.39,199.29v8.25h-8.25A8.86,8.86,0,0,1,245.39,199.29Z"/><text class="cls-3" transform="translate(544.69 156.27)">3</text><text class="cls-3" transform="translate(560.14 156.27) scale(0.7)">ND</text><text class="cls-3" transform="translate(587.65 156.27)"> </text><text class="cls-3" transform="translate(595.15 156.27) scale(0.7)">F<tspan class="cls-4" x="16.4" y="0">L</tspan><tspan x="30.88" y="0">OOR</tspan></text><text class="cls-3" transform="translate(659.16 156.27)"> </text><text class="cls-3" transform="translate(566.94 186.27) scale(0.7)">BRIDGE</text><path d="M477.55,252.54v18.12a1.15,1.15,0,0,1-1.14,1.17h-19a1.15,1.15,0,0,1-1.14-1.17V252.54a1.15,1.15,0,0,1,1.14-1.17h19A1.15,1.15,0,0,1,477.55,252.54Zm-1.16,17V253.58a1,1,0,0,0-1-1h-17a1,1,0,0,0-1,1v15.94a1,1,0,0,0,1,1h17A1,1,0,0,0,476.39,269.52Z"/><path class="cls-1" d="M476.39,253.58v15.94a1,1,0,0,1-1,1h-17a1,1,0,0,1-1-1V253.58a1,1,0,0,1,1-1h17A1,1,0,0,1,476.39,253.58ZM474.47,264c1-1,0-1.09,0-1.09h-6.64c-.92,0-.39.69-.12,1l.12.13,2.8,2.92a.68.68,0,0,0,1.06,0Zm-.08-3.66s.87-.21,0-1.12h0l-2.79-2.91h0a.62.62,0,0,0-1-.05l-.05.05h0l-2.65,2.76c-1,1-.13,1.24,0,1.27ZM465.58,263v-3.66a1.18,1.18,0,0,0-1.19-1.17h-4.07a1.18,1.18,0,0,0-1.19,1.17V263a1.18,1.18,0,0,0,1,1.15h0s.33,0,.39.44c.12.87.39,2.86.48,3.68.12,1,.75,1.07.75,1.07a3.15,3.15,0,0,0,1.29,0c.72-.15.79-1,.79-1l.45-3.8a.4.4,0,0,1,.32-.36h0A1.18,1.18,0,0,0,465.58,263Zm-1.47-7.43a1.7,1.7,0,1,0-1.7,1.77A1.74,1.74,0,0,0,464.11,255.57Z"/><path d="M474.47,262.89s1,.05,0,1.09l-2.79,2.9a.68.68,0,0,1-1.06,0l-2.8-2.92-.12-.13c-.26-.29-.8-1,.12-1h6.64Z"/><path d="M474.39,259.21c.87.9,0,1.12,0,1.12H467.9c-.12,0-1-.26,0-1.27l2.65-2.76h0l.05-.05a.62.62,0,0,1,1,.05h0l2.79,2.91Z"/><path d="M465.58,259.34V263a1.18,1.18,0,0,1-1,1.15h0a.4.4,0,0,0-.32.36l-.45,3.8s-.07.88-.79,1a3.15,3.15,0,0,1-1.29,0s-.63,0-.75-1.07c-.09-.81-.36-2.81-.48-3.68-.06-.43-.39-.44-.39-.44h0a1.18,1.18,0,0,1-1-1.15v-3.66a1.18,1.18,0,0,1,1.19-1.17h4.07A1.18,1.18,0,0,1,465.58,259.34Z"/><ellipse cx="462.4" cy="255.57" rx="1.7" ry="1.77"/><path d="M724.11,253.54v18.12a1.15,1.15,0,0,1-1.14,1.17H704a1.15,1.15,0,0,1-1.14-1.17V253.54a1.15,1.15,0,0,1,1.14-1.17h19A1.15,1.15,0,0,1,724.11,253.54Zm-1.16,17V254.58a1,1,0,0,0-1-1H705a1,1,0,0,0-1,1v15.94a1,1,0,0,0,1,1h17A1,1,0,0,0,723,270.52Z"/><path class="cls-1" d="M723,254.58v15.94a1,1,0,0,1-1,1H705a1,1,0,0,1-1-1V254.58a1,1,0,0,1,1-1h17A1,1,0,0,1,723,254.58ZM721,265c1-1,0-1.09,0-1.09h-6.64c-.92,0-.39.69-.12,1l.12.13,2.8,2.92a.68.68,0,0,0,1.06,0Zm-.08-3.66s.87-.21,0-1.12h0l-2.79-2.91h0a.62.62,0,0,0-1-.05l-.05.05h0l-2.65,2.76c-1,1-.13,1.24,0,1.27ZM712.14,264v-3.66a1.18,1.18,0,0,0-1.19-1.17h-4.07a1.18,1.18,0,0,0-1.19,1.17V264a1.18,1.18,0,0,0,1,1.15h0s.33,0,.39.44c.12.87.39,2.86.48,3.68.12,1,.75,1.07.75,1.07a3.15,3.15,0,0,0,1.29,0c.72-.15.79-1,.79-1l.45-3.8a.4.4,0,0,1,.32-.36h0A1.18,1.18,0,0,0,712.14,264Zm-1.47-7.43a1.7,1.7,0,1,0-1.7,1.77A1.74,1.74,0,0,0,710.67,256.57Z"/><path d="M721,263.89s1,.05,0,1.09l-2.79,2.9a.68.68,0,0,1-1.06,0l-2.8-2.92-.12-.13c-.26-.29-.8-1,.12-1H721Z"/><path d="M721,260.21c.87.9,0,1.12,0,1.12h-6.48c-.12,0-1-.26,0-1.27l2.65-2.76h0l.05-.05a.62.62,0,0,1,1,.05h0l2.79,2.91Z"/><path d="M712.14,260.34V264a1.18,1.18,0,0,1-1,1.15h0a.4.4,0,0,0-.32.36l-.45,3.8s-.07.88-.79,1a3.15,3.15,0,0,1-1.29,0s-.63,0-.75-1.07c-.09-.81-.36-2.81-.48-3.68-.06-.43-.39-.44-.39-.44h0a1.18,1.18,0,0,1-1-1.15v-3.66a1.18,1.18,0,0,1,1.19-1.17H711A1.18,1.18,0,0,1,712.14,260.34Z"/><ellipse cx="708.97" cy="256.57" rx="1.7" ry="1.77"/><path d="M925.81,264.34v18.12a1.15,1.15,0,0,1-1.14,1.17h-19a1.15,1.15,0,0,1-1.14-1.17V264.34a1.15,1.15,0,0,1,1.14-1.17h19A1.15,1.15,0,0,1,925.81,264.34Zm-1.16,17V265.38a1,1,0,0,0-1-1h-17a1,1,0,0,0-1,1v15.94a1,1,0,0,0,1,1h17A1,1,0,0,0,924.65,281.33Z"/><path class="cls-1" d="M924.65,265.38v15.94a1,1,0,0,1-1,1h-17a1,1,0,0,1-1-1V265.38a1,1,0,0,1,1-1h17A1,1,0,0,1,924.65,265.38Zm-1.92,10.41c1-1,0-1.09,0-1.09h-6.64c-.92,0-.39.69-.12,1l.12.13,2.8,2.92a.68.68,0,0,0,1.06,0Zm-.08-3.66s.87-.21,0-1.12h0l-2.79-2.91h0a.62.62,0,0,0-1-.05l-.05.05h0l-2.65,2.76c-1,1-.13,1.24,0,1.27Zm-8.81,2.67v-3.66a1.18,1.18,0,0,0-1.19-1.17h-4.07a1.18,1.18,0,0,0-1.19,1.17v3.66a1.18,1.18,0,0,0,1,1.15h0s.33,0,.39.44c.12.87.39,2.86.48,3.68.12,1,.75,1.07.75,1.07a3.15,3.15,0,0,0,1.29,0c.72-.15.79-1,.79-1l.45-3.8a.4.4,0,0,1,.32-.36h0A1.18,1.18,0,0,0,913.84,274.8Zm-1.47-7.43a1.7,1.7,0,1,0-1.7,1.77A1.74,1.74,0,0,0,912.37,267.37Z"/><path d="M922.73,274.69s1,.05,0,1.09l-2.79,2.9a.68.68,0,0,1-1.06,0l-2.8-2.92-.12-.13c-.26-.29-.8-1,.12-1h6.64Z"/><path d="M922.65,271c.87.9,0,1.12,0,1.12h-6.48c-.12,0-1-.26,0-1.27l2.65-2.76h0l.05-.05a.62.62,0,0,1,1,.05h0l2.79,2.91Z"/><path d="M913.84,271.14v3.66a1.18,1.18,0,0,1-1,1.15h0a.4.4,0,0,0-.32.36l-.45,3.8s-.07.88-.79,1a3.15,3.15,0,0,1-1.29,0s-.63,0-.75-1.07c-.09-.81-.36-2.81-.48-3.68-.06-.43-.39-.44-.39-.44h0a1.18,1.18,0,0,1-1-1.15v-3.66a1.18,1.18,0,0,1,1.19-1.17h4.07A1.18,1.18,0,0,1,913.84,271.14Z"/><ellipse cx="910.66" cy="267.37" rx="1.7" ry="1.77"/><path d="M814.42,312.7v18.12a1.15,1.15,0,0,1-1.14,1.17h-19a1.15,1.15,0,0,1-1.14-1.17V312.7a1.15,1.15,0,0,1,1.14-1.17h19A1.15,1.15,0,0,1,814.42,312.7Zm-1.16,17V313.74a1,1,0,0,0-1-1h-17a1,1,0,0,0-1,1v15.94a1,1,0,0,0,1,1h17A1,1,0,0,0,813.26,329.69Z"/><path class="cls-1" d="M813.26,313.74v15.94a1,1,0,0,1-1,1h-17a1,1,0,0,1-1-1V313.74a1,1,0,0,1,1-1h17A1,1,0,0,1,813.26,313.74Zm-1.92,10.41c1-1,0-1.09,0-1.09H804.7c-.92,0-.39.69-.12,1l.12.13,2.8,2.92a.68.68,0,0,0,1.06,0Zm-.08-3.66s.87-.21,0-1.12h0l-2.79-2.91h0a.62.62,0,0,0-1-.05l-.05.05h0l-2.65,2.76c-1,1-.13,1.24,0,1.27Zm-8.81,2.67V319.5a1.18,1.18,0,0,0-1.19-1.17h-4.07A1.18,1.18,0,0,0,796,319.5v3.66a1.18,1.18,0,0,0,1,1.15h0s.33,0,.39.44c.12.87.39,2.86.48,3.68.12,1,.75,1.07.75,1.07a3.15,3.15,0,0,0,1.29,0c.72-.15.79-1,.79-1l.45-3.8a.4.4,0,0,1,.32-.36h0A1.18,1.18,0,0,0,802.45,323.16ZM801,315.73a1.7,1.7,0,1,0-1.7,1.77A1.74,1.74,0,0,0,801,315.73Z"/><path d="M811.34,323.06s1,.05,0,1.09l-2.79,2.9a.68.68,0,0,1-1.06,0l-2.8-2.92-.12-.13c-.26-.29-.8-1,.12-1h6.64Z"/><path d="M811.26,319.37c.87.9,0,1.12,0,1.12h-6.48c-.12,0-1-.26,0-1.27l2.65-2.76h0l.05-.05a.62.62,0,0,1,1,.05h0l2.79,2.91Z"/><path d="M802.45,319.5v3.66a1.18,1.18,0,0,1-1,1.15h0a.4.4,0,0,0-.32.36l-.45,3.8s-.07.88-.79,1a3.15,3.15,0,0,1-1.29,0s-.63,0-.75-1.07c-.09-.81-.36-2.81-.48-3.68-.06-.43-.39-.44-.39-.44h0a1.18,1.18,0,0,1-1-1.15V319.5a1.18,1.18,0,0,1,1.19-1.17h4.07A1.18,1.18,0,0,1,802.45,319.5Z"/><ellipse cx="799.27" cy="315.73" rx="1.7" ry="1.77"/><use width="18.3" height="18.3" transform="translate(692.69 218.01)" xlink:href="#Staircase"/><use width="18.3" height="18.3" transform="translate(702.16 292.55)" xlink:href="#Staircase"/><use width="18.3" height="18.3" transform="translate(496.02 312.34)" xlink:href="#Staircase"/><use width="18.3" height="18.3" transform="translate(328.66 292.4)" xlink:href="#Staircase"/><use width="18.3" height="18.3" transform="translate(452.31 220.02)" xlink:href="#Staircase"/><use width="18.45" height="16.45" transform="translate(435.94 287.15) scale(1.4)" xlink:href="#Men_and_women_restroom"/><use width="18.3" height="18.3" transform="translate(877.79 264.25)" xlink:href="#Staircase"/><use width="18.3" height="18.3" transform="translate(933.79 264.25)" xlink:href="#Staircase"/></g></svg>