<svg xmlns="http://www.w3.org/2000/svg" xmlns:xlink="http://www.w3.org/1999/xlink" viewBox="0 0 1164.12 549.05"><defs><style>.cls-1{fill:#fff;}.cls-2{fill:#1c2b39;}.cls-3,.cls-6{fill:#231f20;}.cls-10,.cls-4{fill:none;}.cls-5{fill:#bdc0c7;}.cls-6{font-size:25px;font-family:Gotham-Medium, Gotham;}.cls-7{letter-spacing:0em;}.cls-8{letter-spacing:-0.04em;}.cls-9{letter-spacing:-0.02em;}.cls-10{stroke:#1c2b39;stroke-width:2px;}</style><symbol id="elevator" data-name="elevator" viewBox="0 0 21.29 20.45"><path d="M21.29,1.17V19.28a1.15,1.15,0,0,1-1.14,1.17h-19A1.15,1.15,0,0,1,0,19.28V1.17A1.15,1.15,0,0,1,1.14,0h19A1.15,1.15,0,0,1,21.29,1.17Zm-1.16,17V2.21a1,1,0,0,0-1-1h-17a1,1,0,0,0-1,1V18.15a1,1,0,0,0,1,1h17A1,1,0,0,0,20.13,18.15Z"/><path class="cls-1" d="M20.13,2.21V18.15a1,1,0,0,1-1,1h-17a1,1,0,0,1-1-1V2.21a1,1,0,0,1,1-1h17A1,1,0,0,1,20.13,2.21ZM18.21,12.62c1-1,0-1.09,0-1.1H11.57c-.92,0-.39.69-.12,1l.12.13,2.8,2.92a.68.68,0,0,0,1.06,0ZM18.13,9s.87-.21,0-1.12h0L15.33,4.92h0a.62.62,0,0,0-1-.05l-.05.05h0L11.66,7.69c-1,1-.13,1.24,0,1.27ZM9.32,11.63V8A1.18,1.18,0,0,0,8.13,6.8H4.05A1.18,1.18,0,0,0,2.87,8v3.66a1.18,1.18,0,0,0,1,1.15h0s.33,0,.39.44c.12.87.39,2.86.48,3.68.12,1,.75,1.07.75,1.07a3.15,3.15,0,0,0,1.29,0c.72-.15.79-1,.79-1L8,13.14a.4.4,0,0,1,.32-.36h0A1.18,1.18,0,0,0,9.32,11.63ZM7.84,4.2a1.74,1.74,0,0,0-1.7-1.77A1.74,1.74,0,0,0,4.44,4.2,1.74,1.74,0,0,0,6.14,6,1.74,1.74,0,0,0,7.84,4.2Z"/><path d="M18.21,11.52s1,.05,0,1.1l-2.79,2.9a.68.68,0,0,1-1.06,0l-2.8-2.92-.12-.13c-.26-.29-.8-1,.12-1h6.64Z"/><path d="M18.13,7.84c.87.9,0,1.12,0,1.12H11.64c-.12,0-1-.26,0-1.27l2.65-2.76h0l.05-.05a.62.62,0,0,1,1,.05h0l2.79,2.91Z"/><path d="M9.32,8v3.66a1.18,1.18,0,0,1-1,1.15h0a.4.4,0,0,0-.32.36l-.45,3.8s-.07.88-.79,1a3.15,3.15,0,0,1-1.29,0s-.63,0-.75-1.07c-.09-.81-.36-2.81-.48-3.68-.06-.43-.39-.44-.39-.44h0a1.18,1.18,0,0,1-1-1.15V8A1.18,1.18,0,0,1,4.05,6.8H8.13A1.18,1.18,0,0,1,9.32,8Z"/><ellipse cx="6.14" cy="4.2" rx="1.7" ry="1.77"/></symbol><symbol id="Staircase" data-name="Staircase" viewBox="0 0 18.3 18.3"><rect class="cls-1" x="0.38" y="0.38" width="17.55" height="17.55"/><path d="M17.47,18.3H.83A.83.83,0,0,1,0,17.47V.83A.83.83,0,0,1,.83,0H17.47a.83.83,0,0,1,.83.83V17.47A.83.83,0,0,1,17.47,18.3ZM.83.76A.08.08,0,0,0,.76.83V17.47a.08.08,0,0,0,.08.08H17.47a.08.08,0,0,0,.08-.08V.83a.08.08,0,0,0-.08-.08Z"/><path d="M15.76,4.7H13.07a.75.75,0,0,0-.75.75V7.38H10.38a.75.75,0,0,0-.75.75v1.94H7.7a.75.75,0,0,0-.75.75v2h-2a.75.75,0,0,0-.75.75v1.56a.75.75,0,0,0,.75.75H15.76a.75.75,0,0,0,.75-.75V5.45a.75.75,0,0,0-.75-.75Zm0,0"/><path d="M11.82,2.55a.5.5,0,0,0-.7,0c-3.2,3.11-6.24,6.15-9.17,9.09A.5.5,0,0,0,1.8,12v3.41a.5.5,0,1,0,1,0v-3.2c2.89-2.89,5.88-5.88,9-8.94a.5.5,0,0,0,0-.7Zm0,0"/></symbol><symbol id="mens_restroom" data-name="mens restroom" viewBox="0 0 12.7 24.06"><rect class="cls-1" x="0.5" y="0.5" width="11.69" height="23.05" rx="1.11" ry="1.11"/><path d="M11.09,1a.61.61,0,0,1,.6.6V22.44a.61.61,0,0,1-.6.6H1.61a.61.61,0,0,1-.6-.6V1.61a.61.61,0,0,1,.6-.6h9.48m0-1H1.61A1.61,1.61,0,0,0,0,1.61V22.44a1.61,1.61,0,0,0,1.61,1.61h9.48a1.61,1.61,0,0,0,1.61-1.61V1.61A1.61,1.61,0,0,0,11.09,0Z"/><path class="cls-3" d="M8.3,6.41H4.42a1.71,1.71,0,0,0-1.71,1.7l0,5.3a.72.72,0,0,0,.72.73h0a.72.72,0,0,0,.72-.72l0-5.3h0a.14.14,0,0,1,.29,0V20.25a.87.87,0,1,0,1.73,0V13.33h.37v6.92a.87.87,0,1,0,1.73,0c0-11.45,0-4.9,0-12.12a.15.15,0,0,1,.3,0h0v5.3a.72.72,0,0,0,.72.72h0a.72.72,0,0,0,.72-.72V8.11h0A1.71,1.71,0,0,0,8.3,6.41Zm0,0"/><path class="cls-3" d="M7.86,4.44a1.5,1.5,0,1,1-1.5-1.5,1.5,1.5,0,0,1,1.5,1.5Zm0,0"/></symbol><symbol id="womens_restroom" data-name="womens restroom" viewBox="0 0 12.7 24.06"><rect class="cls-1" x="0.5" y="0.5" width="11.69" height="23.05" rx="1.11" ry="1.11"/><path d="M11.09,1a.61.61,0,0,1,.6.6V22.44a.61.61,0,0,1-.6.6H1.61a.61.61,0,0,1-.6-.6V1.61a.61.61,0,0,1,.6-.6h9.48m0-1H1.61A1.61,1.61,0,0,0,0,1.61V22.44a1.61,1.61,0,0,0,1.61,1.61h9.48a1.61,1.61,0,0,0,1.61-1.61V1.61A1.61,1.61,0,0,0,11.09,0Z"/><path class="cls-3" d="M10.79,12.29S9.46,8.51,9.25,7.91c-.33-1-.89-1.46-1.66-1.46H5.1c-.77,0-1.32.49-1.66,1.46-.21.6-1.52,4.34-1.53,4.38a.72.72,0,1,0,1.35.47c0-.12.83-2.31,1.27-3.58,0,.38.09-.41-1,5.33a.4.4,0,0,0,.39.47h.55v5.2a.86.86,0,1,0,1.72,0V15h.37v5.2a.86.86,0,0,0,1.72,0V15h.55a.4.4,0,0,0,.39-.47c-1.1-5.68-1-5-1-5.33l1.25,3.58a.72.72,0,0,0,1.35-.47Zm0,0"/><path class="cls-3" d="M7.84,4.49A1.48,1.48,0,1,1,6.36,3,1.48,1.48,0,0,1,7.84,4.49Zm0,0"/></symbol><symbol id="information" data-name="information" viewBox="0 0 36 36"><path class="cls-2" d="M33.58,9A17.92,17.92,0,0,0,27,2.41,17.6,17.6,0,0,0,18,0,17.6,17.6,0,0,0,9,2.41,17.91,17.91,0,0,0,2.41,9,17.61,17.61,0,0,0,0,18a17.61,17.61,0,0,0,2.41,9A17.91,17.91,0,0,0,9,33.58,17.61,17.61,0,0,0,18,36a17.6,17.6,0,0,0,9-2.41A17.92,17.92,0,0,0,33.58,27,17.62,17.62,0,0,0,36,18a17.62,17.62,0,0,0-2.41-9ZM15,4.5a.72.72,0,0,1,.75-.75h4.5A.72.72,0,0,1,21,4.5V8.25a.72.72,0,0,1-.75.75h-4.5A.72.72,0,0,1,15,8.25Zm9,24.75a.72.72,0,0,1-.75.75H12.75a.72.72,0,0,1-.75-.75V25.5a.72.72,0,0,1,.75-.75H15v-7.5H12.75A.72.72,0,0,1,12,16.5V12.75a.72.72,0,0,1,.75-.75h7.5a.72.72,0,0,1,.75.75v12h2.25a.72.72,0,0,1,.75.75Zm0,0"/></symbol></defs><title>level-2_1</title><g id="text_and_icons" data-name="text and icons"><rect class="cls-1" x="251.75" y="209.52" width="43.61" height="85.13"/><path class="cls-4" d="M295.36,258.11v-6.6a7.14,7.14,0,0,0-6.49,6.6Z"/><path class="cls-4" d="M251.75,209.52v85.13h43.61V259.11h-7.51v-.5a8.14,8.14,0,0,1,7.51-8.1v-41Z"/><path class="cls-4" d="M465.35,344a8.88,8.88,0,0,1-5.18-7.21A8.88,8.88,0,0,0,465.35,344Z"/><path class="cls-4" d="M430.61,125.27a10,10,0,0,0,.26-2.21A10,10,0,0,1,430.61,125.27Z"/><path class="cls-4" d="M421.45,133.05l-.39,0h0Z"/><path class="cls-4" d="M421.71,133.11a10.11,10.11,0,0,1,8.09,5.48A10.11,10.11,0,0,0,421.71,133.11Z"/><polygon class="cls-4" points="425.98 283.55 426 251 425.98 251 425.98 283.55"/><polygon class="cls-1" points="986.03 209.57 964.14 209.57 964.18 211.59 964.21 213.6 959.75 213.6 959.75 349.45 964.2 349.45 964.2 357.4 986.03 357.4 986.03 353.91 995.41 353.91 995.41 209.57 986.9 209.57 986.03 209.57"/><rect class="cls-1" x="964.2" y="359.15" width="21.83" height="70.19"/><rect class="cls-1" x="964.13" y="134.75" width="21.9" height="73.07"/><path class="cls-1" d="M848,378.35a10,10,0,0,1,9.15,10v.58H848v40.43H962.45V359.15H848Z"/><path class="cls-1" d="M845.67,211.85H962.43l0-2.27h0V161.28H761.85v37.41h42.79v20.24H783.36v16.55h-21.5v14.89H760.1V218.94h-59v-12.8l-25.47-.19H620.83V338.52h83.48v4.86h55.82V293.22h23.22v35.92h21.59v16H761.89v48.29h84.4v-36H962.45v-6.2H845.67ZM709.46,294.57h-40.1V254.48h40.1Z"/><rect class="cls-1" x="882.68" y="134.75" width="79.71" height="24.78"/><polygon class="cls-1" points="955.38 230.63 958 230.52 958 219 941.3 219 941.3 213.6 932.14 213.6 932.14 219 852.93 219 852.93 278.04 847.42 278.04 847.42 287.41 852.93 287.41 852.93 344.05 932.14 344.05 932.14 349.45 941.3 349.45 941.3 344.05 958 344.05 958 332.45 952.76 332.45 952.76 230.74 955.38 230.63"/><path class="cls-1" d="M819.69,150.38h.58a10,10,0,0,1,10,9.15h50.67V134.75H805.85v24.78h13.84Z"/><path class="cls-1" d="M848,379.51v8.23h8A8.89,8.89,0,0,0,848,379.51Z"/><rect class="cls-1" x="826.5" y="395.18" width="19.79" height="34.17"/><path class="cls-1" d="M820.86,151.57v8h8.22A8.86,8.86,0,0,0,820.86,151.57Z"/><rect class="cls-1" x="791.32" y="395.18" width="33.43" height="34.17"/><rect class="cls-1" x="761.85" y="134.75" width="42.25" height="24.78"/><rect class="cls-1" x="783.36" y="330.89" width="19.84" height="12.5"/><rect class="cls-1" x="783.36" y="200.44" width="19.53" height="16.75"/><rect class="cls-5" x="761.89" y="395.18" width="27.68" height="34.17"/><rect class="cls-1" x="761.89" y="330.89" width="19.72" height="12.5"/><rect class="cls-1" x="761.89" y="314.79" width="19.72" height="14.34"/><rect class="cls-1" x="761.89" y="294.97" width="19.72" height="18.08"/><rect class="cls-1" x="761.85" y="218.94" width="19.75" height="14.8"/><rect class="cls-1" x="761.85" y="200.44" width="19.75" height="16.75"/><path class="cls-1" d="M704.32,382H687.17V512.86h30v5.24a21.49,21.49,0,0,0,43,0v-173H704.32Z"/><polygon class="cls-1" points="702.89 205.27 702.89 206.15 702.89 217.19 760.1 217.19 760.1 162.8 702.89 162.8 702.89 205.27"/><path class="cls-1" d="M702.89,161.05H760.1V31a21.41,21.41,0,0,0-1-6.38q-.31-1-.72-2a21.49,21.49,0,0,0-39.6,0q-.41,1-.72,2a21.41,21.41,0,0,0-1,6.38v5.57H687.17V161.05h15.72Z"/><path class="cls-2" d="M669.35,294.57h40.1V254.48h-40.1Zm1.75-38.34h36.61v36.59H671.1Z"/><rect class="cls-5" x="671.1" y="256.23" width="36.61" height="36.59"/><polygon class="cls-5" points="702.57 380.2 702.57 340.27 676.55 340.27 676.43 360.24 676.32 380.2 686.3 380.2 687.17 380.2 702.57 380.2"/><polygon class="cls-5" points="701.14 204.38 701.14 162.8 687.17 162.8 686.3 162.8 676.56 162.8 676.56 204.21 688.85 204.3 701.14 204.38"/><polygon class="cls-1" points="565.11 264.65 547.83 264.65 547.83 252.46 458.54 252.41 458.54 283.55 425.98 283.55 425.98 251 426 251 426.02 225.25 426.02 225.12 418.81 225.12 418.81 209.51 297.11 209.51 297.11 296.39 251.75 296.39 251.75 335.04 295.95 335.04 296.82 335.04 334.26 335.04 334.26 377.31 377.49 377.31 377.49 335.04 504.87 335.04 530.65 335 547.83 334.97 547.83 279.83 565.11 279.83 565.11 302.26 619.08 302.26 619.08 242.21 565.11 242.21 565.11 264.65"/><polygon class="cls-1" points="549.58 334.97 550.2 334.97 550.2 336.1 551.96 336.1 551.96 338.52 563.36 338.52 563.36 303.13 563.36 302.26 563.36 281.58 549.58 281.58 549.58 334.97"/><polygon class="cls-1" points="427.77 250.65 476.49 250.67 549.58 250.72 549.58 262.9 563.36 262.9 563.36 242.21 563.36 241.34 563.36 205.95 551.96 205.95 551.96 208.37 550.2 208.37 550.2 209.51 534.19 209.51 533.31 209.51 504.03 209.51 504.03 165.79 492.64 165.79 491.76 165.79 461.27 165.79 461.27 209.5 420.56 209.5 420.56 223.37 427.77 223.37 427.77 250.65"/><polygon class="cls-1" points="505.78 207.77 533.31 207.77 533.31 39.3 492.64 39.27 492.64 164.04 505.78 164.04 505.78 207.77"/><path class="cls-1" d="M469.56,345.94H469a10,10,0,0,1-9.34-6.41q-.17-.43-.3-.88a10,10,0,0,1-.34-1.86H379.24v42.74h58.4v45.7h25.17v-31.8h32.85V377.31H504V336.79H469.56Z"/><polygon class="cls-1" points="464.56 426.98 463.68 426.98 435.89 426.98 435.89 381.27 377.49 381.27 377.49 379.06 218.82 379.06 218.82 510.46 495.88 510.44 495.73 426.98 464.56 426.98"/><polygon class="cls-5" points="495.67 395.18 464.56 395.18 464.56 425.23 495.73 425.23 495.67 395.18"/><path class="cls-1" d="M490.89,39.27h0l-68.55,0-.09,42.33h-.51v40.92h9.15v.58a10.54,10.54,0,0,1-.71,3.71q-.17.43-.38.84a10,10,0,0,1-8.06,5.44v.07a10.11,10.11,0,0,1,8.09,5.48l0,.05a10.29,10.29,0,0,1,1.07,4.53v.62h-9.19V164h69.18Z"/><path class="cls-1" d="M465.35,344a8.8,8.8,0,0,0,3,.77v-8h-8.22A8.88,8.88,0,0,0,465.35,344Z"/><rect class="cls-5" x="421.71" y="165.79" width="37.81" height="41.97"/><polygon class="cls-5" points="427.73 252.74 427.73 281.8 456.79 281.8 456.79 252.74 456.79 252.42 427.73 252.42 427.73 252.74"/><path class="cls-1" d="M426.64,129.75a8.9,8.9,0,0,0,2.28-3.05c.05-.12.1-.24.15-.36s.1-.24.14-.36l0-.08a9.43,9.43,0,0,0,.45-2.25h-8v8.23a8.79,8.79,0,0,0,3.69-1.22A8.91,8.91,0,0,0,426.64,129.75Z"/><path class="cls-1" d="M429.55,141.76q-.06-.39-.16-.77a9.11,9.11,0,0,0-2.23-4l0,0a8.82,8.82,0,0,0-5.41-2.61v8.2h7.93Q429.62,142.15,429.55,141.76Z"/><polygon class="cls-1" points="292.52 128.32 292.56 165.79 251.75 165.79 251.75 207.77 419.96 207.77 419.96 115.03 406.52 115.03 406.47 127.5 377.49 127.5 377.49 81.56 365.69 81.56 365.69 90.28 347.44 90.28 347.44 81.56 335.64 81.56 335.64 128.2 311.01 128.27 292.52 128.32"/><polygon class="cls-1" points="419.96 81.56 406.66 81.56 406.53 113.29 419.96 113.29 419.96 81.56"/><polygon class="cls-1" points="404.73 125.39 404.91 81.56 379.24 81.56 379.24 125.75 404.72 125.75 404.73 125.39"/><polygon class="cls-1" points="333.89 126.46 333.89 81.56 292.46 81.56 292.52 126.57 333.89 126.46"/><path class="cls-1" d="M251.75,164H290.8v-8h-9.53v-.58a10,10,0,0,1,8.77-9.94,10,10,0,0,1-8.9-10V135h9.62l-.06-53.32v-.3l.09-42.07h-72V164h32.93Z"/><path class="cls-1" d="M282.47,154.88h8.26v-8.26A8.88,8.88,0,0,0,282.47,154.88Z"/><path class="cls-1" d="M290.59,144.41v-8.26h-8.27A8.88,8.88,0,0,0,290.59,144.41Z"/><path class="cls-1" d="M295.07,377.31V336.79h-8.16v9.15h-.58a10,10,0,0,1-10-9.15H210.49v40.52h84.58Z"/><path class="cls-1" d="M285.74,344.76v-8h-8.23A8.89,8.89,0,0,0,285.74,344.76Z"/><rect class="cls-5" x="296.82" y="336.79" width="35.7" height="40.52"/><polygon class="cls-1" points="250 335.04 250 165.79 218.82 165.79 217.94 165.79 208.29 165.79 208.29 207.95 166.12 207.95 166.12 335.04 209.62 335.04 210.49 335.04 250 335.04"/><path class="cls-2" d="M987.78,207.82V133H761.85V31a23.24,23.24,0,1,0-46.48,0v3.82H685.42V161.05H674.81V204.2H619.08v36.27h-54V204.2h-14.9v2.43h-1.76v1.14H535.06V37.55l-114.48-.07-.1,42.33H363.94v8.72H349.19V79.81H292.46l.1-42.26h-75.5V164H206.54V206.2H164.37V336.79h44.37v42.27h8.33V512.21l280.57,0-.26-133.13h8.4V336.79l42.67-.07v1.13h1.76v2.43h14.9V304h54v36.27H674.8L674.56,382h10.87V514.61h30v3.49a23.24,23.24,0,1,0,46.48,0V474.39l0-.85,0-42.45H987.78V355.66h9.38V207.82ZM492.64,39.27l40.67,0V207.77H505.78V164H492.64Zm-70.92,84.37h8a9.43,9.43,0,0,1-.45,2.25l0,.08c0,.12-.1.24-.14.36s-.09.25-.15.36a8.93,8.93,0,0,1-3.52,4,8.79,8.79,0,0,1-3.69,1.22Zm0,10.72a8.82,8.82,0,0,1,5.41,2.61l0,0a9.11,9.11,0,0,1,2.23,4q.1.38.16.77t.09.8h-7.93Zm0,9.43h9.19v-.62a10.29,10.29,0,0,0-1.07-4.53l0-.05a10.11,10.11,0,0,0-8.09-5.48V133a10,10,0,0,0,8.06-5.44q.21-.41.38-.84a10.54,10.54,0,0,0,.71-3.71v-.58h-9.15V81.56h.51l.09-42.33,68.55,0h0V164H421.71Zm0,22h37.81v42H421.71Zm-.26-32.73-.39,0h0Zm-.89,76.45h40.71V165.79H504v43.73H550.2v-1.14H552v-2.43h11.4v57H549.58V250.72l-73.09,0-48.73,0V223.37h-7.21Zm36.23,42.91V281.8H427.73V252.42ZM406.66,81.56H420v31.73H406.53Zm-27.42,0h25.67l-.19,43.83v.37H379.24Zm-43.6,0h11.8v8.72h18.25V81.56h11.8V127.5h29l0-12.47H420v92.73H251.75v-42h40.81l0-37.47,18.49,0,24.64-.07Zm-40.28,169a8.14,8.14,0,0,0-7.51,8.1v.5h7.51v35.54H251.75V209.52h43.61Zm-6.49,7.6a7.14,7.14,0,0,1,6.49-6.6v6.6Zm45-176.55v44.91l-41.37.1-.06-45ZM218.82,39.29h72l-.09,42.07v.3l.06,53.32h-9.62v.58a10,10,0,0,0,8.9,10,10,10,0,0,0-8.77,9.94V156h9.53v8h-72Zm71.9,107.33v8.26h-8.26A8.88,8.88,0,0,1,290.72,146.63Zm-.13-2.22a8.88,8.88,0,0,1-8.27-8.26h8.27ZM166.12,335V208h42.17V165.79H250V335H166.12Zm44.37,42.27V336.79h65.85a10,10,0,0,0,10,9.15h.58v-9.15h8.16v40.52H210.49Zm67-40.52h8.23v8A8.89,8.89,0,0,1,277.51,336.79ZM218.82,510.46V379.06H377.49v2.22h58.4V427h59.83l.15,83.46Zm78-133.15V336.79h35.7v40.52Zm167.74,47.92V395.18h31.11l.06,30.05ZM504,377.31h-8.4v16.12H462.81v31.8H437.64v-45.7h-58.4V336.79H459a10,10,0,0,0,.34,1.86q.13.45.3.88a10,10,0,0,0,9.34,6.41h.58v-9.15H504Zm-43.86-40.52h8.22v8a8.87,8.87,0,0,1-8.22-8Zm103.19-34.53v36.27H552V336.1H550.2V335h-.62V281.58h13.78Zm55.72,0h-54V279.83H547.83V335l-17.18,0-25.78,0H377.49v42.27H334.27V335H251.75V296.39h45.36V209.52h121.7v15.6H426V251l0,32.56h32.56V252.41l89.29.06v12.19h17.28V242.21h54Zm345-167.5H986v73.07h-21.9Zm-81.45,0h79.71v24.78H882.68Zm-76.83,0h75.08v24.78H830.26a10,10,0,0,0-10-9.15h-.58v9.15H805.85Zm23.23,24.78h-8.22v-8A8.86,8.86,0,0,1,829.08,159.54Zm-67.23-24.78H804.1v24.78H761.85Zm0,65.69h19.75v16.75H761.85Zm0,18.5h19.75v14.8H761.85ZM687.17,36.53h29.95V31a21.41,21.41,0,0,1,1-6.38q.31-1,.72-2a21.49,21.49,0,0,1,39.6,0q.41,1,.72,2a21.41,21.41,0,0,1,1,6.38V161.05H687.17ZM760.1,162.8v54.39H702.89V162.8Zm-83.54,0h24.58v41.58l-12.29-.09-12.29-.09Zm-.24,217.4.12-20,.12-20h26V380.2H676.32Zm83.82,50V518.1a21.49,21.49,0,0,1-43,0v-5.24h-30V382h17.14V345.14h55.82Zm29.43-.87H761.89V395.18h27.68Zm35.18,0H791.32V395.18h33.43Zm21.54,0H826.5V395.18h19.79Zm116.16,0H848V388.91h9.15v-.58a10,10,0,0,0-9.15-10V359.15H962.45ZM848,387.75v-8.23a8.89,8.89,0,0,1,8,8.23ZM962.45,357.4H846.29v36h-84.4V345.14h43.05v-16H783.36V293.22H760.14v50.17H704.32v-4.86H620.83V205.95h54.84l25.47.19v12.8h59v31.44h1.75V235.49h21.5V218.94h21.28V198.69H761.85V161.28H962.38v48.29h0l0,2.27H845.67V351.2H962.45ZM781.61,314.79v14.34H761.89V314.79ZM761.89,313V295h19.72V313Zm19.72,17.84v12.5H761.89v-12.5Zm1.75,12.5v-12.5h19.84v12.5Zm0-126.2V200.44h19.53v16.75ZM958,332.45v11.6H941.3v5.4h-9.15v-5.4H852.93V287.41h-5.5V278h5.5V219h79.22v-5.4h9.15V219H958v11.52l-2.62.11-2.62.11V332.45Zm28,96.89H964.2V359.15H986Zm9.38-75.44H986v3.5H964.2v-8h-4.45V213.6h4.47l0-2,0-2h31.26Z"/><text class="cls-6" transform="translate(31.33 117.48) scale(0.7)">NO<tspan class="cls-7" x="41" y="0">R</tspan><tspan x="59" y="0">TH</tspan></text><text class="cls-6" transform="translate(97.27 117.48)"> </text><text class="cls-6" transform="translate(104.77 117.48) scale(0.7)">ENTRANCE</text><text class="cls-6" transform="translate(544.75 146.01)">2</text><text class="cls-6" transform="translate(560.07 146.01) scale(0.7)">ND</text><text class="cls-6" transform="translate(587.58 146.01)"> </text><text class="cls-6" transform="translate(595.08 146.01) scale(0.7)">F<tspan class="cls-8" x="16.4" y="0">L</tspan><tspan x="30.88" y="0">OOR</tspan></text><text class="cls-6" transform="translate(659.1 146.01)"> </text><text class="cls-6" transform="translate(566.94 176.01) scale(0.7)">BRIDGE</text><text class="cls-6" transform="translate(844.53 463.01) scale(0.7)">MAIN</text><text class="cls-6" transform="translate(892.92 463.01)"> </text><text class="cls-6" transform="translate(900.42 463.01) scale(0.7)">SE<tspan class="cls-9" x="32.75" y="0">R</tspan><tspan x="50.33" y="0">VICES</tspan></text><text class="cls-6" transform="translate(990.16 463.01)"> </text><text class="cls-6" transform="translate(997.66 463.01) scale(0.7)">DESK</text><line class="cls-10" x1="189" y1="127.76" x2="357.35" y2="147.14"/><path d="M466.9,250.67v18.12a1.15,1.15,0,0,1-1.14,1.17h-19a1.15,1.15,0,0,1-1.13-1.17V250.67a1.15,1.15,0,0,1,1.13-1.17h19A1.15,1.15,0,0,1,466.9,250.67Zm-1.16,17V251.71a1,1,0,0,0-1-1h-17a1,1,0,0,0-1,1v15.94a1,1,0,0,0,1,1h17A1,1,0,0,0,465.74,267.66Z"/><path class="cls-1" d="M465.74,251.71v15.94a1,1,0,0,1-1,1h-17a1,1,0,0,1-1-1V251.71a1,1,0,0,1,1-1h17A1,1,0,0,1,465.74,251.71Zm-1.92,10.41c1-1,0-1.09,0-1.09h-6.64c-.92,0-.39.69-.12,1l.12.13,2.8,2.92a.68.68,0,0,0,1.06,0Zm-.08-3.66s.87-.21,0-1.12h0l-2.79-2.91h0a.62.62,0,0,0-1-.05l-.05.05h0l-2.65,2.76c-1,1-.13,1.24,0,1.27Zm-8.81,2.67v-3.66a1.18,1.18,0,0,0-1.19-1.17h-4.07a1.18,1.18,0,0,0-1.19,1.17v3.66a1.18,1.18,0,0,0,1,1.15h0s.33,0,.39.44c.12.87.39,2.86.48,3.68.12,1,.75,1.07.75,1.07a3.15,3.15,0,0,0,1.29,0c.72-.15.79-1,.79-1l.45-3.8a.4.4,0,0,1,.32-.36h0A1.18,1.18,0,0,0,454.93,261.13Zm-1.47-7.43a1.7,1.7,0,1,0-1.7,1.77A1.74,1.74,0,0,0,453.46,253.7Z"/><path d="M463.82,261s1,.05,0,1.09L461,265a.68.68,0,0,1-1.06,0l-2.8-2.92-.12-.13c-.26-.29-.8-1,.12-1h6.64Z"/><path d="M463.74,257.34c.87.9,0,1.12,0,1.12h-6.48c-.12,0-1-.26,0-1.27l2.65-2.76h0l.05-.05a.62.62,0,0,1,1,.05h0l2.79,2.91Z"/><path d="M454.93,257.47v3.66a1.18,1.18,0,0,1-1,1.15h0a.4.4,0,0,0-.32.36l-.45,3.8s-.07.88-.79,1a3.15,3.15,0,0,1-1.29,0s-.63,0-.75-1.07c-.09-.81-.36-2.81-.48-3.68-.06-.43-.39-.44-.39-.44h0a1.18,1.18,0,0,1-1-1.15v-3.66a1.18,1.18,0,0,1,1.19-1.17h4.07A1.18,1.18,0,0,1,454.93,257.47Z"/><ellipse cx="451.76" cy="253.7" rx="1.7" ry="1.77"/><path d="M915.16,252.37v18.12a1.15,1.15,0,0,1-1.14,1.17H895a1.15,1.15,0,0,1-1.13-1.17V252.37A1.15,1.15,0,0,1,895,251.2h19A1.15,1.15,0,0,1,915.16,252.37Zm-1.16,17V253.41a1,1,0,0,0-1-1H896a1,1,0,0,0-1,1v15.94a1,1,0,0,0,1,1h17A1,1,0,0,0,914,269.36Z"/><path class="cls-1" d="M914,253.41v15.94a1,1,0,0,1-1,1H896a1,1,0,0,1-1-1V253.41a1,1,0,0,1,1-1h17A1,1,0,0,1,914,253.41Zm-1.92,10.41c1-1,0-1.09,0-1.09h-6.64c-.92,0-.39.69-.12,1l.12.13,2.8,2.92a.68.68,0,0,0,1.06,0Zm-.08-3.66s.87-.21,0-1.12h0l-2.79-2.91h0a.62.62,0,0,0-1-.05l-.05.05h0l-2.65,2.76c-1,1-.13,1.24,0,1.27Zm-8.81,2.67v-3.66A1.18,1.18,0,0,0,902,258h-4.07a1.18,1.18,0,0,0-1.19,1.17v3.66a1.18,1.18,0,0,0,1,1.15h0s.33,0,.39.44c.12.87.39,2.86.48,3.68.12,1,.75,1.07.75,1.07a3.15,3.15,0,0,0,1.29,0c.72-.15.79-1,.79-1l.45-3.8a.4.4,0,0,1,.32-.36h0A1.18,1.18,0,0,0,903.19,262.83Zm-1.47-7.43a1.7,1.7,0,1,0-1.7,1.77A1.74,1.74,0,0,0,901.72,255.4Z"/><path d="M912.08,262.73s1,.05,0,1.09l-2.79,2.9a.68.68,0,0,1-1.06,0l-2.8-2.92-.12-.13c-.26-.29-.8-1,.12-1h6.64Z"/><path d="M912,259c.87.9,0,1.12,0,1.12h-6.48c-.12,0-1-.26,0-1.27l2.65-2.76h0l.05-.05a.62.62,0,0,1,1,.05h0L912,259Z"/><path d="M903.19,259.17v3.66a1.18,1.18,0,0,1-1,1.15h0a.4.4,0,0,0-.32.36l-.45,3.8s-.07.88-.79,1a3.15,3.15,0,0,1-1.29,0s-.63,0-.75-1.07c-.09-.81-.36-2.81-.48-3.68-.06-.43-.39-.44-.39-.44h0a1.18,1.18,0,0,1-1-1.15v-3.66a1.18,1.18,0,0,1,1.19-1.17H902A1.18,1.18,0,0,1,903.19,259.17Z"/><ellipse cx="900.02" cy="255.4" rx="1.7" ry="1.77"/><use width="21.29" height="20.45" transform="translate(692.18 254.07)" xlink:href="#elevator"/><use width="18.3" height="18.3" transform="translate(676.51 217.93)" xlink:href="#Staircase"/><use width="18.3" height="18.3" transform="translate(688.51 292.15)" xlink:href="#Staircase"/><use width="18.3" height="18.3" transform="translate(437.96 220.03)" xlink:href="#Staircase"/><use width="18.3" height="18.3" transform="translate(483.37 313.09)" xlink:href="#Staircase"/><use width="18.3" height="18.3" transform="translate(315.01 291.44)" xlink:href="#Staircase"/><use width="12.7" height="24.06" transform="translate(382.45 168.23) scale(1.26)" xlink:href="#mens_restroom"/><use width="12.7" height="24.06" transform="translate(775.6 186.26) scale(1.26)" xlink:href="#mens_restroom"/><use width="12.7" height="24.06" transform="translate(312.56 167.94) scale(1.23)" xlink:href="#womens_restroom"/><use width="18.3" height="18.3" transform="translate(867.14 252.28)" xlink:href="#Staircase"/><use width="18.3" height="18.3" transform="translate(923.14 252.28)" xlink:href="#Staircase"/><use id="information-3" data-name="information" width="36" height="36" transform="translate(744.57 273.36) scale(0.48)" xlink:href="#information"/><line class="cls-10" x1="755.38" y1="282.53" x2="832.19" y2="457.78"/><path d="M802.77,313.25v18.12a1.15,1.15,0,0,1-1.14,1.17h-19a1.15,1.15,0,0,1-1.13-1.17V313.25a1.15,1.15,0,0,1,1.13-1.17h19A1.15,1.15,0,0,1,802.77,313.25Zm-1.16,17V314.29a1,1,0,0,0-1-1h-17a1,1,0,0,0-1,1v15.94a1,1,0,0,0,1,1h17A1,1,0,0,0,801.61,330.24Z"/><path class="cls-1" d="M801.61,314.29v15.94a1,1,0,0,1-1,1h-17a1,1,0,0,1-1-1V314.29a1,1,0,0,1,1-1h17A1,1,0,0,1,801.61,314.29Zm-1.92,10.41c1-1,0-1.09,0-1.09H793c-.92,0-.39.69-.12,1l.12.13,2.8,2.92a.68.68,0,0,0,1.06,0Zm-.08-3.66s.87-.21,0-1.12h0L796.81,317h0a.62.62,0,0,0-1-.05l-.05.05h0l-2.65,2.76c-1,1-.13,1.24,0,1.27Zm-8.81,2.67v-3.66a1.18,1.18,0,0,0-1.19-1.17h-4.07a1.18,1.18,0,0,0-1.19,1.17v3.66a1.18,1.18,0,0,0,1,1.15h0s.33,0,.39.44c.12.87.39,2.86.48,3.68.12,1,.75,1.07.75,1.07a3.15,3.15,0,0,0,1.29,0c.72-.15.79-1,.79-1l.45-3.8a.4.4,0,0,1,.32-.36h0A1.18,1.18,0,0,0,790.8,323.71Zm-1.47-7.43a1.7,1.7,0,1,0-1.7,1.77A1.74,1.74,0,0,0,789.32,316.28Z"/><path d="M799.69,323.61s1,.05,0,1.09l-2.79,2.9a.68.68,0,0,1-1.06,0l-2.8-2.92-.12-.13c-.26-.29-.8-1,.12-1h6.64Z"/><path d="M799.61,319.92c.87.9,0,1.12,0,1.12h-6.48c-.12,0-1-.26,0-1.27l2.65-2.76h0l.05-.05a.62.62,0,0,1,1,.05h0l2.79,2.91Z"/><path d="M790.8,320.05v3.66a1.18,1.18,0,0,1-1,1.15h0a.4.4,0,0,0-.32.36L789,329s-.07.88-.79,1a3.15,3.15,0,0,1-1.29,0s-.63,0-.75-1.07c-.09-.81-.36-2.81-.48-3.68-.06-.43-.39-.44-.39-.44h0a1.18,1.18,0,0,1-1-1.15v-3.66a1.18,1.18,0,0,1,1.19-1.17h4.07A1.18,1.18,0,0,1,790.8,320.05Z"/><ellipse cx="787.62" cy="316.28" rx="1.7" ry="1.77"/><use width="12.7" height="24.06" transform="translate(816.62 302.51) scale(1.2)" xlink:href="#womens_restroom"/></g></svg>