<svg xmlns="http://www.w3.org/2000/svg" xmlns:xlink="http://www.w3.org/1999/xlink" viewBox="0 0 1044 242.99">
    <defs>
        <style>
            .cls-1 {
                fill: none;
            }

            .cls-2,
            .cls-57 {
                fill: #fff;
            }

            .cls-3 {
                isolation: isolate;
            }

            .cls-4 {
                fill: #1c2b39;
            }

            .cls-5 {
                fill: #a1a1a1;
            }

            .cls-6 {
                fill: #dcdcdc;
            }

            .cls-7 {
                fill: #828282;
            }

            .cls-8 {
                fill: #e2e2e2;
            }

            .cls-9 {
                fill: #b9b9b9;
            }

            .cls-10 {
                fill: #afafaf;
            }

            .cls-11 {
                fill: #a6a6a6;
            }

            .cls-12 {
                fill: #afb2b9;
            }

            .cls-13 {
                fill: #8f9399;
            }

            .cls-14 {
                fill: #acb0b7;
            }

            .cls-15 {
                fill: #818181;
            }

            .cls-16 {
                fill: #bababa;
            }

            .cls-17 {
                clip-path: url(#clip-path);
            }

            .cls-18 {
                fill: #b8b8b8;
            }

            .cls-19 {
                fill: #bdbdbd;
            }

            .cls-20 {
                fill: #c2c2c2;
            }

            .cls-21 {
                fill: #c7c7c7;
            }

            .cls-22 {
                fill: #b3b3b3;
            }

            .cls-23 {
                fill: #adadad;
            }

            .cls-24 {
                fill: #a8a8a8;
            }

            .cls-25 {
                fill: #a3a3a3;
            }

            .cls-26 {
                fill: #9e9e9e;
            }

            .cls-27 {
                fill: #999;
            }

            .cls-28 {
                clip-path: url(#clip-path-2);
            }

            .cls-29 {
                clip-path: url(#clip-path-3);
            }

            .cls-30 {
                clip-path: url(#clip-path-4);
            }

            .cls-31 {
                fill: #858585;
            }

            .cls-32 {
                fill: #8a8a8a;
            }

            .cls-33 {
                fill: #8f8f8f;
            }

            .cls-34 {
                fill: #949494;
            }

            .cls-35 {
                clip-path: url(#clip-path-5);
            }

            .cls-36 {
                clip-path: url(#clip-path-6);
            }

            .cls-37 {
                clip-path: url(#clip-path-7);
            }

            .cls-38 {
                fill: #b5b5b5;
            }

            .cls-39 {
                fill: #9a9ea5;
            }

            .cls-40 {
                fill: #bbb;
            }

            .cls-41 {
                fill: #90939a;
            }

            .cls-42 {
                fill: #ababab;
            }

            .cls-43 {
                fill: gray;
            }

            .cls-44 {
                fill: #8c8c8c;
            }

            .cls-45 {
                clip-path: url(#clip-path-8);
            }

            .cls-46 {
                clip-path: url(#clip-path-9);
            }

            .cls-47 {
                clip-path: url(#clip-path-10);
            }

            .cls-48 {
                clip-path: url(#clip-path-11);
            }

            .cls-49 {
                clip-path: url(#clip-path-12);
            }

            .cls-50 {
                clip-path: url(#clip-path-13);
            }

            .cls-51 {
                clip-path: url(#clip-path-14);
            }

            .cls-52 {
                clip-path: url(#clip-path-15);
            }

            .cls-53 {
                clip-path: url(#clip-path-16);
            }

            .cls-54 {
                clip-path: url(#clip-path-17);
            }

            .cls-55 {
                fill: #868a90;
            }

            .cls-56 {
                fill: #92969c;
            }

            .cls-57 {
                font-size: 20px;
            }

            .cls-57,
            .cls-58 {
                font-family: Gotham-Medium, Gotham;
            }

            .cls-58 {
                font-size: 16px;
                fill: #231f20;
            }

            .cls-59 {
                letter-spacing: -0.04em;
            }
        </style>
        <clipPath id="clip-path">
            <path class="cls-1" d="M612.85,118.59l.51-13.52a2.23,2.23,0,0,1,.75-1.49,6.15,6.15,0,0,1,2-1.21,13.73,13.73,0,0,1,2.9-.81,21.22,21.22,0,0,1,3.6-.29L622,114.77a21.12,21.12,0,0,0-3.6.3,13.68,13.68,0,0,0-2.9.81,6.15,6.15,0,0,0-2,1.21A2.24,2.24,0,0,0,612.85,118.59Z"
            />
        </clipPath>
        <clipPath id="clip-path-2">
            <path class="cls-1" d="M614,118.65l.52-13.52a1.93,1.93,0,0,1,.6-1.28,5.08,5.08,0,0,1,1.59-1,11.32,11.32,0,0,1,2.39-.73,17.9,17.9,0,0,1,3-.32l-.52,13.51a17.82,17.82,0,0,0-3,.32,11.28,11.28,0,0,0-2.39.73,5.07,5.07,0,0,0-1.59,1.05A1.94,1.94,0,0,0,614,118.65Z"
            />
        </clipPath>
        <clipPath id="clip-path-3">
            <path class="cls-1" d="M612.85,118.65v-.06l.51-13.52v.06l-.51,13.5Z" />
        </clipPath>
        <clipPath id="clip-path-4">
            <path class="cls-1" d="M566.65,105.13l-.48,13.52a3.44,3.44,0,0,0-1.24-1.51,9.37,9.37,0,0,0-2.36-1.22,17.58,17.58,0,0,0-3.18-.82,23,23,0,0,0-3.72-.3l.47-13.51a23.1,23.1,0,0,1,3.72.3,17.65,17.65,0,0,1,3.19.82,9.4,9.4,0,0,1,2.36,1.22A3.43,3.43,0,0,1,566.65,105.13Z"
            />
        </clipPath>
        <clipPath id="clip-path-5">
            <path class="cls-1" d="M565.48,105.13,565,118.65a3,3,0,0,0-1-1.26,8,8,0,0,0-1.94-1,14.9,14.9,0,0,0-2.62-.72,20,20,0,0,0-3.07-.32l.47-13.51a20.08,20.08,0,0,1,3.08.32,15,15,0,0,1,2.62.72,8,8,0,0,1,1.94,1A3,3,0,0,1,565.48,105.13Z"
            />
        </clipPath>
        <clipPath id="clip-path-6">
            <path class="cls-1" d="M565,118.65h0l.47-13.52h0Z" />
        </clipPath>
        <clipPath id="clip-path-7">
            <path class="cls-1" d="M565.06,118.77v-.09l0,0,.47-13.52,0,0v.09Z" />
        </clipPath>
        <clipPath id="clip-path-8">
            <path class="cls-1" d="M619.15,128.48l-.52,13.59V142l0,0,.52-13.59,0,0v.08Z" />
        </clipPath>
        <clipPath id="clip-path-9">
            <polygon class="cls-1" points="569.57 128.39 569.09 141.98 569.09 141.98 569.09 141.97 569.09 141.97 569.09 141.97 569.57 128.37 569.57 128.38 569.57 128.38 569.57 128.38 569.57 128.39"
            />
        </clipPath>
        <clipPath id="clip-path-10">
            <path class="cls-1" d="M569.57,128.39,569.09,142v.08h0l.48-13.59v-.08Z" />
        </clipPath>
        <clipPath id="clip-path-11">
            <polygon class="cls-1" points="569.08 142.06 569.56 128.46 569.56 128.47 569.56 128.47 569.56 128.48 569.56 128.48 569.08 142.08 569.08 142.07 569.08 142.07 569.08 142.06 569.08 142.06"
            />
        </clipPath>
        <clipPath id="clip-path-12">
            <path class="cls-1" d="M628,131.87l-.53,13.6a20,20,0,0,1-3.1-.32,15.06,15.06,0,0,1-2.65-.73,8.17,8.17,0,0,1-2-1.06,3.18,3.18,0,0,1-1.08-1.29l.52-13.59a3.17,3.17,0,0,0,1.08,1.28,8.19,8.19,0,0,0,2,1.05,15.12,15.12,0,0,0,2.65.73A20,20,0,0,0,628,131.87Z"
            />
        </clipPath>
        <clipPath id="clip-path-13">
            <path class="cls-1" d="M617.45,142.07q.26-6.8.52-13.59a2.73,2.73,0,0,0,.48.79,4.68,4.68,0,0,0,.8.73,7.8,7.8,0,0,0,1.08.66,11.78,11.78,0,0,0,1.32.57l-.3,7.69,0,.89-.07,1.75-.07,1.68,0,.81c0,.23,0,.55,0,.78a11.74,11.74,0,0,1-1.32-.58,7.78,7.78,0,0,1-1.08-.66,4.68,4.68,0,0,1-.8-.74A2.74,2.74,0,0,1,617.45,142.07Z"
            />
        </clipPath>
        <clipPath id="clip-path-14">
            <path class="cls-1" d="M621.12,144.84h0l.53-13.6h0Z" />
        </clipPath>
        <clipPath id="clip-path-15">
            <path class="cls-1" d="M628.09,146c-.65,0-1.29,0-1.92-.08s-1.24-.13-1.83-.23-1.16-.22-1.7-.36a16,16,0,0,1-1.53-.47l.53-13.6c.48.18,1,.33,1.53.47s1.11.26,1.7.36,1.2.17,1.83.22,1.27.08,1.92.08Z"
            />
        </clipPath>
        <clipPath id="clip-path-16">
            <path class="cls-1" d="M569.56,128.48l-.48,13.6a2,2,0,0,1-.64,1.29,5.24,5.24,0,0,1-1.62,1.06,11.48,11.48,0,0,1-2.41.74,18,18,0,0,1-3,.33l.48-13.61a18.08,18.08,0,0,0,3-.32,11.52,11.52,0,0,0,2.41-.73,5.25,5.25,0,0,0,1.62-1.05A2,2,0,0,0,569.56,128.48Z"
            />
        </clipPath>
        <clipPath id="clip-path-17">
            <path class="cls-1" d="M570.72,128.48l-.48,13.59a2.29,2.29,0,0,1-.75,1.53,6.22,6.22,0,0,1-2,1.24,13.78,13.78,0,0,1-2.95.83,21.26,21.26,0,0,1-3.66.3l.47-13.61a21.36,21.36,0,0,0,3.66-.3,13.83,13.83,0,0,0,2.95-.83,6.22,6.22,0,0,0,2-1.24A2.28,2.28,0,0,0,570.72,128.48Z"
            />
        </clipPath>
        <symbol id="Staircase" data-name="Staircase" viewBox="0 0 18.3 18.3">
            <rect class="cls-2" x="0.38" y="0.38" width="17.55" height="17.55" />
            <path d="M17.47,18.3H.83A.83.83,0,0,1,0,17.47V.83A.83.83,0,0,1,.83,0H17.47a.83.83,0,0,1,.83.83V17.47A.83.83,0,0,1,17.47,18.3ZM.83.76A.08.08,0,0,0,.76.83V17.47a.08.08,0,0,0,.08.08H17.47a.08.08,0,0,0,.08-.08V.83a.08.08,0,0,0-.08-.08Z"
            />
            <path d="M15.76,4.7H13.07a.75.75,0,0,0-.75.75V7.38H10.38a.75.75,0,0,0-.75.75v1.94H7.7a.75.75,0,0,0-.75.75v2h-2a.75.75,0,0,0-.75.75v1.56a.75.75,0,0,0,.75.75H15.76a.75.75,0,0,0,.75-.75V5.45a.75.75,0,0,0-.75-.75Zm0,0"
            />
            <path d="M11.82,2.55a.5.5,0,0,0-.7,0c-3.2,3.11-6.24,6.15-9.17,9.09A.5.5,0,0,0,1.8,12v3.41a.5.5,0,1,0,1,0v-3.2c2.89-2.89,5.88-5.88,9-8.94a.5.5,0,0,0,0-.7Zm0,0"
            />
        </symbol>
        <symbol id="Men_and_women_restroom" data-name="Men and women restroom" viewBox="0 0 18.45 16.45">
            <rect class="cls-2" x="0.35" y="0.35" width="17.75" height="15.75" rx="0.77" ry="0.77" />
            <path d="M17.32.7a.42.42,0,0,1,.42.42v14.2a.42.42,0,0,1-.42.42H1.13a.42.42,0,0,1-.42-.42V1.13A.42.42,0,0,1,1.13.7h16.2m0-.7H1.13A1.13,1.13,0,0,0,0,1.13v14.2a1.13,1.13,0,0,0,1.13,1.13h16.2a1.13,1.13,0,0,0,1.13-1.13V1.13A1.13,1.13,0,0,0,17.32,0Z"
            />
            <path d="M6.25,4.09H3.39A1.26,1.26,0,0,0,2.14,5.34l0,3.9a.53.53,0,0,0,.53.53h0a.53.53,0,0,0,.53-.53l0-3.9h0a.11.11,0,0,1,.21,0v8.92a.64.64,0,1,0,1.27,0V9.18H5v5.09a.64.64,0,1,0,1.27,0c0-8.42,0-3.6,0-8.92a.11.11,0,0,1,.22,0h0v3.9A.53.53,0,0,0,7,9.78H7a.53.53,0,0,0,.53-.53V5.35h0A1.26,1.26,0,0,0,6.25,4.09Zm0,0"
            />
            <path d="M5.92,2.64a1.1,1.1,0,1,1-1.1-1.1,1.1,1.1,0,0,1,1.1,1.1Zm0,0" />
            <path d="M16.51,8.42,15.38,5.2c-.24-.71-.65-1.07-1.22-1.07H12.33c-.56,0-1,.36-1.22,1.07L10,8.42a.53.53,0,1,0,1,.35c0-.09.61-1.7.94-2.63,0,.28.06-.3-.75,3.92a.29.29,0,0,0,.29.35h.4v3.82a.63.63,0,1,0,1.26,0V10.41h.27v3.82a.63.63,0,0,0,1.26,0V10.41h.4a.29.29,0,0,0,.29-.35c-.81-4.18-.72-3.69-.75-3.92l.92,2.63a.53.53,0,0,0,1-.35Zm0,0"
            />
            <path d="M14.34,2.68a1.09,1.09,0,1,1-1.09-1.09,1.09,1.09,0,0,1,1.09,1.09Zm0,0" />
            <path d="M9.33,2.25a.41.41,0,0,0-.41.41V13.79a.41.41,0,1,0,.81,0V2.66a.41.41,0,0,0-.41-.41Zm0,0" />
        </symbol>
    </defs>
    <title>level-4</title>
    <g id="level_4" data-name="level 4">
        <g class="cls-3">
            <polygon class="cls-4" points="414.46 21.94 414.13 35.22 346.12 35.18 346.4 21.89 414.46 21.94" />
            <polygon class="cls-4" points="216.4 21.8 216.22 35.1 146.62 35.05 146.74 21.75 216.4 21.8" />
            <polygon class="cls-4" points="346.46 39.23 346.17 52.57 344.36 34.48 344.64 21.2 346.46 39.23" />
            <polygon class="cls-5" points="348.23 39.94 347.95 53.28 346.12 35.18 346.4 21.89 348.23 39.94" />
            <polygon class="cls-4" points="217.53 39.86 217.35 53.22 216.22 35.1 216.4 21.8 217.53 39.86" />
            <polygon class="cls-4" points="348.23 39.94 347.94 53.28 217.35 53.22 217.53 39.86 348.23 39.94" />
            <polygon class="cls-4" points="681.57 71.96 681 85.36 599.11 85.34 599.61 71.92 681.57 71.96" />
            <polygon class="cls-4" points="420.59 72.37 420.24 85.81 414.13 35.22 414.46 21.94 420.59 72.37" />
            <polygon class="cls-6" points="420.59 72.37 420.24 85.81 148.73 85.73 148.85 72.27 420.59 72.37" />
            <polygon class="cls-4" points="430.19 73.09 429.83 86.53 387.76 86.52 388.08 73.08 430.19 73.09" />
            <polygon class="cls-4" points="386.35 73.07 386.03 86.52 349.42 86.5 349.71 73.06 386.35 73.07" />
            <polygon class="cls-7" points="148.85 72.27 148.73 85.73 146.62 35.05 146.74 21.75 148.85 72.27" />
            <polygon class="cls-8" points="414.46 21.94 420.59 72.37 148.85 72.27 146.74 21.75 216.4 21.8 217.53 39.86 348.23 39.94 346.4 21.89 414.46 21.94"
            />
            <polygon class="cls-4" points="147.11 72.27 146.99 85.73 144.88 34.35 145 21.05 147.11 72.27" />
            <polygon class="cls-4" points="347.99 73.06 347.7 86.5 138.35 86.45 138.46 72.98 347.99 73.06" />
            <polygon class="cls-9" points="602.53 88.71 602.03 102.18 599.11 85.34 599.61 71.92 602.53 88.71" />
            <polygon class="cls-6" points="629.21 88.72 628.68 102.19 602.03 102.18 602.53 88.71 629.21 88.72" />
            <polygon class="cls-4" points="600.81 88.71 600.3 102.18 597.27 84.62 597.77 71.21 600.81 88.71" />
            <polygon class="cls-4" points="627.61 89.44 627.08 102.91 601.29 102.91 601.79 89.44 627.61 89.44" />
            <polygon class="cls-4" points="601.79 89.44 601.29 102.91 600.43 102.91 600.93 89.44 601.79 89.44" />
            <polygon class="cls-4" points="600.93 89.44 600.43 102.91 587.71 102.91 588.21 89.43 600.93 89.44" />
            <polygon class="cls-4" points="586.47 89.43 585.98 102.91 546.59 102.9 547.04 89.42 586.47 89.43" />
            <polygon class="cls-4" points="490.9 89.66 490.5 103.15 479.25 103.14 479.65 89.66 490.9 89.66" />
            <polygon class="cls-4" points="477.95 89.94 477.56 103.42 477.42 102.42 477.82 88.94 477.95 89.94" />
            <polygon class="cls-10" points="479.79 90.67 479.39 104.15 479.25 103.14 479.65 89.66 479.79 90.67" />
            <polygon class="cls-4" points="479.79 90.67 479.39 104.15 477.65 104.15 478.05 90.67 479.79 90.67" />
            <polygon class="cls-4" points="545.84 92.75 545.39 106.24 544.75 102.17 545.21 88.7 545.84 92.75" />
            <polygon class="cls-4" points="432.43 91.13 432.07 104.62 429.83 86.53 430.19 73.09 432.43 91.13" />
            <polygon class="cls-4" points="478.05 90.67 477.65 104.15 432.07 104.62 432.43 91.13 478.05 90.67" />
            <polygon class="cls-11" points="390.13 91.35 389.8 104.85 387.76 86.52 388.08 73.08 390.13 91.35" />
            <polygon class="cls-4" points="388.31 90.63 387.99 104.12 386.03 86.52 386.35 73.07 388.31 90.63" />
            <polygon class="cls-4" points="545.96 93.48 545.5 106.97 491.03 106.96 491.44 93.47 545.96 93.48" />
            <polygon class="cls-4" points="491.44 93.47 491.03 106.96 490.5 103.15 490.9 89.66 491.44 93.47" />
            <polygon class="cls-12" points="386.35 73.07 388.31 90.63 351.48 90.62 349.71 73.06 386.35 73.07" />
            <polygon class="cls-13" points="351.48 90.62 351.19 104.12 349.43 86.5 349.71 73.06 351.48 90.62" />
            <polygon class="cls-14" points="388.31 90.63 387.99 104.12 351.19 104.12 351.48 90.62 388.31 90.63" />
            <polygon class="cls-4" points="349.82 91.34 349.53 104.84 347.7 86.5 347.99 73.06 349.82 91.34" />
            <polygon class="cls-4" points="390.13 91.35 389.8 104.85 349.53 104.84 349.82 91.34 390.13 91.35" />
            <polygon class="cls-6" points="623.15 101.27 622.63 114.77 622.05 114.77 622.57 101.27 623.15 101.27" />
            <polygon class="cls-4" points="137.36 89.68 137.25 103.2 136.59 85.73 136.7 72.26 137.36 89.68" />
            <polygon class="cls-15" points="139.13 90.41 139.02 103.93 138.35 86.45 138.46 72.98 139.13 90.41" />
            <polygon class="cls-6" points="556.14 101.3 555.67 114.81 555.1 114.81 555.56 101.3 556.14 101.3" />
            <polygon class="cls-4" points="139.13 90.41 139.02 103.93 97.14 103.92 97.22 90.4 139.13 90.41" />
            <polygon class="cls-6" points="644.74 105.14 644.2 118.66 631.66 118.66 632.19 105.14 644.74 105.14" />
            <polygon class="cls-16" points="632.19 105.14 631.66 118.66 628.68 102.19 629.21 88.72 632.19 105.14" />
            <polygon class="cls-4" points="630.45 105.14 629.92 118.66 627.08 102.91 627.61 89.44 630.45 105.14" />
            <polygon class="cls-6" points="630.45 105.14 629.92 118.66 623.32 118.66 623.85 105.14 630.45 105.14" />
            <polygon class="cls-16" points="623.85 105.14 623.32 118.66 622.63 114.77 623.15 101.27 623.85 105.14" />
            <g class="cls-3">
                <g class="cls-17">
                    <g class="cls-3">
                        <path class="cls-18" d="M622.57,101.27,622,114.77h-.25l.52-13.51h.25" />
                        <path class="cls-19" d="M622.32,101.27l-.52,13.51h-1l.52-13.51h1" />
                        <path class="cls-20" d="M621.36,101.3l-.52,13.51-.31,0-.3,0-.3,0-.29,0,.52-13.51.29,0,.3,0,.3,0,.31,0"
                        />
                        <path class="cls-21" d="M620.16,101.39l-.52,13.51q-.56.06-1.09.15t-1,.2q-.49.11-.94.25t-.85.3l.52-13.51q.4-.16.85-.3t.94-.25q.49-.11,1-.2t1.09-.15"
                        />
                        <path class="cls-20" d="M616.26,102.29l-.52,13.51-.23.09-.22.1-.21.1-.21.1.52-13.51.21-.1.21-.1.22-.1.23-.09"
                        />
                        <path class="cls-19" d="M615.39,102.69l-.52,13.51-.15.08-.14.08-.14.08-.13.09.52-13.51.13-.09.14-.08.14-.08.15-.08"
                        />
                        <path class="cls-18" d="M614.82,103l-.52,13.51-.11.08-.11.08-.1.08-.1.08.52-13.51.1-.08.1-.08.11-.08.11-.07"
                        />
                        <path class="cls-22" d="M614.4,103.32l-.52,13.51-.09.07-.08.07-.08.07-.08.07.52-13.51.08-.07.08-.07.08-.07.09-.07"
                        />
                        <path class="cls-23" d="M614.08,103.62l-.52,13.51-.07.07-.06.07-.06.07-.06.07.52-13.51.06-.07.06-.07.06-.07.07-.07"
                        />
                        <path class="cls-24" d="M613.82,103.9l-.52,13.51-.05.07,0,.07,0,.07,0,.07.52-13.52,0-.07,0-.07,0-.07.05-.07"
                        />
                        <path class="cls-25" d="M613.63,104.19l-.52,13.52,0,.07,0,.07,0,.07,0,.07.52-13.52,0-.07,0-.07,0-.07,0-.07"
                        />
                        <path class="cls-26" d="M613.49,104.48,613,118l0,.08,0,.08,0,.08,0,.08.51-13.52,0-.08,0-.08,0-.08,0-.08"
                        />
                        <path class="cls-27" d="M613.4,104.79l-.51,13.52v.29l.51-13.52v-.29" />
                    </g>
                </g>
            </g>
            <polygon class="cls-4" points="622.69 105.14 622.17 118.66 621.57 115.27 622.09 101.76 622.69 105.14" />
            <polygon class="cls-4" points="622.71 105.2 622.18 118.72 622.17 118.66 622.69 105.14 622.71 105.2" />
            <g class="cls-3">
                <g class="cls-28">
                    <g class="cls-3">
                        <path class="cls-4" d="M622.09,101.76l-.52,13.51h-.5l.52-13.51h.5" />
                        <path class="cls-4" d="M621.59,101.78l-.52,13.51-.27,0-.27,0-.27,0-.26,0,.52-13.51.26,0,.27,0,.27,0,.27,0"
                        />
                        <path class="cls-4" d="M620.52,101.87,620,115.37l-1,.13-.9.18q-.43.1-.83.22t-.75.26l.52-13.51q.36-.14.75-.26t.83-.22l.9-.18,1-.13"
                        />
                        <path class="cls-4" d="M617.07,102.66l-.52,13.51-.2.08-.2.09-.19.09-.18.09L616.3,103l.18-.09.19-.09.2-.09.2-.08"
                        />
                        <path class="cls-4" d="M616.3,103l-.52,13.51-.13.07-.13.07-.12.07-.12.07.52-13.51.12-.07.12-.07.13-.07.13-.07"
                        />
                        <path class="cls-4" d="M615.8,103.3l-.52,13.51-.1.07-.09.07L615,117l-.09.07.52-13.51.09-.07.09-.07.09-.07.1-.07"
                        />
                        <path class="cls-4" d="M615.43,103.57l-.52,13.51-.08.06-.07.06-.07.07-.07.07.52-13.51.07-.07.07-.07.07-.06.08-.06"
                        />
                        <path class="cls-4" d="M615.15,103.83l-.52,13.51-.06.06-.06.06-.05.06-.05.06.52-13.52L615,104,615,104l.06-.06.06-.06"
                        />
                        <path class="cls-4" d="M614.92,104.09l-.52,13.52,0,.06,0,.06,0,.06,0,.06.52-13.52,0-.06,0-.06,0-.06,0-.06"
                        />
                        <path class="cls-4" d="M614.75,104.34l-.52,13.52,0,.06,0,.06,0,.07,0,.07.52-13.52,0-.07,0-.07,0-.06,0-.06"
                        />
                        <path class="cls-4" d="M614.63,104.6l-.52,13.52,0,.07,0,.07,0,.07,0,.07.52-13.52,0-.07,0-.07,0-.07,0-.07"
                        />
                        <path class="cls-4" d="M614.55,104.87,614,118.39v.27l.52-13.52v-.27" />
                    </g>
                </g>
            </g>
            <path class="cls-8" d="M622.09,101.76l.6,3.38h-8.18a1.93,1.93,0,0,1,.6-1.28,5.07,5.07,0,0,1,1.59-1,11.32,11.32,0,0,1,2.39-.73A17.9,17.9,0,0,1,622.09,101.76Z"
            />
            <polygon class="cls-6" points="622.69 105.14 622.17 118.66 614 118.66 614.51 105.14 622.69 105.14" />
            <g class="cls-3">
                <g class="cls-29">
                    <g class="cls-3">
                        <path class="cls-4" d="M613.36,105.14l-.52,13.52v-.07l.51-13.52v.07" />
                    </g>
                </g>
            </g>
            <polygon class="cls-4" points="622.71 105.2 622.18 118.72 614 118.72 614.52 105.2 622.71 105.2" />
            <polygon class="cls-4" points="614.52 105.2 614 118.72 614 118.66 614.51 105.14 614.52 105.2" />
            <polygon class="cls-4" points="622.69 105.14 622.71 105.2 614.52 105.2 614.51 105.14 622.69 105.14" />
            <polygon class="cls-4" points="643.13 105.87 642.59 119.39 630.92 119.39 631.45 105.87 643.13 105.87" />
            <path class="cls-8" d="M627.61,89.44l2.85,15.69h-6.61l-.69-3.87h-.58a21.19,21.19,0,0,0-3.64.3,13.6,13.6,0,0,0-2.92.82,6,6,0,0,0-1.94,1.23,2.17,2.17,0,0,0-.71,1.52H590.87l-2.67-15.7h39.4Z"
            />
            <polygon class="cls-18" points="590.87 105.13 590.38 118.65 587.72 102.91 588.21 89.44 590.87 105.13" />
            <polygon class="cls-6" points="613.37 105.14 612.85 118.66 590.38 118.65 590.87 105.13 613.37 105.14" />
            <polygon class="cls-4" points="589.13 105.13 588.64 118.65 585.98 102.91 586.47 89.43 589.13 105.13" />
            <g class="cls-3">
                <g class="cls-30">
                    <g class="cls-3">
                        <path class="cls-31" d="M566.65,105.13l-.48,13.52a2.59,2.59,0,0,0-.41-.72,4.22,4.22,0,0,0-.68-.67,6.82,6.82,0,0,0-.91-.61,10.23,10.23,0,0,0-1.12-.54l.47-13.52a10.26,10.26,0,0,1,1.13.54,6.83,6.83,0,0,1,.91.61,4.21,4.21,0,0,1,.68.67,2.58,2.58,0,0,1,.41.71"
                        />
                        <path class="cls-32" d="M563.53,102.6l-.47,13.52-.22-.09-.23-.09-.23-.08-.24-.08.47-13.51.24.08.23.08.23.09.22.09"
                        />
                        <path class="cls-33" d="M562.6,102.25l-.47,13.51-.2-.06-.2-.06-.2-.06-.21-.06L561.8,102l.21.06.2.06.2.06.2.06"
                        />
                        <path class="cls-34" d="M561.8,102l-.47,13.51-.18,0-.18,0-.19,0-.19,0,.47-13.51.19,0,.19,0,.18,0,.18,0"
                        />
                        <path class="cls-27" d="M561.06,101.83l-.47,13.51-.17,0-.18,0-.18,0-.18,0,.47-13.51.18,0,.18,0,.18,0,.17,0"
                        />
                        <path class="cls-26" d="M560.35,101.68l-.47,13.51-.17,0-.17,0-.18,0-.18,0,.47-13.51.18,0,.18,0,.17,0,.17,0"
                        />
                        <path class="cls-25" d="M559.66,101.56l-.47,13.51-.17,0-.17,0-.17,0-.18,0,.47-13.51.18,0,.18,0,.17,0,.17,0"
                        />
                        <path class="cls-24" d="M559,101.47,558.49,115l-.18,0-.18,0-.18,0-.18,0,.47-13.51.18,0,.18,0,.18,0,.18,0"
                        />
                        <path class="cls-23" d="M558.25,101.39l-.47,13.51-.18,0H557l.47-13.51h.55l.18,0" />
                        <path class="cls-22" d="M557.51,101.34,557,114.85h-.78l.47-13.51h.78" />
                        <path class="cls-18" d="M556.74,101.3l-.47,13.51h-.59l.47-13.51h.6" />
                    </g>
                </g>
            </g>
            <polygon class="cls-6" points="589.13 105.13 588.64 118.65 566.18 118.65 566.65 105.13 589.13 105.13" />
            <g class="cls-3">
                <g class="cls-35">
                    <g class="cls-3">
                        <path class="cls-4" d="M565.48,105.13,565,118.65a2.33,2.33,0,0,0-.37-.62,3.78,3.78,0,0,0-.59-.58,6.06,6.06,0,0,0-.8-.53,9,9,0,0,0-1-.47l.47-13.52a9.06,9.06,0,0,1,1,.47,6.07,6.07,0,0,1,.8.53,3.78,3.78,0,0,1,.59.58,2.32,2.32,0,0,1,.37.62"
                        />
                        <path class="cls-4" d="M562.74,102.93l-.47,13.52-.2-.08-.2-.08-.21-.08-.21-.07.47-13.52.21.07.21.07.2.08.2.08"
                        />
                        <path class="cls-4" d="M561.92,102.63l-.47,13.52-.17-.06-.17-.05-.18-.05-.18-.05.47-13.52.18.05.18.05.17.05.17.06"
                        />
                        <path class="cls-4" d="M561.22,102.42l-.47,13.52-.16,0-.16,0-.17,0-.17,0,.47-13.51.17,0,.17,0,.16,0,.16,0"
                        />
                        <path class="cls-4" d="M560.56,102.25l-.47,13.51-.16,0-.16,0-.16,0-.16,0,.47-13.51.16,0,.16,0,.16,0,.16,0"
                        />
                        <path class="cls-4" d="M559.93,102.12l-.47,13.51-.15,0-.15,0-.16,0-.16,0,.47-13.51.16,0,.16,0,.15,0,.15,0"
                        />
                        <path class="cls-4" d="M559.31,102l-.47,13.51-.15,0-.15,0-.16,0-.16,0,.47-13.51.16,0,.16,0,.15,0,.15,0"
                        />
                        <path class="cls-4" d="M558.69,101.93l-.47,13.51-.16,0-.16,0-.16,0h-.16l.47-13.51h.16l.16,0,.16,0,.16,0"
                        />
                        <path class="cls-4" d="M558.06,101.86l-.47,13.51h-.65l.47-13.51h.65" />
                        <path class="cls-4" d="M557.41,101.82l-.47,13.51h-.61l.47-13.51h.61" />
                    </g>
                </g>
            </g>
            <g class="cls-3">
                <g class="cls-36">
                    <g class="cls-3">
                        <path class="cls-4" d="M565.54,105.24l-.47,13.52v-.09l0,0,.47-13.52,0,0v.09" />
                    </g>
                </g>
            </g>
            <g class="cls-3">
                <g class="cls-37">
                    <g class="cls-3">
                        <path class="cls-4" d="M565.54,105.24l-.47,13.52v-.09l0,0,.47-13.52,0,0v.09" />
                    </g>
                </g>
            </g>
            <polygon class="cls-38" points="557.33 105.13 556.87 118.65 556.33 115.3 556.8 101.79 557.33 105.13" />
            <path class="cls-8" d="M556.8,101.79a20.09,20.09,0,0,1,3.08.32,15,15,0,0,1,2.62.72,8,8,0,0,1,1.94,1,3,3,0,0,1,1,1.26h-8.15Z"
            />
            <polygon class="cls-6" points="565.48 105.13 565.01 118.65 556.87 118.65 557.33 105.13 565.48 105.13" />
            <polygon class="cls-4" points="556.17 105.13 555.71 118.65 555.1 114.81 555.56 101.3 556.17 105.13" />
            <polygon class="cls-4" points="565.54 105.24 565.06 118.77 556.88 118.77 557.35 105.24 565.54 105.24" />
            <polygon class="cls-4" points="557.35 105.24 556.88 118.77 556.87 118.65 557.33 105.13 557.35 105.24" />
            <path class="cls-4" d="M565.48,105.13l0,0v.09h-8.19l0-.11Z" />
            <path class="cls-8" d="M586.47,89.43l2.66,15.7H566.65a3.43,3.43,0,0,0-1.24-1.5,9.4,9.4,0,0,0-2.36-1.22,17.65,17.65,0,0,0-3.19-.82,23.1,23.1,0,0,0-3.72-.3h-.58l.61,3.83h-6.65L547,89.42Z"
            />
            <polygon class="cls-6" points="556.17 105.13 555.71 118.65 549.06 118.65 549.52 105.13 556.17 105.13" />
            <polygon class="cls-38" points="549.52 105.13 549.06 118.65 546.59 102.9 547.04 89.42 549.52 105.13" />
            <polygon class="cls-6" points="435.57 94.77 435.2 108.28 110.82 108.24 110.91 94.7 435.57 94.77" />
            <polygon class="cls-4" points="547.9 105.86 547.45 119.38 545.5 106.97 545.96 93.48 547.9 105.86" />
            <polygon class="cls-4" points="631.45 105.87 630.92 119.39 547.45 119.38 547.9 105.86 631.45 105.87" />
            <polygon class="cls-4" points="433.92 95.5 433.56 109.01 112.58 108.97 112.67 95.44 433.92 95.5" />
            <polygon class="cls-6" points="638.63 108.66 638.1 122.19 598.36 122.19 598.86 108.66 638.63 108.66" />
            <polygon class="cls-4" points="637.04 109.39 636.5 122.92 600.22 122.92 600.73 109.39 637.04 109.39" />
            <polygon class="cls-6" points="389.55 110.32 389.22 123.88 356.81 123.88 357.11 110.31 389.55 110.32" />
            <polygon class="cls-4" points="387.88 111.05 387.56 124.61 358.62 124.61 358.92 111.05 387.88 111.05" />
            <polygon class="cls-16" points="641.73 125.52 641.19 139.09 638.1 122.19 638.63 108.66 641.73 125.52" />
            <polygon class="cls-4" points="639.85 124.78 639.31 138.35 636.5 122.92 637.04 109.39 639.85 124.78" />
            <polygon class="cls-14" points="639.86 124.78 639.31 138.35 602.87 138.36 603.38 124.78 639.86 124.78" />
            <polygon class="cls-39" points="603.38 124.78 602.87 138.36 600.22 122.92 600.73 109.39 603.38 124.78" />
            <polygon class="cls-4" points="601.76 125.52 601.25 139.1 598.36 122.19 598.86 108.66 601.76 125.52" />
            <polygon class="cls-4" points="641.73 125.52 641.19 139.09 601.25 139.1 601.76 125.52 641.73 125.52" />
            <polygon class="cls-40" points="649.07 128.48 648.52 142.07 644.2 118.66 644.74 105.14 649.07 128.48" />
            <polygon class="cls-4" points="647.18 127.74 646.63 141.33 642.59 119.39 643.13 105.87 647.18 127.74" />
            <polygon class="cls-11" points="391.07 124.03 390.74 137.63 389.22 123.88 389.55 110.32 391.07 124.03" />
            <polygon class="cls-4" points="389.24 123.3 388.91 136.89 387.56 124.61 387.88 111.05 389.24 123.3" />
            <polygon class="cls-6" points="635.42 127.74 634.89 141.33 550.88 141.34 551.35 127.74 635.42 127.74" />
            <polygon class="cls-41" points="360.17 123.3 359.87 136.9 358.62 124.61 358.92 111.05 360.17 123.3" />
            <polygon class="cls-14" points="389.24 123.3 388.91 136.89 359.87 136.9 360.17 123.3 389.24 123.3" />
            <polygon class="cls-4" points="560.17 128.48 559.7 142.08 552.74 142.08 553.21 128.48 560.17 128.48" />
            <polygon class="cls-4" points="358.5 124.03 358.2 137.64 356.81 123.88 357.11 110.31 358.5 124.03" />
            <polygon class="cls-4" points="391.07 124.03 390.74 137.63 358.2 137.64 358.5 124.03 391.07 124.03" />
            <polygon class="cls-38" points="555.93 145.71 555.46 159.36 552.74 142.08 553.21 128.48 555.93 145.71" />
            <polygon class="cls-4" points="553.39 140.7 552.92 154.33 550.88 141.34 551.35 127.74 553.39 140.7" />
            <polygon class="cls-6" points="553.39 140.7 552.92 154.33 497.7 154.34 498.13 140.7 553.39 140.7" />
            <polygon class="cls-42" points="441.25 140.21 440.88 153.86 435.2 108.28 435.57 94.77 441.25 140.21" />
            <polygon class="cls-4" points="439.4 139.47 439.02 153.11 433.56 109.01 433.92 95.5 439.4 139.47" />
            <polygon class="cls-6" points="439.4 139.47 439.02 153.11 220.91 153.15 221.09 139.49 439.4 139.47" />
            <polygon class="cls-4" points="441.25 140.21 440.88 153.86 222.72 153.9 222.91 140.24 441.25 140.21" />
            <polygon class="cls-6" points="485.45 144.44 485.04 158.1 438.63 157.62 439 143.97 485.45 144.44" />
            <polygon class="cls-4" points="498.8 145.48 498.38 159.13 497.7 154.34 498.13 140.7 498.8 145.48" />
            <polygon class="cls-4" points="483.8 145.19 483.39 158.85 440.47 158.37 440.85 144.71 483.8 145.19" />
            <polygon class="cls-6" points="399.49 144.46 399.15 158.12 352.91 158.13 353.21 144.46 399.49 144.46" />
            <polygon class="cls-43" points="114.03 139.5 113.94 153.17 112.58 108.97 112.67 95.44 114.03 139.5" />
            <polygon class="cls-6" points="153.66 139.5 153.53 153.17 113.94 153.17 114.03 139.5 153.66 139.5" />
            <polygon class="cls-4" points="112.29 140.25 112.2 153.92 110.82 108.24 110.91 94.7 112.29 140.25" />
            <polygon class="cls-4" points="151.93 140.24 151.8 153.92 112.2 153.92 112.29 140.25 151.93 140.24" />
            <polygon class="cls-6" points="268.84 144.02 268.62 157.69 228.54 157.7 228.73 144.03 268.84 144.02" />
            <polygon class="cls-4" points="441.26 162.17 440.88 175.88 438.63 157.62 439 143.97 441.26 162.17" />
            <polygon class="cls-4" points="222.25 158.19 222.06 171.91 220.91 153.15 221.09 139.49 222.25 158.19" />
            <polygon class="cls-44" points="224.07 158.95 223.88 172.67 222.72 153.9 222.91 140.24 224.07 158.95" />
            <polygon class="cls-4" points="354.98 162.19 354.67 175.91 352.91 158.13 353.21 144.46 354.98 162.19" />
            <polygon class="cls-7" points="154.45 158.21 154.32 171.94 153.53 153.17 153.66 139.5 154.45 158.21" />
            <polygon class="cls-6" points="222.25 158.19 222.06 171.91 154.32 171.94 154.45 158.21 222.25 158.19" />
            <path class="cls-4" d="M110.91,94.7l324.66.07,5.69,45.44-218.35,0,1.16,18.71-71.36,0-.78-18.72H112.29ZM439.4,139.47l-5.48-44-321.25-.07L114,139.5h39.63l.79,18.71,67.8,0-1.15-18.7,218.3,0"
            />
            <polygon class="cls-4" points="224.07 158.95 223.88 172.67 152.59 172.69 152.71 158.96 224.07 158.95" />
            <polygon class="cls-4" points="152.71 158.96 152.59 172.69 151.8 153.92 151.93 140.24 152.71 158.96" />
            <polygon class="cls-4" points="229.89 162.23 229.7 175.96 228.54 157.7 228.73 144.03 229.89 162.23" />
            <path class="cls-8" d="M630.59,105.87h12.55l4,21.87H551.35l2,13H498.13l.68,4.78H487.37l-.14-1h-1.77L439,144l2.26,18.2H401.49l-2-17.72H353.21L355,162.19l-84.76,0L268.84,144H228.73l1.16,18.2-85.75,0L143.42,144H98.64L97.22,90.4h41.91L138.46,73,348,73.06l1.83,18.28h40.3l-2-18.28,42.1,0,2.24,18h45.68l1.68-.47-.14-1h11.25l.54,3.8H546l1.95,12.38ZM441.25,140.21l-5.69-45.44L110.9,94.7l1.38,45.54h39.64l.78,18.72,71.36,0-1.16-18.71,218.35,0m200.48-14.7-3.09-16.86H598.86l2.9,16.86h40"
            />
            <path class="cls-4" d="M598.86,108.66h39.78l3.09,16.86h-40Zm41,16.12L637,109.39H600.73l2.66,15.39h36.47" />
            <polygon class="cls-6" points="647.18 127.74 646.63 141.33 634.89 141.33 635.42 127.74 647.18 127.74" />
            <polygon class="cls-4" points="649.07 128.48 648.52 142.07 635.9 142.07 636.44 128.48 649.07 128.48" />
            <polygon class="cls-4" points="634.69 128.48 634.15 142.07 627.98 142.07 628.51 128.48 634.69 128.48" />
            <polygon class="cls-4" points="627.35 128.48 626.82 142.07 626.8 141.96 627.33 128.37 627.35 128.48" />
            <polygon class="cls-4" points="627.33 128.37 626.8 141.96 618.57 141.96 619.09 128.37 627.33 128.37" />
            <polygon class="cls-4" points="627.96 131.87 627.43 145.47 626.82 142.07 627.35 128.48 627.96 131.87" />
            <path class="cls-4" d="M627.33,128.37l0,.11h-8.21v-.08l0,0Z" />
            <g class="cls-3">
                <g class="cls-45">
                    <g class="cls-3">
                        <path class="cls-4" d="M619.15,128.48l-.52,13.59V142l0,0,.52-13.59,0,0v.08" />
                    </g>
                </g>
            </g>
            <polygon class="cls-4" points="627.35 128.48 626.82 142.07 618.62 142.07 619.14 128.48 627.35 128.48" />
            <polygon class="cls-4" points="617.97 128.48 617.45 142.07 594.34 142.07 594.84 128.48 617.97 128.48" />
            <g class="cls-3">
                <g class="cls-46">
                    <g class="cls-3">
                        <polyline class="cls-4" points="569.57 128.39 569.09 141.98 569.09 141.98 569.09 141.97 569.09 141.97 569.09 141.97 569.57 128.37 569.57 128.38 569.57 128.38 569.57 128.38 569.57 128.39"
                        />
                    </g>
                </g>
            </g>
            <path class="cls-4" d="M357.11,110.32h32.44L391.07,124H358.5Zm32.13,13-1.36-12.25h-29l1.25,12.25h29.06" />
            <polygon class="cls-12" points="387.88 111.05 389.24 123.3 360.17 123.3 358.92 111.05 387.88 111.05" />
            <polygon class="cls-4" points="593.09 128.48 592.59 142.07 570.24 142.08 570.73 128.48 593.09 128.48" />
            <polygon class="cls-4" points="569.57 128.37 569.09 141.97 560.85 141.97 561.33 128.37 569.57 128.37" />
            <g class="cls-3">
                <g class="cls-47">
                    <g class="cls-3">
                        <path class="cls-4" d="M569.57,128.39,569.09,142v.08l.48-13.59v-.08" />
                    </g>
                </g>
            </g>
            <g class="cls-3">
                <g class="cls-48">
                    <g class="cls-3">
                        <polyline class="cls-4" points="569.56 128.48 569.08 142.08 569.08 142.07 569.08 142.07 569.08 142.06 569.08 142.06 569.56 128.46 569.56 128.47 569.56 128.47 569.56 128.48 569.56 128.48"
                        />
                    </g>
                </g>
            </g>
            <polygon class="cls-4" points="569.56 128.48 569.08 142.08 560.87 142.08 561.34 128.48 569.56 128.48" />
            <polygon class="cls-4" points="561.34 128.48 560.87 142.08 560.85 141.97 561.33 128.37 561.34 128.48" />
            <g class="cls-3">
                <g class="cls-49">
                    <g class="cls-3">
                        <path class="cls-22" d="M628,131.87l-.53,13.6h-.65l.53-13.6H628" />
                        <path class="cls-23" d="M627.31,131.84l-.53,13.6h-.65l.53-13.6h.65" />
                        <path class="cls-24" d="M626.66,131.8l-.53,13.6H626l-.16,0-.16,0-.16,0,.53-13.6.16,0,.16,0,.16,0h.16"
                        />
                        <path class="cls-25" d="M626,131.73l-.53,13.6-.16,0-.16,0-.15,0-.15,0,.53-13.6.15,0,.15,0,.16,0,.16,0"
                        />
                        <path class="cls-26" d="M625.41,131.64l-.53,13.6-.16,0-.16,0-.15,0-.15,0,.53-13.6.15,0,.15,0,.16,0,.16,0"
                        />
                        <path class="cls-27" d="M624.79,131.54l-.53,13.6-.16,0-.16,0-.16,0-.16,0,.53-13.6.16,0,.16,0,.16,0,.16,0"
                        />
                        <path class="cls-34" d="M624.15,131.4l-.53,13.6-.17,0-.17,0-.16,0-.16,0,.53-13.6.16,0,.16,0,.17,0,.17,0"
                        />
                        <path class="cls-33" d="M623.49,131.24l-.53,13.6-.18-.05-.18-.05-.18-.05-.17-.06.53-13.6.17.06.18.05.18.05.18.05"
                        />
                        <path class="cls-32" d="M622.78,131l-.53,13.6-.22-.07-.21-.08-.21-.08-.2-.08.53-13.6.2.08.21.08.21.08.22.07"
                        />
                        <path class="cls-31" d="M621.95,130.71l-.53,13.6a9.26,9.26,0,0,1-1-.48,6.27,6.27,0,0,1-.81-.54,3.94,3.94,0,0,1-.61-.59,2.45,2.45,0,0,1-.38-.63l.52-13.59a2.44,2.44,0,0,0,.38.63,3.94,3.94,0,0,0,.61.59,6.28,6.28,0,0,0,.81.54,9.29,9.29,0,0,0,1,.48"
                        />
                    </g>
                </g>
            </g>
            <g class="cls-3">
                <g class="cls-50">
                    <g class="cls-3">
                        <path class="cls-4" d="M622.1,131.4l-.53,13.6-.24-.08-.24-.09-.23-.09-.23-.09.53-13.6.23.09.23.09.24.09.24.08"
                        />
                        <path class="cls-4" d="M621.16,131.06l-.53,13.6a10.5,10.5,0,0,1-1.14-.55,7,7,0,0,1-.93-.62,4.37,4.37,0,0,1-.69-.68,2.68,2.68,0,0,1-.42-.73l.52-13.59a2.67,2.67,0,0,0,.42.72,4.36,4.36,0,0,0,.69.68,7,7,0,0,0,.93.62,10.53,10.53,0,0,0,1.14.55"
                        />
                    </g>
                </g>
            </g>
            <g class="cls-3">
                <g class="cls-51">
                    <g class="cls-3">
                        <path class="cls-4" d="M622.1,131.4l-.53,13.6-.24-.08-.24-.09-.23-.09-.23-.09.53-13.6.23.09.23.09.24.09.24.08"
                        />
                    </g>
                </g>
            </g>
            <polygon class="cls-16" points="629.21 132.38 628.68 145.98 627.98 142.07 628.51 128.48 629.21 132.38" />
            <polygon class="cls-4" points="629.21 132.38 628.68 145.98 628.09 145.98 628.62 132.38 629.21 132.38" />
            <g class="cls-3">
                <g class="cls-52">
                    <g class="cls-3">
                        <path class="cls-4" d="M628.62,132.38l-.53,13.6h-.6l.53-13.6h.6" />
                        <path class="cls-4" d="M628,132.37,627.5,146h-.78l.53-13.6H628" />
                        <path class="cls-4" d="M627.25,132.34l-.53,13.6h-.56l-.18,0,.53-13.6.18,0h.56" />
                        <path class="cls-4" d="M626.51,132.28l-.53,13.6-.18,0-.18,0-.18,0-.18,0,.53-13.6.18,0,.18,0,.18,0,.18,0"
                        />
                        <path class="cls-4" d="M625.79,132.2l-.53,13.6-.18,0-.18,0-.18,0-.17,0,.53-13.6.17,0,.18,0,.18,0,.18,0"
                        />
                        <path class="cls-4" d="M625.09,132.11l-.53,13.6-.18,0-.18,0-.18,0-.17,0,.53-13.6.17,0,.18,0,.18,0,.18,0"
                        />
                        <path class="cls-4" d="M624.38,132l-.53,13.6-.18,0-.18,0-.18,0-.18,0,.53-13.6.18,0,.18,0,.18,0,.18,0"
                        />
                        <path class="cls-4" d="M623.66,131.84l-.53,13.6-.19,0-.19,0-.19,0-.18,0,.53-13.6.18,0,.19,0,.19,0,.19,0"
                        />
                        <path class="cls-4" d="M622.91,131.65l-.53,13.6-.21-.06-.21-.06-.2-.06-.2-.06.53-13.6.2.06.2.06.21.06.21.06"
                        />
                        <path class="cls-4" d="M622.1,131.4l-.53,13.6-.24-.08-.24-.09-.23-.09-.23-.09.53-13.6.23.09.23.09.24.09.24.08"
                        />
                    </g>
                </g>
            </g>
            <g class="cls-3">
                <g class="cls-53">
                    <g class="cls-3">
                        <path class="cls-27" d="M569.56,128.48l-.48,13.6v.24l.48-13.6v-.24" />
                        <path class="cls-26" d="M569.52,128.73l-.48,13.6,0,.07,0,.07,0,.07,0,.07.48-13.6,0-.07,0-.07,0-.07,0-.07"
                        />
                        <path class="cls-25" d="M569.44,129,569,142.6l0,.07,0,.07,0,.07,0,.07.48-13.6,0-.06,0-.07,0-.07,0-.07"
                        />
                        <path class="cls-24" d="M569.31,129.26l-.48,13.6,0,.07,0,.06,0,.06,0,.06.48-13.6,0-.06,0-.06,0-.06,0-.07"
                        />
                        <path class="cls-23" d="M569.14,129.52l-.48,13.6-.05.07-.06.06-.06.06-.06.06.48-13.6.06-.06.06-.06.06-.06.05-.07"
                        />
                        <path class="cls-22" d="M568.91,129.78l-.48,13.6-.07.07-.07.07-.07.07-.08.06.48-13.6.08-.06.07-.07.07-.07.07-.07"
                        />
                        <path class="cls-18" d="M568.62,130l-.48,13.6-.09.07-.09.07-.1.07-.1.07.48-13.6.1-.07.1-.07.09-.07.09-.07"
                        />
                        <path class="cls-19" d="M568.24,130.31l-.48,13.6-.12.08-.12.07-.13.07-.13.07.48-13.6.13-.07.13-.07.12-.07.12-.08"
                        />
                        <path class="cls-20" d="M567.74,130.61l-.48,13.6-.18.09-.19.09-.2.09-.21.08L567,131l.21-.08.2-.09.19-.09.18-.09"
                        />
                        <path class="cls-21" d="M567,131l-.48,13.6q-.36.14-.76.27t-.84.23l-.91.18-1,.14.48-13.61,1-.13.91-.18q.44-.1.84-.23T567,131"
                        />
                        <path class="cls-20" d="M563.48,131.77,563,145.37l-.27,0-.27,0-.27,0-.28,0,.48-13.61.28,0,.27,0,.27,0,.27,0"
                        />
                        <path class="cls-19" d="M562.39,131.85l-.48,13.61h-.5l.48-13.61h.5" />
                    </g>
                </g>
            </g>
            <path class="cls-8" d="M569.56,128.48a2,2,0,0,1-.64,1.28,5.25,5.25,0,0,1-1.62,1.05,11.52,11.52,0,0,1-2.41.73,18.08,18.08,0,0,1-3,.32l-.54-3.39Z"
            />
            <polygon class="cls-38" points="561.89 131.88 561.41 145.48 560.87 142.08 561.34 128.48 561.89 131.88" />
            <g class="cls-3">
                <g class="cls-54">
                    <g class="cls-3">
                        <path class="cls-4" d="M570.72,128.48l-.48,13.59s0,.05,0,.08v.16l0,.08.48-13.6,0-.08v-.16s0-.05,0-.08"
                        />
                        <path class="cls-4" d="M570.68,128.8l-.48,13.6,0,.08,0,.08,0,.08,0,.08.48-13.6,0-.08,0-.08,0-.08,0-.08"
                        />
                        <path class="cls-4" d="M570.59,129.11l-.48,13.6,0,.08,0,.07,0,.07,0,.07.48-13.6,0-.07,0-.07,0-.07,0-.08"
                        />
                        <path class="cls-4" d="M570.44,129.41,570,143l0,.07,0,.07-.05.07-.05.07.48-13.6.05-.07.05-.07,0-.07,0-.07"
                        />
                        <path class="cls-4" d="M570.24,129.7l-.48,13.6-.06.07-.06.07-.07.07-.07.07L570,130l.07-.07.07-.07.06-.07.06-.07"
                        />
                        <path class="cls-4" d="M570,130l-.48,13.6-.08.08-.08.07-.08.07-.09.07.48-13.6.09-.07.08-.07.08-.07L570,130"
                        />
                        <path class="cls-4" d="M569.66,130.29l-.48,13.6-.1.08-.1.08-.11.08-.11.08.48-13.6.11-.08.11-.08.11-.08.1-.08"
                        />
                        <path class="cls-4" d="M569.23,130.6l-.48,13.6-.14.09-.14.09-.15.08-.15.08.48-13.6.15-.08.15-.08.14-.09.14-.09"
                        />
                        <path class="cls-4" d="M568.65,130.94l-.48,13.6-.21.11-.22.1-.22.1-.23.1.48-13.6.23-.09.22-.1.22-.1.21-.1"
                        />
                        <path class="cls-4" d="M567.77,131.34l-.48,13.6q-.41.16-.86.3t-1,.26q-.5.12-1,.21t-1.1.15l.48-13.61q.57-.06,1.1-.15t1-.21q.5-.12,1-.25t.86-.3"
                        />
                        <path class="cls-4" d="M563.82,132.25l-.48,13.61-.3,0-.3,0-.31,0-.31,0,.48-13.61.31,0,.31,0,.3,0,.3,0"
                        />
                        <path class="cls-4" d="M562.61,132.35,562.13,146h-1l.48-13.61h1" />
                        <path class="cls-4" d="M561.64,132.38,561.17,146h-.26l.47-13.61h.26" />
                    </g>
                </g>
            </g>
            <polygon class="cls-4" points="561.38 132.38 560.91 145.99 560.32 145.99 560.8 132.38 561.38 132.38" />
            <polygon class="cls-4" points="560.8 132.38 560.32 145.99 559.7 142.08 560.17 128.48 560.8 132.38" />
            <polygon class="cls-4" points="553.5 141.44 553.04 155.08 499.57 155.09 499.99 141.45 553.5 141.44" />
            <polygon class="cls-16" points="639.71 146.45 639.16 160.09 635.9 142.07 636.44 128.48 639.71 146.45" />
            <polygon class="cls-4" points="637.81 145.7 637.27 159.34 634.15 142.07 634.69 128.48 637.81 145.7" />
            <polygon class="cls-6" points="637.81 145.7 637.27 159.34 611.06 159.35 611.58 145.7 637.81 145.7" />
            <polygon class="cls-6" points="611.58 145.7 611.06 159.35 610.18 159.35 610.7 145.7 611.58 145.7" />
            <polygon class="cls-6" points="610.7 145.7 610.18 159.35 597.26 159.35 597.77 145.7 610.7 145.7" />
            <path class="cls-8" d="M634.69,128.48l3.12,17.22h-40l-2.93-17.22H618a3.55,3.55,0,0,0,1.27,1.52,9.65,9.65,0,0,0,2.4,1.24,17.9,17.9,0,0,0,3.23.83,23.11,23.11,0,0,0,3.75.3h.58l-.7-3.89Z"
            />
            <polygon class="cls-18" points="597.77 145.7 597.26 159.35 594.34 142.07 594.84 128.48 597.77 145.7" />
            <polygon class="cls-4" points="596.01 145.7 595.5 159.35 592.59 142.07 593.09 128.48 596.01 145.7" />
            <polygon class="cls-4" points="639.71 146.45 639.16 160.09 612.06 160.1 612.58 146.45 639.71 146.45" />
            <polygon class="cls-6" points="596.01 145.7 595.5 159.35 555.46 159.36 555.93 145.71 596.01 145.7" />
            <path class="cls-8" d="M593.09,128.48,596,145.7H555.93l-2.72-17.23h7l.62,3.9h.58a21.35,21.35,0,0,0,3.66-.3,13.84,13.84,0,0,0,2.95-.83,6.23,6.23,0,0,0,2-1.24,2.28,2.28,0,0,0,.75-1.53Z"
            />
            <polygon class="cls-6" points="487.22 144.44 486.81 158.1 485.04 158.1 485.45 144.44 487.22 144.44" />
            <polygon class="cls-10" points="487.37 145.48 486.95 159.14 486.81 158.1 487.22 144.44 487.37 145.48" />
            <polygon class="cls-6" points="498.8 145.48 498.38 159.13 486.95 159.14 487.37 145.48 498.8 145.48" />
            <polygon class="cls-4" points="397.81 145.2 397.47 158.87 354.74 158.88 355.04 145.21 397.81 145.2" />
            <polygon class="cls-4" points="267.14 144.77 266.92 158.44 230.35 158.45 230.55 144.77 267.14 144.77" />
            <polygon class="cls-43" points="98.64 144.04 98.56 157.73 97.14 103.92 97.22 90.4 98.64 144.04" />
            <polygon class="cls-6" points="143.43 144.04 143.31 157.72 98.56 157.73 98.64 144.04 143.43 144.04" />
            <polygon class="cls-4" points="699.72 163.55 699.12 177.24 681 85.36 681.57 71.96 699.72 163.55" />
            <polygon class="cls-6" points="699.72 163.55 699.12 177.24 615.05 177.34 615.58 163.65 699.72 163.55" />
            <polygon class="cls-9" points="615.58 163.65 615.05 177.34 612.06 160.1 612.58 146.45 615.58 163.65" />
            <polygon class="cls-8" points="681.57 71.96 699.72 163.55 615.58 163.65 612.58 146.45 639.71 146.45 636.44 128.48 649.07 128.48 644.74 105.14 632.19 105.14 629.21 88.72 602.53 88.71 599.61 71.92 681.57 71.96"
            />
            <polygon class="cls-6" points="441.26 162.17 440.89 175.88 401.15 175.9 401.49 162.18 441.26 162.17" />
            <polygon class="cls-4" points="443.12 162.93 442.74 176.64 434.54 176.64 434.91 162.93 443.12 162.93" />
            <polygon class="cls-11" points="401.49 162.18 401.15 175.9 399.15 158.12 399.49 144.46 401.49 162.18" />
            <polygon class="cls-4" points="399.71 162.18 399.38 175.9 397.47 158.87 397.81 145.2 399.71 162.18" />
            <polygon class="cls-4" points="433.14 162.93 432.78 176.64 401.23 176.65 401.57 162.94 433.14 162.93" />
            <polygon class="cls-6" points="399.71 162.18 399.38 175.9 356.44 175.91 356.74 162.19 399.71 162.18" />
            <polygon class="cls-5" points="356.74 162.19 356.44 175.91 354.74 158.88 355.04 145.21 356.74 162.19" />
            <polygon class="cls-8" points="397.81 145.21 399.71 162.18 356.74 162.19 355.04 145.21 397.81 145.21" />
            <polygon class="cls-6" points="354.98 162.19 354.68 175.91 269.99 175.94 270.22 162.22 354.98 162.19" />
            <polygon class="cls-34" points="270.22 162.22 269.99 175.94 268.62 157.69 268.84 144.02 270.22 162.22" />
            <polygon class="cls-4" points="268.45 162.22 268.22 175.94 266.92 158.44 267.14 144.77 268.45 162.22" />
            <polygon class="cls-14" points="268.45 162.22 268.22 175.94 231.47 175.96 231.67 162.23 268.45 162.22" />
            <polygon class="cls-12" points="267.14 144.77 268.45 162.22 231.67 162.23 230.55 144.77 267.14 144.77" />
            <polygon class="cls-55" points="231.67 162.23 231.47 175.96 230.35 158.45 230.55 144.77 231.67 162.23" />
            <polygon class="cls-6" points="229.89 162.23 229.7 175.96 144.02 175.99 144.14 162.25 229.89 162.23" />
            <polygon class="cls-15" points="144.14 162.25 144.02 175.99 143.31 157.72 143.43 144.04 144.14 162.25" />
            <polygon class="cls-4" points="399.8 162.94 399.46 176.65 152.51 176.74 152.63 163 399.8 162.94" />
            <polygon class="cls-4" points="435.59 183 435.22 196.78 432.78 176.64 433.14 162.93 435.59 183" />
            <polygon class="cls-14" points="435.59 183 435.22 196.78 403.5 196.8 403.84 183.02 435.59 183" />
            <polygon class="cls-56" points="403.84 183.02 403.5 196.8 401.23 176.65 401.57 162.94 403.84 183.02" />
            <polygon class="cls-4" points="435.69 183.77 435.31 197.55 401.8 197.56 402.14 183.78 435.69 183.77" />
            <polygon class="cls-4" points="402.14 183.78 401.8 197.56 399.46 176.65 399.8 162.94 402.14 183.78" />
            <polygon class="cls-4" points="440.18 220.68 439.8 234.57 435.31 197.55 435.69 183.77 440.18 220.68" />
            <polygon class="cls-8" points="399.8 162.94 402.14 183.78 435.69 183.77 440.18 220.68 155.05 220.87 152.63 163 399.8 162.94"
            />
            <polygon class="cls-7" points="155.05 220.87 154.92 234.79 152.51 176.74 152.63 163 155.05 220.87" />
            <polygon class="cls-6" points="440.18 220.68 439.8 234.57 154.92 234.79 155.05 220.87 440.18 220.68" />
            <path class="cls-4" d="M683.14,71.24l-85.38,0,3,17.5H545.2l.64,4.05H493.08l-.54-3.8H477.82l.14,1-1.67.47H434.07l-2.25-18h-9.51l-6.24-51.12-71.43-.05,1.82,18L219.2,39.16l-1.14-18.05L145,21.05l2.11,51.22H136.7l.67,17.42H95.46l1.43,55.12h44.8L142.4,163h8.45l2.42,58.65,288.8-.2-4.61-37.69-2.55-20.84h8.21l-2.27-18.21,43,.48h1.76l.14,1h15l-.68-4.78h53.51l.79,5h56.54l3.12,17.95,87.69-.1Zm-82.21,18.2h26.67l2.85,15.69h-6.61l-.69-3.87h-.58a21.19,21.19,0,0,0-3.64.3,13.61,13.61,0,0,0-2.92.82,6,6,0,0,0-1.94,1.23,2.18,2.18,0,0,0-.71,1.52H590.87l-2.67-15.7h12.73m21.77,15.77h-8.19v-.07a1.93,1.93,0,0,1,.6-1.27,5.09,5.09,0,0,1,1.59-1,11.33,11.33,0,0,1,2.39-.73,17.9,17.9,0,0,1,3-.32l.6,3.38v.07M586.47,89.43l2.66,15.7H566.65a3.44,3.44,0,0,0-1.24-1.5,9.41,9.41,0,0,0-2.36-1.22,17.66,17.66,0,0,0-3.19-.81,23,23,0,0,0-3.72-.3h-.58l.61,3.83h-6.65L547,89.42h39.43m-20.94,15.81h-8.19l0-.11-.54-3.34a20,20,0,0,1,3.08.32,14.93,14.93,0,0,1,2.62.72,8,8,0,0,1,1.94,1,3,3,0,0,1,1,1.26l0,0v.09M146.74,21.75l69.66.05,1.13,18.06,130.7.08-1.83-18,68.06,0,6.13,50.43-271.75-.1-2.11-50.52M386.35,73.08l2,17.55H351.48l-1.77-17.56h36.64m53.83,147.61L155,220.87,152.63,163l247.17-.07,2.34,20.85h33.54l4.49,36.91M230.55,144.77h36.59l1.31,17.45H231.67l-1.12-17.45m124.49.44H397.8l1.91,17h-43l-1.7-17M435.59,183H403.84l-2.27-20.08h31.57L435.59,183m62.53-42.3.68,4.78H487.37l-.14-1-1.84-.49H439l2.26,18.21H401.49l-2-17.72H353.21L355,162.19l-84.76,0L268.84,144H228.73l1.16,18.2-85.75,0L143.42,144H98.64L97.22,90.4h41.91L138.46,73,348,73.06l1.83,18.28h40.3l-2-18.28,42.1,0,2.24,18L478,90.67h1.74l-.14-1H490.9l.54,3.8H546l1.95,12.38h95.23l4,21.87H551.35l2,13H498.12M628,131.87a20.06,20.06,0,0,1-3.11-.32,15.08,15.08,0,0,1-2.65-.73,8.15,8.15,0,0,1-2-1.05,3.17,3.17,0,0,1-1.08-1.28v-.08l0,0h8.24l0,.11.61,3.39m-58.4-3.39a2,2,0,0,1-.64,1.28,5.26,5.26,0,0,1-1.62,1.05,11.52,11.52,0,0,1-2.41.73,18.11,18.11,0,0,1-3,.32l-.54-3.39,0-.11h8.24a.07.07,0,0,1,0,0v.06a.12.12,0,0,0,0,0m-13.63,17.23-2.72-17.23h7l.62,3.9h.58a21.44,21.44,0,0,0,3.66-.3,13.87,13.87,0,0,0,2.95-.83,6.23,6.23,0,0,0,2-1.24,2.28,2.28,0,0,0,.75-1.53h22.36L596,145.7H555.93m54.77,0H597.77l-2.93-17.22H618a3.55,3.55,0,0,0,1.27,1.52,9.64,9.64,0,0,0,2.4,1.24,17.89,17.89,0,0,0,3.23.83,23.12,23.12,0,0,0,3.75.3h.58l-.7-3.89h6.18l3.12,17.22H610.7m1.88.75h27.12l-3.27-18h12.63l-4.33-23.34H632.19l-3-16.42H602.53l-2.92-16.79,82,0,18.15,91.6-84.14.09-3-17.19"
            />
            <polygon class="cls-12" points="637.04 109.39 639.86 124.78 603.38 124.78 600.73 109.39 637.04 109.39" />
            <path class="cls-4" d="M569.57,128.37a.09.09,0,0,1,0,0v.06a.11.11,0,0,0,0,0h-8.21l0-.11Z" />
            <path class="cls-8" d="M627.35,128.48l.61,3.39a20,20,0,0,1-3.11-.32,15.12,15.12,0,0,1-2.65-.73,8.19,8.19,0,0,1-2-1.05,3.17,3.17,0,0,1-1.08-1.28Z"
            />
            <polygon class="cls-4" points="610.83 146.45 610.31 160.1 553.83 160.11 554.29 146.46 610.83 146.45" />
            <polygon class="cls-4" points="554.29 146.46 553.83 160.11 553.04 155.08 553.5 141.44 554.29 146.46" />
            <polygon class="cls-4" points="485.56 145.19 485.15 158.85 483.39 158.85 483.8 145.19 485.56 145.19" />
            <polygon class="cls-4" points="500.67 146.23 500.25 159.89 485.29 159.89 485.7 146.23 500.67 146.23" />
            <polygon class="cls-4" points="485.7 146.23 485.29 159.89 485.15 158.85 485.56 145.19 485.7 146.23" />
            <polygon class="cls-4" points="96.9 144.79 96.82 158.48 95.39 103.19 95.47 89.67 96.9 144.79" />
            <polygon class="cls-4" points="141.69 144.78 141.58 158.47 96.82 158.48 96.9 144.79 141.69 144.78" />
            <polygon class="cls-4" points="613.95 164.4 613.42 178.1 610.31 160.1 610.83 146.45 613.95 164.4" />
            <polygon class="cls-4" points="701.64 164.3 701.04 177.99 613.42 178.1 613.95 164.4 701.64 164.3" />
            <path class="cls-8" d="M112.67,95.44l321.25.07,5.48,44-218.3,0,1.15,18.7-67.8,0-.79-18.71H114ZM391.07,124l-1.53-13.72H357.11L358.5,124h32.57"
            />
            <polygon class="cls-4" points="150.85 163 150.73 176.75 142.28 176.75 142.4 163.01 150.85 163" />
            <polygon class="cls-4" points="142.4 163.01 142.28 176.75 141.58 158.47 141.69 144.78 142.4 163.01" />
            <polygon class="cls-12" points="433.14 162.93 435.59 183 403.84 183.02 401.57 162.94 433.14 162.93" />
            <polygon class="cls-4" points="442.07 221.46 441.69 235.35 153.14 235.58 153.27 221.66 442.07 221.46" />
            <polygon class="cls-4" points="153.27 221.66 153.14 235.58 150.73 176.75 150.85 163 153.27 221.66" />
        </g>
    </g>
    <g id="text_and_icons" data-name="text and icons">
        <text class="cls-57">
            <tspan x="45.6" y="52.08">H</tspan>
        </text>
        <text class="cls-57" transform="translate(60.8 52.08) scale(0.7)">ONNOLD</text>
        <text class="cls-57" transform="translate(126.33 52.08)">
            <tspan x="-47.19" y="24">4</tspan>
        </text>
        <text class="cls-57">
            <tspan x="675.45" y="33.81">M</tspan>
        </text>
        <text class="cls-57" transform="translate(692.81 33.81) scale(0.7)">UDD</text>
        <text class="cls-57" transform="translate(693.56 57.81)">4</text>
        <text class="cls-58" transform="translate(482.89 72.94)">4</text>
        <text class="cls-58" transform="translate(493.8 72.94) scale(0.7)">TH</text>
        <text class="cls-58" transform="translate(509.57 72.94)"> </text>
        <text class="cls-58" transform="translate(514.37 72.94) scale(0.7)">F
            <tspan class="cls-59" x="10.5" y="0">L</tspan>
            <tspan x="19.76" y="0">OOR</tspan>
        </text>
        <text class="cls-58" transform="translate(555.34 72.94)"> </text>
        <text class="cls-58" transform="translate(496.73 88.94) scale(0.7)">BRIDGE</text>
        <path d="M398.63,103.53v18.12a1.15,1.15,0,0,1-1.14,1.17h-19a1.15,1.15,0,0,1-1.13-1.17V103.53a1.15,1.15,0,0,1,1.13-1.17h19A1.15,1.15,0,0,1,398.63,103.53Zm-1.16,17V104.57a1,1,0,0,0-1-1h-17a1,1,0,0,0-1,1v15.94a1,1,0,0,0,1,1h17A1,1,0,0,0,397.47,120.51Z"
        />
        <path class="cls-2" d="M397.47,104.57v15.94a1,1,0,0,1-1,1h-17a1,1,0,0,1-1-1V104.57a1,1,0,0,1,1-1h17A1,1,0,0,1,397.47,104.57ZM395.55,115c1-1,0-1.09,0-1.09h-6.64c-.92,0-.39.7-.12,1l.12.13,2.8,2.92a.68.68,0,0,0,1.06,0Zm-.08-3.66s.87-.21,0-1.12h0l-2.79-2.91h0a.62.62,0,0,0-1-.05l-.05.05h0L389,110c-1,1-.13,1.24,0,1.27ZM386.66,114v-3.66a1.18,1.18,0,0,0-1.19-1.17h-4.07a1.18,1.18,0,0,0-1.19,1.17V114a1.18,1.18,0,0,0,1,1.15h0s.33,0,.39.44c.12.87.39,2.86.48,3.68.12,1,.75,1.07.75,1.07a3.15,3.15,0,0,0,1.29,0c.72-.15.79-1,.79-1l.45-3.8a.4.4,0,0,1,.32-.36h0A1.18,1.18,0,0,0,386.66,114Zm-1.47-7.43a1.7,1.7,0,1,0-1.7,1.77A1.74,1.74,0,0,0,385.18,106.56Z"
        />
        <path d="M395.55,113.88s1,.05,0,1.09l-2.79,2.9a.68.68,0,0,1-1.06,0l-2.8-2.92-.12-.13c-.26-.29-.8-1,.12-1h6.64Z" />
        <path d="M395.46,110.2c.87.9,0,1.12,0,1.12H389c-.12,0-1-.26,0-1.27l2.65-2.76h0l.05-.05a.62.62,0,0,1,1,.05h0l2.79,2.91Z"
        />
        <path d="M386.66,110.33V114a1.18,1.18,0,0,1-1,1.15h0a.4.4,0,0,0-.32.36l-.45,3.8s-.07.88-.79,1a3.15,3.15,0,0,1-1.29,0s-.63,0-.75-1.07c-.09-.81-.36-2.81-.48-3.68-.06-.43-.39-.44-.39-.44h0a1.18,1.18,0,0,1-1-1.15v-3.66a1.18,1.18,0,0,1,1.19-1.17h4.07A1.18,1.18,0,0,1,386.66,110.33Z"
        />
        <ellipse cx="383.48" cy="106.56" rx="1.7" ry="1.77" />
        <path d="M645.19,103.53v18.12a1.15,1.15,0,0,1-1.14,1.17H625a1.15,1.15,0,0,1-1.13-1.17V103.53a1.15,1.15,0,0,1,1.13-1.17h19A1.15,1.15,0,0,1,645.19,103.53Zm-1.16,17V104.57a1,1,0,0,0-1-1h-17a1,1,0,0,0-1,1v15.94a1,1,0,0,0,1,1h17A1,1,0,0,0,644,120.51Z"
        />
        <path class="cls-2" d="M644,104.57v15.94a1,1,0,0,1-1,1h-17a1,1,0,0,1-1-1V104.57a1,1,0,0,1,1-1h17A1,1,0,0,1,644,104.57ZM642.11,115c1-1,0-1.09,0-1.09h-6.64c-.92,0-.39.7-.12,1l.12.13,2.8,2.92a.68.68,0,0,0,1.06,0Zm-.08-3.66s.87-.21,0-1.12h0l-2.79-2.91h0a.62.62,0,0,0-1-.05l-.05.05h0L635.56,110c-1,1-.13,1.24,0,1.27ZM633.22,114v-3.66a1.18,1.18,0,0,0-1.19-1.17H628a1.18,1.18,0,0,0-1.19,1.17V114a1.18,1.18,0,0,0,1,1.15h0s.33,0,.39.44c.12.87.39,2.86.48,3.68.12,1,.75,1.07.75,1.07a3.15,3.15,0,0,0,1.29,0c.72-.15.79-1,.79-1l.45-3.8a.4.4,0,0,1,.32-.36h0A1.18,1.18,0,0,0,633.22,114Zm-1.47-7.43a1.7,1.7,0,1,0-1.7,1.77A1.74,1.74,0,0,0,631.75,106.56Z"
        />
        <path d="M642.11,113.88s1,.05,0,1.09l-2.79,2.9a.68.68,0,0,1-1.06,0l-2.8-2.92-.12-.13c-.26-.29-.8-1,.12-1h6.64Z" />
        <path d="M642,110.2c.87.9,0,1.12,0,1.12h-6.48c-.12,0-1-.26,0-1.27l2.65-2.76h0l.05-.05a.62.62,0,0,1,1,.05h0L642,110.2Z"
        />
        <path d="M633.22,110.33V114a1.18,1.18,0,0,1-1,1.15h0a.4.4,0,0,0-.32.36l-.45,3.8s-.07.88-.79,1a3.15,3.15,0,0,1-1.29,0s-.63,0-.75-1.07c-.09-.81-.36-2.81-.48-3.68-.06-.43-.39-.44-.39-.44h0a1.18,1.18,0,0,1-1-1.15v-3.66a1.18,1.18,0,0,1,1.19-1.17H632A1.18,1.18,0,0,1,633.22,110.33Z"
        />
        <ellipse cx="630.05" cy="106.56" rx="1.7" ry="1.77" />
        <use width="18.3" height="18.3" transform="translate(416.1 163.06)" xlink:href="#Staircase" />
        <use width="18.3" height="18.3" transform="translate(248.74 141.92)" xlink:href="#Staircase" />
        <use width="18.3" height="18.3" transform="translate(369.39 71.13)" xlink:href="#Staircase" />
        <use width="18.45" height="16.45" transform="translate(371.77 135.73) scale(1.4)" xlink:href="#Men_and_women_restroom"
        />
    </g>
</svg>