<svg id="Layer_1" data-name="Layer 1" xmlns="http://www.w3.org/2000/svg" viewBox="0 0 750 750"><defs><style>.cls-1{fill:#f2f2f2;}.cls-2{fill:#ccc;}</style></defs><title>person</title><rect class="cls-1" width="750" height="750"/><g id="Symbols"><g id="Header-2-open-search"><g id="search-bar-auto-suggest"><g id="librarian"><path id="Fill-1" class="cls-2" d="M428.74,365.35c4.69,2.48,34-34.13,37-38.86A104.76,104.76,0,0,0,482,270c0-60.41-48.29-109.38-107.86-109.38S266.28,209.57,266.28,270c0,43.71,23.89,69.79,54.36,96-5.37-4.62-45.54,18.69-51.53,22.16a202.39,202.39,0,0,0-47.64,37.57,180.55,180.55,0,0,0-35.82,58.16c-3,7.86-19.25,54.08-9.3,60.09,11.25,6.81,41.89.61,54.66.58,77.61,0,155.2,1.63,232.82,1.36q27.7-.11,55.41-.56c9.11-.17,49.38,4.33,54.71-2.76,6.06-8.06-6.53-46.1-9.84-55.51a180.61,180.61,0,0,0-30.55-54.14c-29.3-35.92-66.07-47.11-104.82-67.57"/></g></g></g></g></svg>